SplineFontDB: 3.2
FontName: H34-Tulis
FullName: H34 Tulis
FamilyName: H34 Tulis
Weight: Regular
Copyright: 
Version: 0.1 Beta
ItalicAngle: 0
UnderlinePosition: -900
UnderlineWidth: 100
Ascent: 1638
Descent: 410
InvalidEm: 0
sfntRevision: 0x00001999
LayerCount: 2
Layer: 0 0 "Back" 1
Layer: 1 0 "Fore" 0
XUID: [1021 226 590544602 4038903]
StyleMap: 0x0040
FSType: 0
OS2Version: 4
OS2_WeightWidthSlopeOnly: 0
OS2_UseTypoMetrics: 1
CreationTime: 1682710648
ModificationTime: 1757477750
PfmFamily: 81
TTFWeight: 400
TTFWidth: 5
LineGap: 59
VLineGap: 0
Panose: 0 0 0 0 0 0 0 0 0 0
OS2TypoAscent: 1638
OS2TypoAOffset: 0
OS2TypoDescent: -410
OS2TypoDOffset: 0
OS2TypoLinegap: 59
OS2WinAscent: 1590
OS2WinAOffset: 0
OS2WinDescent: 963
OS2WinDOffset: 0
HheadAscent: 1590
HheadAOffset: 0
HheadDescent: -963
HheadDOffset: 0
OS2SubXSize: 1434
OS2SubYSize: 1331
OS2SubXOff: 0
OS2SubYOff: 293
OS2SupXSize: 1434
OS2SupYSize: 1331
OS2SupXOff: 0
OS2SupYOff: 928
OS2StrikeYSize: 102
OS2StrikeYPos: 530
OS2CapHeight: 1395
OS2XHeight: 993
OS2Vendor: 'H34 '
OS2CodePages: 00000040.00000000
OS2UnicodeRanges: 80002001.00002000.00000008.00000000
Lookup: 2 0 0 "'isol' Multiple Isolated Forms lookup 0" { "'isol' Multiple Isolated Forms lookup 0-1"  } ['isol' ('DFLT' <'dflt' > 'arab' <'URD ' 'dflt' > 'cyrl' <'dflt' > ) ]
Lookup: 2 0 0 "'ccmp' Gabung Cincin Dot" { "'ccmp' Tasykil"  "'ccmp' Titik"  } ['ccmp' ('DFLT' <'dflt' > 'arab' <'URD ' 'dflt' > 'cyrl' <'dflt' > ) ]
Lookup: 2 0 0 "ccmp GabungBentuk" { "ccmp Lam Alif"  "ccmp Alif"  } ['ccmp' ('DFLT' <'dflt' > 'arab' <'dflt' > 'latn' <'dflt' > ) ]
Lookup: 2 1 0 "'ccmp' GabungTitik" { "'ccmp' HaBulat"  "'ccmp' Wau"  "'ccmp' Ya"  "'ccmp' Lam"  "'ccmp' Nun"  "'ccmp' Sin"  "'ccmp' To"  "'ccmp' Sod"  "'ccmp' Ra"  "'ccmp' Dal"  "'ccmp' Ba"  "'ccmp' Fa"  "'ccmp' Qaf"  "'ccmp' Ain"  "'ccmp' HaPedas"  "'ccmp' Kaf"  "'ccmp' Gaf"  } ['ccmp' ('DFLT' <'dflt' > 'arab' <'dflt' > 'latn' <'dflt' > ) ]

StartChar: .notdef
Encoding: 169 -1 0
GlifName: _notdef
Width: 751
GlyphClass: 1
Flags: HMW
HStem: -370 152<214 287 312 385 420 458 458 536 64 287> -140 40<214 419 215 261 261 287 312 359 312 312 359 385> -24 59<290 343 290 343> 111 36<215 404 216 343 343 404 216 419 216 536> 111 108<215 457 404 419 419 457 404 536> 295 53<217 295 217 328 216 295> 421 25<217 295 217 295> 519 109<217 295 217 295> 702 36<461 461 461 533 456 461> 702 106<217 370 217 370 328 370 295 404 328 328 295 533 295 456> 979 31<364 438 463 535> 1088 31<364 364 364 412 412 438 463 510 463 463 510 536> 1194 91<320 397 320 460> 1358 25<320 397 320 397> 1456 134<320 320 320 397 460 536 460 460>
VStem: 64 153<348 395 395 421 446 493 493 519 628 676 676 702> 64 231<348 421 446 519 628 702 808 846 846 979> 287 25<-218 -140 -218 -140> 290 53<-24 35 -24 35> 295 33<348 421 421 421 446 519 519 519 628 664 664 702> 370 90<904 904> 385 35<-218 -142 -218 -140 -218 -140> 397 63<1285 1358 1358 1358 1383 1456> 419 41<-100 35 -142 35> 438 25<1010 1088 1010 1088> 536 150<-218 111 111 111 1010 1088 1088 1088 1119 1456 1456 1456>
LayerCount: 2
Fore
SplineSet
64 1590 m 1xe73f0040
 686 1590 l 1
 686 -370 l 1
 64 -370 l 1
 64 1590 l 1xe73f0040
320 1456 m 1
 320 1430 l 1
 320 1383 l 1
 397 1383 l 1
 397 1456 l 1xe73e0240
 320 1456 l 1
460 1456 m 1
 460 1194 l 1xe73e0140
 214 1194 l 1
 214 1119 l 1
 536 1119 l 1
 536 1456 l 1
 460 1456 l 1
320 1358 m 1
 320 1332 l 1
 320 1285 l 1
 397 1285 l 1
 397 1358 l 1xe73e0240
 320 1358 l 1
356 1321 m 1
 358 1323 l 1
 361 1321 l 1
 358 1319 l 1
 356 1321 l 1
364 1088 m 1
 364 1010 l 1
 438 1010 l 1
 438 1088 l 1xe73e00c0
 412 1088 l 1
 364 1088 l 1
463 1088 m 1
 463 1010 l 1
 536 1010 l 1
 536 1088 l 1
 510 1088 l 1
 463 1088 l 1
295 979 m 1xe7be8840
 295 846 l 1
 295 808 l 1
 370 808 l 1xe77e8840
 370 846 l 1
 370 904 l 1
 460 904 l 1
 461 776 l 1
 461 738 l 1
 537 739 l 1
 537 777 l 1
 535 979 l 1
 295 979 l 1xe7be8840
217 702 m 1xe7bf1040
 217 676 l 1
 217 628 l 1
 295 628 l 1
 295 702 l 1
 217 702 l 1xe7bf1040
328 702 m 1xe77e1040
 328 664 l 1
 328 295 l 1
 216 295 l 1
 216 147 l 1
 404 147 l 1xf77e1040
 404 219 l 1
 457 219 l 1
 457 187 l 1
 457 149 l 1
 533 149 l 1
 533 187 l 1
 533 295 l 1
 404 295 l 1
 404 664 l 1
 404 702 l 1xefbe1040
 328 702 l 1xe77e1040
456 702 m 1xe7be0040
 456 676 l 1
 456 628 l 1
 533 628 l 1
 533 702 l 1
 456 702 l 1xe7be0040
217 519 m 1xe73f1040
 217 493 l 1
 217 446 l 1
 295 446 l 1
 295 519 l 1
 217 519 l 1xe73f1040
217 421 m 1
 217 395 l 1
 217 348 l 1
 295 348 l 1
 295 421 l 1
 217 421 l 1
215 111 m 1xf73e2140
 215 -100 l 1
 419 -100 l 1
 419 35 l 1
 460 35 l 1
 460 -142 l 1xf73e2140
 458 -142 l 1
 420 -142 l 1
 420 -218 l 1
 458 -218 l 1
 536 -218 l 1
 536 111 l 1xf73e0440
 419 111 l 1xef3e0140
 343 111 l 1
 215 111 l 1xf73e2140
290 35 m 1
 343 35 l 1
 343 -24 l 1
 290 -24 l 1
 290 35 l 1
214 -140 m 1
 214 -218 l 1
 287 -218 l 1
 287 -140 l 1xe73e4040
 261 -140 l 1
 214 -140 l 1
312 -140 m 1
 312 -218 l 1
 385 -218 l 1
 385 -140 l 1xe73e4440
 359 -140 l 1
 312 -140 l 1
EndSplineSet
EndChar

StartChar: hamzah
Encoding: 14 1569 4
GlifName: hamzah
Width: 538
GlyphClass: 2
Flags: HMW
HStem: 221.51 113
VStem: 23.8203 77.998
LayerCount: 2
Fore
SplineSet
515.8203125 301.380859375 m 5
 500.796875 259.046875 486.834960938 225.698242188 471.819335938 183.380859375 c 5
 401.5234375 184.240234375 334.66796875 167.188476562 267.819335938 147.380859375 c 4
 155.110351562 112.614257812 55.28125 21.677734375 34.029296875 0 c 4
 27.7587890625 -6.396484375 18.6689453125 4.5498046875 23.58203125 11.689453125 c 4
 52.087890625 53.11328125 85.849609375 94.5732421875 125.161132812 125.93359375 c 4
 154.213867188 147.6484375 187.420898438 162.021484375 220.817382812 175.380859375 c 5
 219.819335938 183.380859375 l 5
 148.053710938 178.282226562 23.8203125 214.670898438 23.8203125 249.380859375 c 4
 23.8203125 319.380859375 55.4853515625 390.047851562 118.819335938 461.380859375 c 4
 182.817382812 531.380859375 256.151367188 566.380859375 338.817382812 566.380859375 c 4
 368.022460938 566.380859375 405.669921875 538.569335938 409.8203125 505.380859375 c 5
 393.2734375 478.653320312 374.923828125 449.672851562 355.818359375 422.380859375 c 5
 332.78515625 445.084960938 310.18359375 456.274414062 284.255859375 461.666992188 c 4
 161.141601562 487.280273438 101.87890625 379.575195312 101.818359375 379.380859375 c 4
 101.818359375 342.713867188 149.818359375 317.047851562 245.818359375 302.380859375 c 4
 319.885742188 294.817382812 389.55078125 296.1796875 468.818359375 296.380859375 c 5
 515.8203125 301.380859375 l 5
EndSplineSet
Substitution2: "Single Sub Hamzah ke hamzahKecil-1" hamzahKecilLamAlif.ccmp
Substitution2: "Single Substitution in Arabic lookup 14 Hamzah34-1" hamzahTigaSuku
EndChar

StartChar: uni0624
Encoding: 16 1572 6
GlifName: uni0624
Width: 550
GlyphClass: 2
Flags: HMW
HStem: -453.313 111.152 365.688 166
VStem: 94.7266 48.998 429.725 51.001
LayerCount: 2
Fore
SplineSet
403.999023438 727 m 5
 324.091796875 729.870117188 278.481445312 709.51171875 143 635 c 4
 130.051757812 627.87890625 172.786132812 669.784179688 180.000976562 676 c 4
 201.704101562 694.704101562 264.999023438 731 264.999023438 731 c 5
 212.463867188 731.85546875 136.303710938 732.201171875 108.000976562 776 c 5
 109.47265625 814.280273438 133.56640625 853.818359375 160 886 c 4
 189.360351562 917.318359375 237.00390625 952.366210938 304 954 c 5
 333.095703125 950.551757812 344.124023438 942.227539062 354 920 c 4
 356.962890625 904.060546875 339.334960938 876 338.000976562 874 c 5
 322.407226562 891.822265625 303.463867188 903 268 903 c 4
 225.26171875 899.805664062 171.625976562 891.9609375 153.000976562 848 c 5
 159.4140625 796.596679688 221.081054688 792.477539062 267.853515625 785.946289062 c 4
 327.504882812 778.309570312 395.484375 778 439.999023438 778 c 5
 403.999023438 727 l 5
265.723632812 365.6875 m 4
 211.34765625 365.6875 142.076171875 278.064453125 143.724609375 242.686523438 c 4
 146.955078125 173.329101562 323.384765625 127.362304688 377.7265625 197.6875 c 4
 385.291992188 212.8203125 349.213867188 365.6875 265.723632812 365.6875 c 4
480.725585938 181.684570312 m 4
 480.725585938 141.01953125 479.225585938 103.686523438 476.224609375 69.685546875 c 4
 462.009765625 -91.447265625 355.370117188 -358.540039062 174.723632812 -435.315429688 c 4
 150.723632812 -447.314453125 127.056640625 -453.313476562 103.725585938 -453.313476562 c 4
 -55.6533203125 -453.313476562 -261.334960938 -389.106445312 -267.276367188 -359.313476562 c 4
 -268.784179688 -351.739257812 -262.377929688 -339.938476562 -254.962890625 -342.161132812 c 4
 -229.133789062 -349.8984375 -141.274414062 -368.90234375 -108.275390625 -374.813476562 c 4
 -10.9833984375 -395.970703125 60.6728515625 -357.471679688 143.724609375 -303.315429688 c 4
 159.19921875 -292.999023438 429.724609375 -110.107421875 429.724609375 67.6865234375 c 4
 429.724609375 87.01953125 427.891601562 105.01953125 424.225585938 121.684570312 c 4
 420.559570312 138.352539062 415.392578125 153.685546875 408.725585938 167.685546875 c 5
 357.3125 52.0068359375 312.9375 5.5283203125 208.724609375 15.6875 c 4
 114.8828125 22.630859375 94.7265625 140.770507812 94.7265625 201.685546875 c 4
 94.7265625 294.78515625 237.108398438 531.6875 316.724609375 531.6875 c 4
 368.575195312 531.6875 480.725585938 346.7421875 480.725585938 181.684570312 c 4
EndSplineSet
EndChar

StartChar: uni0626
Encoding: 18 1574 8
GlifName: uni0626
Width: 1228
GlyphClass: 2
Flags: HMW
VStem: -26.75 51.502 485.752 73.002
LayerCount: 2
Fore
SplineSet
187.999023438 391 m 1
 108.091796875 393.870117188 62.4814453125 373.51171875 -73 299 c 0
 -85.9482421875 291.87890625 -43.2138671875 333.784179688 -35.9990234375 340 c 0
 -14.2958984375 358.704101562 48.9990234375 395 48.9990234375 395 c 1
 -3.5361328125 395.85546875 -79.6962890625 396.201171875 -107.999023438 440 c 1
 -106.52734375 478.280273438 -82.43359375 517.818359375 -56 550 c 0
 -26.6396484375 581.318359375 21.00390625 616.366210938 88 618 c 1
 117.095703125 614.551757812 128.124023438 606.227539062 138 584 c 0
 140.962890625 568.060546875 123.334960938 540 122.000976562 538 c 1
 106.407226562 555.822265625 87.4638671875 567 52 567 c 0
 9.26171875 563.805664062 -44.3740234375 555.9609375 -62.9990234375 512 c 1
 -56.5859375 460.596679688 5.0810546875 456.477539062 51.853515625 449.946289062 c 0
 111.504882812 442.309570312 179.484375 442 223.999023438 442 c 1
 187.999023438 391 l 1
982.751953125 409.388671875 m 0
 980.751953125 400.0546875 978.416015625 390.388671875 975.751953125 380.388671875 c 1
 954.6328125 408.548828125 864.421875 469.078125 749.751953125 381.388671875 c 1
 672.341796875 328.30859375 573.681640625 222.049804688 558.75390625 147.388671875 c 1
 558.75390625 53.1875 860.326171875 37.140625 904.75 18.388671875 c 0
 959.953125 -4.9130859375 898.90625 -189.534179688 849.75 -249.611328125 c 0
 842.41796875 -255.611328125 675.3515625 -461.354492188 251.470703125 -461.354492188 c 0
 40.63671875 -461.354492188 -26.75 -300.362304688 -26.75 -172.111328125 c 0
 -26.75 -119.43359375 -10.060546875 85.716796875 75.46875 233.857421875 c 0
 99.759765625 275.928710938 72.7734375 150.0625 70.095703125 140.732421875 c 0
 48.57421875 65.736328125 24.251953125 -26.111328125 24.751953125 -113.611328125 c 0
 24.751953125 -185.34375 93.943359375 -260.814453125 174.751953125 -287.611328125 c 1
 511.5703125 -377.862304688 815.75 -200.9453125 841.751953125 -167.611328125 c 1
 829.794921875 -122.993164062 648.921875 -96.01171875 592.75 -88.111328125 c 0
 528.33984375 -78.537109375 485.23828125 -19.322265625 485.751953125 2.388671875 c 0
 489.07421875 142.388671875 606.12109375 397.857421875 767.75 515.887695312 c 0
 882.537109375 599.713867188 971.25390625 566.36328125 984.751953125 558.388671875 c 0
 992.751953125 555.0546875 1002.08398438 539.721679688 1012.75 512.388671875 c 1
 1002.33007812 478.15625 990.34765625 444.392578125 982.751953125 409.388671875 c 0
EndSplineSet
EndChar

StartChar: alif
Encoding: 19 1575 9
GlifName: alif
Width: 382
GlyphClass: 2
Flags: W
VStem: 111.677 148.94
AnchorPoint: "atas" 170 1300 basechar 0
AnchorPoint: "bawah" 195 -47 basechar 0
LayerCount: 2
Fore
SplineSet
260.6171875 191.99609375 m 1
 249.587890625 134.729492188 209.048828125 9.99609375 209.048828125 9.99609375 c 1
 190.23828125 9.99609375 l 1
 190.23828125 9.99609375 133.223632812 725.129882812 111.676757812 939.99609375 c 0
 109.26171875 953.885742188 211.342773438 1166.41992188 211.342773438 1166.41992188 c 1
 224.654296875 1169.640625 l 1
 224.654296875 1169.640625 264.374023438 233.364257812 260.6171875 191.99609375 c 1
EndSplineSet
Substitution2: "Single Sub Alif" alif.fina_lamalif
Substitution2: "Single Sub Alif - Isol" alif.fina_lamalifisol
MultipleSubs2: "'fina' Arabic Terminal Forms-1" alif.fina
Comment: "+AH8A"
EndChar

StartChar: ha_pedas
Encoding: 25 1581 10
GlifName: ha_pedas
Width: 1032
GlyphClass: 2
Flags: W
HStem: -714.864 112.979<565.424 853.621> 311.347 194<155.499 468.684> 314.347 142<623.95 862.294>
VStem: 89.9287 68.999<-342.916 -129.998>
AnchorPoint: "titik_atas" 525 645 basechar 0
AnchorPoint: "titik_bawah" 550 -95 basechar 0
AnchorPoint: "atas" 522 872 basechar 0
LayerCount: 2
Fore
SplineSet
688.318359375 -714.864257812 m 4xb0
 535.017578125 -714.260742188 379.209960938 -725.85546875 227.930664062 -612.653320312 c 4
 146.64453125 -551.826171875 89.9287109375 -454.149414062 89.9287109375 -335.653320312 c 4
 88.9453125 -210.291015625 124.231445312 -100.795898438 180.928710938 9.8466796875 c 4
 250.453125 144.0625 354.314453125 231.981445312 469.9296875 311.346679688 c 5
 393.126953125 348.752929688 153.040039062 368.544921875 81.931640625 323.346679688 c 5
 81.931640625 357.940429688 l 5
 109.967773438 418.844726562 166.951171875 505.346679688 243.9296875 505.346679688 c 4xd0
 367.145507812 505.346679688 446.440429688 479.22265625 568.081054688 465.482421875 c 4
 686.18359375 452.315429688 805.321289062 456.346679688 923.930664062 456.346679688 c 5
 893.33984375 391.766601562 875.446289062 354.465820312 855.9296875 314.346679688 c 5
 354.567382812 284.592773438 158.927734375 -80.2861328125 158.927734375 -189.653320312 c 4
 158.927734375 -610.430664062 733.874023438 -601.884765625 1004 -601.884765625 c 5
 1004 -615 l 5
 956.177734375 -639.694335938 721.624023438 -714.995117188 688.318359375 -714.864257812 c 4xb0
EndSplineSet
MultipleSubs2: "'fina' Arabic Terminal Forms-1" ha_pedas.fina
MultipleSubs2: "'medi' Arabic Medial Forms-1" ha_pedas.medi
MultipleSubs2: "'init' Initial Forms lookup 11-1" ha_pedas.init
EndChar

StartChar: dal
Encoding: 27 1583 11
GlifName: dal
Width: 723
GlyphClass: 2
Flags: HMW
HStem: 21.6055 152
AnchorPoint: "titik_atas" 330 845 basechar 0
AnchorPoint: "atas" 332 799 basechar 0
AnchorPoint: "bawah" 429 -105 basechar 0
AnchorPoint: "cincin" 479 -170 basechar 0
LayerCount: 2
Fore
SplineSet
650.408203125 213.60546875 m 0
 640.830078125 162.916992188 632.216796875 112.052734375 621.407226562 61.60546875 c 1
 570.012695312 27.5322265625 191.844726562 -9.294921875 70.4091796875 21.60546875 c 1
 103.33984375 135.369140625 72.869140625 33.4189453125 112.407226562 173.60546875 c 1
 254.200195312 152.15234375 418.555664062 161.872070312 582.41015625 186.60546875 c 1
 583.600585938 191.55078125 621.411132812 357.607421875 369.407226562 546.60546875 c 1
 368.8515625 607.833007812 385.397460938 669.564453125 397.41015625 729.60546875 c 1
 458.887695312 687.448242188 515.251953125 618.328125 542.408203125 577.60546875 c 0
 602.478515625 487.521484375 665.159179688 331.620117188 650.408203125 213.60546875 c 0
EndSplineSet
MultipleSubs2: "'fina' Arabic Terminal Forms-1" uni062F.fina
EndChar

StartChar: ra
Encoding: 29 1585 12
GlifName: ra
Width: 490
GlyphClass: 2
Flags: HMW
HStem: -459.007 88
VStem: 378 51.001
AnchorPoint: "titik_atas" 180 655 basechar 0
AnchorPoint: "atas" 238 607 basechar 0
AnchorPoint: "bawah" 505 -656 basechar 0
AnchorPoint: "cincin" 350 -685 basechar 0
LayerCount: 2
Fore
SplineSet
429.000976562 37.9931640625 m 0
 429.000976562 -15.3408203125 418.165039062 -69.0068359375 396.5 -123.006835938 c 0
 331.995117188 -288.865234375 227.12890625 -381.923828125 198.740234375 -404.951171875 c 0
 144.073242188 -447.6171875 108.001953125 -459.006835938 64.001953125 -459.006835938 c 0
 22 -459.006835938 -50 -440.006835938 -151.998046875 -402.0078125 c 0
 -251.99609375 -365.340820312 -293.405273438 -331.158203125 -306.686523438 -318.600585938 c 0
 -308.141601562 -317.2265625 -300.9296875 -296.033203125 -293.998046875 -299.006835938 c 0
 -226.431640625 -328 -142.201171875 -369.869140625 -64.9970703125 -371.006835938 c 0
 -26.33203125 -371.006835938 16.5009765625 -357.506835938 63.5029296875 -330.506835938 c 0
 138.033203125 -287.689453125 225.0234375 -209.64453125 284.498046875 -136.006835938 c 0
 328.223632812 -81.8740234375 378 -12.3818359375 378 59.9931640625 c 1
 368.5390625 162.666992188 260.399414062 231.037109375 184 287.993164062 c 1
 196.094726562 344.37890625 209.141601562 400.5546875 220.998046875 456.993164062 c 1
 382.931640625 331.625976562 419.525390625 231.241210938 429.000976562 37.9931640625 c 0
EndSplineSet
MultipleSubs2: "'fina' Arabic Terminal Forms-1" uni0631.fina
EndChar

StartChar: sin
Encoding: 31 1587 13
GlifName: sin
Width: 1580
GlyphClass: 2
Flags: W
HStem: -415.005 140.001<230.22 634.252> 0.996094 140<931.567 1120.11>
VStem: 55 65.502<-151.671 42.3513> 1420 105<146.475 311.793> 1449 76<145.598 292.633>
AnchorPoint: "titik_atas" 1130 565 basechar 0
AnchorPoint: "titik_bawah" 1204 -160 basechar 0
AnchorPoint: "bawah" 1214 -160 basechar 0
LayerCount: 2
Fore
SplineSet
1525 430.995117188 m 1xe8
 1525 238.995117188 l 2xf0
 1525 166.663085938 1487.49707031 64.23828125 1469 17.994140625 c 1
 1358.96191406 -7.595703125 1250.63671875 -2.4853515625 1153 55.99609375 c 1
 1094.99316406 -8.646484375 1018.27734375 0.99609375 941.5 0.99609375 c 1
 925.3046875 -61.0419921875 915.69921875 -134.952148438 877.50390625 -188.004882812 c 1
 811.720703125 -295.20703125 644.685546875 -415.004882812 364.501953125 -415.004882812 c 0
 295.68359375 -415.004882812 201.879882812 -401.16015625 131.501953125 -330.005859375 c 0
 80.7724609375 -278.717773438 55 -210.004882812 55 -136.00390625 c 0
 55 10.3681640625 143.599609375 192.680664062 168 232.993164062 c 0
 183.330078125 258.327148438 189.509765625 261.737304688 209.5 272.99609375 c 0
 229.493164062 284.255859375 200.502929688 219.170898438 198.50390625 212.99609375 c 0
 176.064453125 143.759765625 120.501953125 38.4775390625 120.501953125 -17.00390625 c 0
 120.501953125 -252.881835938 329.286132812 -275.00390625 426 -275.00390625 c 0
 504.41796875 -275.00390625 862 -197.9765625 862 -61.0048828125 c 0
 864.661132812 56.40625 798.74609375 151.614257812 743.001953125 248.994140625 c 1
 764.798828125 297.72265625 789.005859375 350.232421875 814 402.99609375 c 1
 857.083007812 339.416015625 915.46484375 187.225585938 918.50390625 182.99609375 c 0
 936.225585938 158.329101562 957.823242188 148.57421875 980.5 140.99609375 c 0
 1007.84179688 131.859375 1103.25683594 145.583007812 1121 147.997070312 c 0
 1137.66601562 149.99609375 1147.33300781 162.328125 1150 184.995117188 c 2
 1150 257.994140625 l 2
 1152.29589844 285.547851562 1180.06445312 322.631835938 1281 406.995117188 c 1
 1224 178.995117188 l 1
 1237.56347656 136.357421875 1403.5 143.994140625 1449 143.994140625 c 1xe8
 1443.45507812 197.009765625 1435.32421875 244.53515625 1420 294.99609375 c 1xf0
 1455.75488281 339.762695312 1491.26464844 384.6875 1525 430.995117188 c 1xe8
EndSplineSet
MultipleSubs2: "'init' Initial Forms lookup 11-1" uni0633.init
MultipleSubs2: "'medi' Arabic Medial Forms-1" uni0633.medi
MultipleSubs2: "'fina' Arabic Terminal Forms-1" uni0633.fina
EndChar

StartChar: sod
Encoding: 33 1589 14
GlifName: sod
Width: 2088
GlyphClass: 2
Flags: HMW
HStem: -405.351 135 10.6494 137.155 365.649 139
VStem: 107.005 63.998 1916 100
AnchorPoint: "titik_atas" 1295 515 basechar 0
AnchorPoint: "titik_bawah" 1651 -252 basechar 0
AnchorPoint: "atas" 1639 896 basechar 0
AnchorPoint: "bawah" 1639 -184 basechar 0
LayerCount: 2
Fore
SplineSet
1753.00097656 504.649414062 m 0
 1831.41894531 504.649414062 2016.00097656 378.793945312 2016.00097656 256.649414062 c 0
 2016.00097656 241.7421875 1947.1015625 88.4912109375 1908.00097656 52.6494140625 c 1
 1891.265625 43.0859375 1835.56542969 32.6572265625 1732.00097656 20.6494140625 c 1
 1612.71777344 15.748046875 1493.3359375 14.0419921875 1374.00097656 10.6494140625 c 2
 992.000976562 10.6494140625 l 1
 975.805664062 -51.388671875 966.201171875 -125.296875 928.004882812 -178.350585938 c 1
 862.221679688 -285.551757812 695.186523438 -405.350585938 415.002929688 -405.350585938 c 0
 346.185546875 -405.350585938 252.381835938 -391.504882812 182.002929688 -320.350585938 c 0
 131.275390625 -269.0625 107.004882812 -205.350585938 107.004882812 -131.350585938 c 0
 107.004882812 15.0224609375 195.603515625 197.336914062 220.004882812 237.649414062 c 0
 235.334960938 262.983398438 240.010742188 271.390625 260.000976562 282.649414062 c 0
 279.995117188 293.909179688 251.004882812 228.82421875 249.004882812 222.649414062 c 0
 226.56640625 153.413085938 171.002929688 48.130859375 171.002929688 -7.3505859375 c 0
 171.002929688 -243.228515625 381.2890625 -270.350585938 478.002929688 -270.350585938 c 0
 556.420898438 -270.350585938 915.002929688 -193.322265625 915.002929688 -56.3505859375 c 0
 917.6640625 61.060546875 851.749023438 156.26953125 796.004882812 253.649414062 c 1
 817.801757812 302.37890625 842.008789062 354.88671875 867.002929688 407.649414062 c 1
 910.0859375 344.0703125 965.966796875 196.877929688 969.004882812 192.649414062 c 0
 986.727539062 167.981445312 1007.09179688 150.649414062 1031.00097656 150.649414062 c 2
 1031.00097656 150.649414062 1038.75390625 147.8046875 1103.9921875 147.8046875 c 0
 1175.06445312 147.8046875 1449.00097656 350.649414062 1449.00097656 350.649414062 c 1
 1573.54882812 441.666015625 1665.99707031 504.649414062 1753.00097656 504.649414062 c 0
1635.00097656 365.649414062 m 0
 1548.47558594 365.649414062 1390.76074219 202.072265625 1245.00097656 140.649414062 c 1
 1395.31933594 135.721679688 1545.67285156 137.666015625 1696.00097656 141.649414062 c 1
 1749.96777344 147.646484375 1822.09863281 152.896484375 1873.44140625 161.745117188 c 0
 1911.50976562 170.797851562 1916.00097656 178.983398438 1916.00097656 201.649414062 c 0
 1916.00097656 242.63671875 1847.35449219 297.529296875 1824.00097656 311.650390625 c 0
 1764.32519531 347.732421875 1695.11816406 365.649414062 1635.00097656 365.649414062 c 0
EndSplineSet
MultipleSubs2: "'init' Initial Forms lookup 11-1" sod.init
MultipleSubs2: "'medi' Arabic Medial Forms-1" sod.medi
MultipleSubs2: "'fina' Arabic Terminal Forms-1" sod.fina
EndChar

StartChar: to
Encoding: 35 1591 15
GlifName: to
Width: 1290
GlyphClass: 2
Flags: HMW
HStem: 9.99609 139.998
VStem: -115.929 93
AnchorPoint: "titik_atas" 795 630 basechar 0
LayerCount: 2
Fore
SplineSet
421.49609375 1166.2109375 m 0
 421.911132812 1166.22949219 422.259765625 1166.15722656 422.536132812 1165.99804688 c 0
 427.903320312 1162.90039062 431.881835938 1157.38964844 433.069335938 1153.49609375 c 0
 427.487304688 1130.97363281 412.0078125 1103.96289062 424.072265625 1081.49609375 c 1
 449.64453125 1057.88769531 535.881835938 1010.078125 568.072265625 996.494140625 c 1
 482.069335938 826.494140625 l 1
 473.619140625 830.438476562 465.08984375 834.205078125 457.071289062 838.994140625 c 1
 459.939453125 801.705078125 484.071289062 555.474609375 484.071289062 552.994140625 c 0
 484.071289062 461.249023438 492.482421875 303.0625 435.069335938 208.994140625 c 1
 454.6328125 214.236328125 473.573242188 221.661132812 512.573242188 246.994140625 c 0
 660.89453125 344.740234375 797.013671875 490.5546875 977.069335938 520.994140625 c 1
 1053.80371094 520.994140625 1246.07226562 385.102539062 1246.07226562 263.994140625 c 0
 1246.07226562 210.755859375 1156.95214844 9.99609375 1106.0703125 9.99609375 c 2
 108.073242188 9.99609375 l 2
 37.5048828125 9.99609375 -106.8984375 41.4501953125 -115.928710938 210.994140625 c 0
 -120.349609375 293.958984375 -50.18359375 446.032226562 -27.9306640625 451.994140625 c 0
 -25.9521484375 452.524414062 -25.2841796875 450.435546875 -22.9287109375 440.994140625 c 0
 -28.01171875 400.323242188 -65.5791015625 285.833007812 -54.4287109375 243.494140625 c 0
 -28.765625 150.013671875 88.59375 149.994140625 164.069335938 149.994140625 c 0
 242.641601562 149.994140625 327.548828125 135.760742188 393.071289062 187.994140625 c 1
 429.147460938 208.82421875 374.21484375 679.177734375 354.5234375 898.9140625 c 1
 317.357421875 920.515625 287.586914062 946.436523438 317.071289062 992.478515625 c 2
 396.071289062 1136.47851562 l 2
 407.208984375 1157.36328125 417.484375 1166.03027344 421.49609375 1166.2109375 c 0
891.069335938 378.994140625 m 1
 757.73046875 378.994140625 664.37109375 225.469726562 498.071289062 156.994140625 c 1
 499.073242188 149.994140625 l 1
 1026.0703125 149.994140625 l 2
 1099.30078125 149.994140625 1141.05371094 157.098632812 1145.06835938 196.994140625 c 0
 1146.36035156 209.837890625 1072.0703125 359.427734375 891.069335938 378.994140625 c 1
EndSplineSet
EndChar

StartChar: ain
Encoding: 37 1593 16
GlifName: ain
Width: 786
GlyphClass: 2
Flags: HMW
HStem: 235.996 116 512.996 126
VStem: 64.5928 88.002
AnchorPoint: "titik_atas" 295 765 basechar 0
LayerCount: 2
Fore
SplineSet
972.59375 -672.00390625 m 1
 966.508789062 -693.904296875 745.369140625 -782.00390625 539.592773438 -782.00390625 c 0
 74.537109375 -782.00390625 -4.6904296875 -517.280273438 45.5927734375 -291.00390625 c 0
 87.814453125 -95.740234375 175.46484375 24.6796875 248.594726562 109.99609375 c 1
 248.594726562 109.99609375 64.5927734375 191.172851562 64.5927734375 275.99609375 c 0
 64.5927734375 368.44921875 201.778320312 638.99609375 350.592773438 638.99609375 c 0
 416.53125 638.99609375 517.87890625 514.8359375 516.59375 483.99609375 c 1
 456.571289062 500.338867188 402.1796875 512.375 338.592773438 512.99609375 c 0
 256.665039062 512.99609375 156.552734375 437.791015625 152.594726562 417.99609375 c 0
 152.594726562 312.22265625 295.484375 216.46875 413.59375 245.99609375 c 1
 413.59375 245.99609375 680.262695312 348.663085938 689.59375 351.99609375 c 1
 677.73828125 325.739257812 647.44921875 262.244140625 635.592773438 235.99609375 c 1
 386.987304688 159.83203125 111.594726562 -102.014648438 111.594726562 -290.00390625 c 0
 111.594726562 -789.202148438 923.78125 -639.455078125 972.59375 -672.00390625 c 1
EndSplineSet
MultipleSubs2: "'init' Initial Forms lookup 11-1" uni0639.init
MultipleSubs2: "'medi' Arabic Medial Forms-1" uni0639.medi
MultipleSubs2: "'fina' Arabic Terminal Forms-1" uni0639.fina
EndChar

StartChar: kasyida
Encoding: 41 1600 17
GlifName: kasyida
Width: 229
GlyphClass: 2
Flags: W
HStem: 0 140
VStem: -32.5527 294.105
AnchorPoint: "bawah" 116 -83 basechar 0
AnchorPoint: "atas" 112 260 basechar 0
LayerCount: 2
Fore
SplineSet
0 140 m 1
 -32.552734375 107.44140625 l 1
 -32.552734375 0 l 1
 24.419921875 0 l 1
 204.580078125 0 l 1
 229 0 l 1
 261.552734375 32.55859375 l 1
 261.552734375 140 l 1
 204.580078125 140 l 1
 24.419921875 140 l 1
 0 140 l 1
EndSplineSet
EndChar

StartChar: lam
Encoding: 45 1604 18
GlifName: lam
Width: 825
GlyphClass: 2
Flags: HMW
HStem: -376.351 150
AnchorPoint: "titik_atas" 330 740 basechar 0
AnchorPoint: "atas" 215 100 basechar 0
LayerCount: 2
Fore
SplineSet
713.998046875 746.650390625 m 1
 699.000976562 753.650390625 l 1
 723.998046875 418.150390625 733.669921875 290.272460938 749 82.6494140625 c 1
 680.1328125 -365.077148438 269.211914062 -376.350585938 228 -376.350585938 c 0
 -175.473632812 -376.350585938 -132.514648438 12.6611328125 22.998046875 257.149414062 c 0
 35.85546875 277.36328125 46.3330078125 290.31640625 54.9990234375 295.649414062 c 1
 51.6083984375 271.918945312 52.5009765625 271.149414062 49.9990234375 246.649414062 c 1
 32.419921875 206.974609375 10.7744140625 153.615234375 0 112.649414062 c 0
 -47.09765625 -47.095703125 1.9267578125 -226.350585938 253.000976562 -226.350585938 c 0
 415.233398438 -229.232421875 613.805664062 -146.798828125 678.999023438 -32.349609375 c 1
 570.000976562 828.649414062 l 1
 544.024414062 843.087890625 521.252929688 864.592773438 548.999023438 912.649414062 c 2
 627.998046875 1056.64941406 l 2
 654.220703125 1105.81347656 662.981445312 1080.22949219 665 1073.64941406 c 0
 659.4140625 1051.12695312 643.936523438 1024.1171875 656.000976562 1001.64941406 c 1
 681.577148438 978.041015625 767.811523438 930.233398438 799.997070312 916.649414062 c 1
 713.998046875 746.650390625 l 1
EndSplineSet
Substitution2: "Single Sub Lam - Isol" lam.init_lamalifisol
MultipleSubs2: "'init' Initial Forms lookup 11-1" lam.init
MultipleSubs2: "'medi' Arabic Medial Forms-1" lam.medi
MultipleSubs2: "'fina' Arabic Terminal Forms-1" lam.fina
EndChar

StartChar: mim
Encoding: 46 1605 19
GlifName: mim
Width: 748
GlyphClass: 2
Flags: HMW
HStem: 357.65 119
VStem: 155.627 47.002
LayerCount: 2
Fore
SplineSet
723.62890625 170.650390625 m 1
 712.420898438 121.94140625 693.908203125 76.2763671875 673.625976562 30.6494140625 c 1
 532.245117188 69.3837890625 197.352539062 124.364257812 106.62890625 0.6494140625 c 1
 159.063476562 -212.768554688 202.62890625 -383.452148438 202.62890625 -462.349609375 c 0
 202.62890625 -534.634765625 165.935546875 -767.904296875 155.626953125 -707.349609375 c 0
 135.258789062 -587.713867188 88.7958984375 -292.783203125 36.6279296875 -38.3505859375 c 1
 51.12890625 5.9306640625 68.1181640625 60.1396484375 122.627929688 114.650390625 c 0
 127.333984375 118.928710938 263.1484375 224.528320312 421.625976562 211.649414062 c 0
 461.271484375 208.427734375 502.079101562 185.83203125 538.62890625 170.650390625 c 1
 523.607421875 198.076171875 434.23046875 352.767578125 326.627929688 357.650390625 c 0
 303.9609375 357.650390625 247.2578125 336.6171875 177.626953125 290.650390625 c 1
 186.495117188 316.055664062 186.232421875 315.65625 196.626953125 341.650390625 c 0
 242.180664062 420.552734375 340.966796875 476.663085938 417.626953125 476.650390625 c 0
 488.366210938 476.650390625 632.373046875 234.305664062 723.62890625 170.650390625 c 1
EndSplineSet
Substitution2: "'ss01' Muka Creeper" mim.ss01
Substitution2: "'init' Initial Forms Single Pos-1" mim.init
Substitution2: "'medi' Medial Forms Single Pos-1" mim.medi
Substitution2: "'fina' Terminal Forms Single Pos-1" mim.fina
EndChar

StartChar: ha_bulat
Encoding: 48 1607 20
GlifName: ha_bulat
Width: 847
GlyphClass: 2
Flags: HMW
HStem: 6.7627 17.8789<4.29497e+09 4.29497e+09>
AnchorPoint: "titik_atas" 360 870 basechar 0
AnchorPoint: "atas" 451 950 basechar 0
LayerCount: 2
Fore
SplineSet
365.196289062 730.385742188 m 0
 366.234375 730.353515625 367.203125 730.040039062 368.083007812 729.422851562 c 0
 567.630859375 589.6953125 791.340820312 319.407226562 791.567382812 234.698242188 c 0
 791.608398438 220.474609375 799.969726562 169.689453125 764.313476562 107.930664062 c 0
 753.900390625 89.8984375 745.173828125 73.9921875 737.415039062 60.2080078125 c 0
 724.372070312 30.296875 704.819335938 1.443359375 686.081054688 -3.5771484375 c 0
 660.951171875 -10.310546875 447.1171875 10.291015625 320.083007812 47.4228515625 c 0
 303.22265625 52.3515625 287.62109375 57.548828125 273.178710938 62.9248046875 c 1
 257.467773438 53.8544921875 157.423828125 0.1220703125 147.215820312 -4.0869140625 c 0
 140.56640625 -6.8291015625 85.7412109375 -24.7333984375 54.08203125 -24.7333984375 c 0
 2.2373046875 -24.7333984375 -167.376953125 -8.8037109375 -224.622070312 6.7626953125 c 0
 -229.615234375 8.12109375 -229.709960938 23.7607421875 -224.012695312 24.6416015625 c 0
 -141.548828125 37.3984375 -13.81640625 58.630859375 160.829101562 118.200195312 c 1
 151.470703125 126.904296875 106.581054688 168.170898438 100.5 174.254882812 c 0
 53.7470703125 221.006835938 184.081054688 394.922851562 210.4921875 437.438476562 c 0
 212.24609375 440.2578125 213.859375 442.252929688 215.322265625 443.504882812 c 0
 245.19140625 487.240234375 274.3359375 521.40234375 304.455078125 543.725585938 c 1
 298.328125 547.478515625 292.081054688 574.146484375 292.081054688 581.422851562 c 0
 292.081054688 615.627929688 344.041992188 731.041992188 365.196289062 730.385742188 c 0
519 428.084960938 m 1
 526.943359375 384.831054688 527.189453125 339.764648438 521.76953125 305.581054688 c 0
 518.171875 282.897460938 495.721679688 249.668945312 491.083984375 243.422851562 c 0
 462.01953125 204.296875 441.568359375 174.106445312 416.891601562 148.483398438 c 1
 540.830078125 123.692382812 684.720703125 113.990234375 731.291992188 129.071289062 c 1
 728.91796875 140.923828125 725.2109375 153.055664062 721.083007812 166.422851562 c 0
 696.362304688 246.483398438 626.186523438 345.965820312 519 428.084960938 c 1
353.482421875 422.844726562 m 0
 296.634765625 424.291992188 236.58203125 374.705078125 196.95703125 335.079101562 c 1
 166.612304688 282.518554688 197.79296875 231.61328125 250.083007812 201.422851562 c 0
 266.103515625 192.172851562 287.01171875 183.486328125 311.170898438 175.500976562 c 1
 367.806640625 191.090820312 413.619140625 216.284179688 437.08203125 256.922851562 c 1
 437.08203125 336.575195312 411.43359375 408.377929688 377.581054688 418.922851562 c 0
 369.659179688 421.391601562 361.604492188 422.63671875 353.482421875 422.844726562 c 0
EndSplineSet
Substitution2: "'ss01' Muka Creeper" uni0647.ss01
Substitution2: "'init' Initial Forms Single Pos-1" ha_bulat.init
Substitution2: "'medi' Medial Forms Single Pos-1" ha_bulat.medi
Substitution2: "'fina' Terminal Forms Single Pos-1" ha_bulat.fina
Substitution2: "Single Substitution in Arabic lookup Ha Bulat-1" ha_bulat.isol
EndChar

StartChar: wau
Encoding: 49 1608 21
GlifName: wau
Width: 550
GlyphClass: 2
Flags: HMW
HStem: -453.313 111.152 365.688 166
VStem: 94.7266 48.998 429.725 51.001
AnchorPoint: "titik_atas" 290 650 basechar 0
LayerCount: 2
Fore
SplineSet
265.723632812 365.6875 m 0
 211.34765625 365.6875 142.076171875 278.064453125 143.724609375 242.686523438 c 0
 146.955078125 173.329101562 323.384765625 127.362304688 377.7265625 197.6875 c 0
 385.291992188 212.8203125 349.213867188 365.6875 265.723632812 365.6875 c 0
480.725585938 181.684570312 m 0
 480.725585938 141.01953125 479.225585938 103.686523438 476.224609375 69.685546875 c 0
 462.009765625 -91.447265625 355.370117188 -358.540039062 174.723632812 -435.315429688 c 0
 150.723632812 -447.314453125 127.056640625 -453.313476562 103.725585938 -453.313476562 c 0
 -55.6533203125 -453.313476562 -261.334960938 -389.106445312 -267.276367188 -359.313476562 c 0
 -268.784179688 -351.739257812 -262.377929688 -339.938476562 -254.962890625 -342.161132812 c 0
 -229.133789062 -349.8984375 -141.274414062 -368.90234375 -108.275390625 -374.813476562 c 0
 -10.9833984375 -395.970703125 60.6728515625 -357.471679688 143.724609375 -303.315429688 c 0
 159.19921875 -292.999023438 429.724609375 -110.107421875 429.724609375 67.6865234375 c 0
 429.724609375 87.01953125 427.891601562 105.01953125 424.225585938 121.684570312 c 0
 420.559570312 138.352539062 415.392578125 153.685546875 408.725585938 167.685546875 c 1
 357.3125 52.0068359375 312.9375 5.5283203125 208.724609375 15.6875 c 0
 114.8828125 22.630859375 94.7265625 140.770507812 94.7265625 201.685546875 c 0
 94.7265625 294.78515625 237.108398438 531.6875 316.724609375 531.6875 c 0
 368.575195312 531.6875 480.725585938 346.7421875 480.725585938 181.684570312 c 0
EndSplineSet
Substitution2: "'ss01' Muka Creeper" uni0648.ss01
MultipleSubs2: "'fina' Arabic Terminal Forms-1" uni0648.fina
EndChar

StartChar: ye_maksurah
Encoding: 50 1609 22
GlifName: ye_maksurah
Width: 1108
GlyphClass: 2
Flags: HMW
VStem: 34.25 51.502 546.752 73.002
AnchorPoint: "bawah" 513 -578 basechar 0
AnchorPoint: "atas" 919 729 basechar 0
AnchorPoint: "titik_bawah" 650 -620 basechar 0
LayerCount: 2
Fore
SplineSet
1043.75195312 409.388671875 m 0
 1041.75195312 400.0546875 1039.41601562 390.388671875 1036.75195312 380.388671875 c 1
 1015.6328125 408.548828125 925.421875 469.078125 810.751953125 381.388671875 c 1
 733.341796875 328.30859375 634.681640625 222.049804688 619.75390625 147.388671875 c 1
 619.75390625 53.1875 921.326171875 37.140625 965.75 18.388671875 c 0
 1020.953125 -4.9130859375 959.90625 -189.534179688 910.75 -249.611328125 c 0
 903.41796875 -255.611328125 736.3515625 -461.354492188 312.470703125 -461.354492188 c 0
 101.63671875 -461.354492188 34.25 -300.362304688 34.25 -172.111328125 c 0
 34.25 -119.43359375 50.939453125 85.716796875 136.46875 233.857421875 c 0
 160.759765625 275.928710938 133.7734375 150.0625 131.095703125 140.732421875 c 0
 109.57421875 65.736328125 85.251953125 -26.111328125 85.751953125 -113.611328125 c 0
 85.751953125 -185.34375 154.943359375 -260.814453125 235.751953125 -287.611328125 c 1
 572.5703125 -377.862304688 876.75 -200.9453125 902.751953125 -167.611328125 c 1
 890.794921875 -122.993164062 709.921875 -96.01171875 653.75 -88.111328125 c 0
 589.33984375 -78.537109375 546.23828125 -19.322265625 546.751953125 2.388671875 c 0
 550.07421875 142.388671875 667.12109375 397.857421875 828.75 515.887695312 c 0
 943.537109375 599.713867188 1032.25390625 566.36328125 1045.75195312 558.388671875 c 0
 1053.75195312 555.0546875 1063.08398438 539.721679688 1073.75 512.388671875 c 1
 1063.33007812 478.15625 1051.34765625 444.392578125 1043.75195312 409.388671875 c 0
EndSplineSet
Substitution2: "'init' Initial Forms Single Pos-1" uni066E.init
Substitution2: "'medi' Medial Forms Single Pos-1" uni066E.medi
Substitution2: "'fina' Terminal Forms Single Pos-1" uni0649.fina
EndChar

StartChar: hamzahTigaSuku
Encoding: 70 1652 24
GlifName: hamzah_tigaS_uku
Width: 538
Flags: HMW
HStem: 541.51 113
VStem: 23.8203 77.998
LayerCount: 2
Fore
SplineSet
515.8203125 659.509765625 m 1
 500.796875 617.17578125 486.834960938 583.827148438 471.819335938 541.509765625 c 1
 401.5234375 542.369140625 334.66796875 525.317382812 267.819335938 505.509765625 c 0
 155.110351562 470.743164062 55.28125 379.806640625 34.029296875 358.12890625 c 0
 27.7587890625 351.732421875 18.6689453125 362.678710938 23.58203125 369.818359375 c 0
 52.087890625 411.2421875 85.849609375 452.702148438 125.161132812 484.0625 c 0
 154.213867188 505.77734375 187.420898438 520.150390625 220.817382812 533.509765625 c 1
 219.819335938 541.509765625 l 1
 148.053710938 536.411132812 23.8203125 572.799804688 23.8203125 607.509765625 c 0
 23.8203125 677.509765625 55.4853515625 748.176757812 118.819335938 819.509765625 c 0
 182.817382812 889.509765625 256.151367188 924.509765625 338.817382812 924.509765625 c 0
 368.022460938 924.509765625 405.669921875 896.698242188 409.8203125 863.509765625 c 1
 393.2734375 836.782226562 374.923828125 807.801757812 355.818359375 780.509765625 c 1
 332.78515625 803.213867188 310.18359375 814.403320312 284.255859375 819.795898438 c 0
 161.141601562 845.409179688 101.87890625 737.704101562 101.818359375 737.509765625 c 0
 101.818359375 700.842773438 149.818359375 675.176757812 245.818359375 660.509765625 c 0
 319.885742188 652.946289062 389.55078125 654.30859375 468.818359375 654.509765625 c 1
 515.8203125 659.509765625 l 1
EndSplineSet
Substitution2: "Single Sub Hamzah34 - Turun-1" hamzah
EndChar

StartChar: kaf
Encoding: 119 1705 25
GlifName: kaf
Width: 1190
GlyphClass: 2
Flags: HMW
HStem: 9.99609 140<255 925.361 255 956.361 255 956.361> 430.594 134 925.594 150
VStem: -57 70
AnchorPoint: "titik_atas" 565 852 basechar 0
AnchorPoint: "titik_bawah" 437 -132 basechar 0
AnchorPoint: "cincin" 1018 833 basechar 0
LayerCount: 2
Fore
SplineSet
1312.81640625 1075.59375 m 1
 1272.43164062 1004.43164062 1285.17675781 1022.45507812 1232.81445312 925.59375 c 1
 1038.99707031 869.702148438 626.0390625 737.724609375 593.817382812 619.59375 c 1
 602.484375 592.926757812 639.40625 564.806640625 706.814453125 564.59375 c 0
 831.0625 564.201171875 959.502929688 567.588867188 1039.44628906 444.375 c 0
 1070.51074219 390.565429688 1056.25488281 262.0078125 1031.35839844 205.99609375 c 2
 956.361328125 9.99609375 l 1
 196.000976562 9.99609375 l 2
 23.8125 9.99609375 -57 141.803710938 -57 246.99609375 c 0
 -57 353.4765625 6.6904296875 511.303710938 44 532.99609375 c 0
 47.6455078125 535.115234375 55.0732421875 513.860351562 45.998046875 479.99609375 c 0
 30.080078125 420.581054688 12.62109375 368.849609375 13 288.99609375 c 1
 41.947265625 216.439453125 83.298828125 188.287109375 109 174.99609375 c 0
 162.70703125 147.220703125 201.3515625 152.329101562 255 149.99609375 c 2
 925.361328125 149.99609375 l 1
 930.694335938 163.330078125 934.356445312 175.663085938 936.359375 186.99609375 c 0
 972.189453125 439.865234375 826.119140625 424.463867188 589.815429688 430.59375 c 0
 517.395507812 432.47265625 481.815429688 452.926757812 481.815429688 473.59375 c 0
 481.815429688 676.431640625 811.912109375 941.376953125 1312.81640625 1075.59375 c 1
EndSplineSet
MultipleSubs2: "'fina' Arabic Terminal Forms-1" uni06A9.fina
MultipleSubs2: "'medi' Arabic Medial Forms-1" uni06A9.medi
MultipleSubs2: "'init' Initial Forms lookup 11-1" uni06A9.init
Substitution2: "'swsh' Kaf Swash-1" kaf.swsh
EndChar

StartChar: uni0639.fina
Encoding: 170 -1 26
GlifName: uni0639.fina
Width: 765
GlyphClass: 2
Flags: MW
HStem: -685 122<394.735 811.155> 0 139.775<751.842 828.16> 260 251.32<329.313 543.001>
AnchorPoint: "titik_atas" 365 629.892 basechar 0
LayerCount: 2
Fore
SplineSet
329.313476562 511.3203125 m 4
 396.607421875 510.395507812 471.268554688 483.861328125 503.001953125 461 c 4
 552.540039062 425.310546875 581 396.333984375 581 363 c 4
 581 356.333007812 579.000976562 345 575.001953125 329 c 4
 575.001953125 327.666992188 564.33203125 304.666992188 543.000976562 260 c 5
 499.083007812 260 474.73046875 248.866210938 440.999023438 232 c 5
 526.298828125 153.896484375 639.35546875 133.252929688 751.841796875 140 c 5
 751.841796875 139.775390625 l 5
 763.225585938 139.775390625 l 6
 801.76171875 139.775390625 833 108.536132812 833 70 c 6
 833 69.55078125 l 6
 833 31.015625 801.7578125 -0.701171875 763.225585938 -0.224609375 c 6
 751.841796875 0 l 6
 577.106445312 0 458.576171875 33.40234375 366.001953125 184 c 5
 233.502929688 78.271484375 128.000976562 -89.134765625 128.000976562 -188 c 4
 128.000976562 -531.556640625 502.438476562 -563 752.999023438 -563 c 4
 816.993164062 -561.19921875 880.98828125 -561 944.999023438 -561 c 5
 940.462890625 -564.932617188 834.284179688 -626.865234375 815.001953125 -638 c 4
 792.10546875 -651.21875 672.244140625 -681.764648438 573.500976562 -685 c 4
 412.557617188 -690.2734375 -3.05859375 -672.299804688 70 -188 c 4
 93.765625 -39.068359375 160.765625 101.783203125 317 246 c 5
 256.368164062 306.6328125 211.724609375 323.795898438 144 307 c 5
 158.508789062 365.041992188 182.059570312 432.396484375 227.001953125 479 c 4
 251.213867188 503.2109375 288.936523438 511.875 329.313476562 511.3203125 c 4
EndSplineSet
EndChar

StartChar: uni0639.init
Encoding: 171 -1 27
GlifName: uni0639.init
Width: 924
GlyphClass: 2
Flags: MW
HStem: 0 140<-64.1642 183.998 404.964 843.73> 468 136<383.678 626.203>
VStem: 126.999 113.999<222.498 381.881>
AnchorPoint: "titik_atas" 480 714.779 basechar 0
LayerCount: 2
Fore
SplineSet
533.998046875 604 m 0
 600.826171875 604 660.770507812 528.750976562 692.999023438 486 c 1
 706.59765625 443.896484375 718.125 411.590820312 732 375 c 1
 662.599609375 426.341796875 586.268554688 461.004882812 499.99609375 468 c 1
 409.446289062 468 240.998046875 400.762695312 240.998046875 363 c 0
 240.998046875 300.958984375 393.225585938 147.516601562 538 140 c 0
 585.40625 137.5390625 599.322265625 129.029296875 910 162 c 1
 843.998046875 10 l 1
 843.998046875 10 474.73046875 5.7724609375 290.111328125 3.1015625 c 0
 170.418945312 1.3701171875 131.87890625 0 12.154296875 0 c 1
 12.154296875 -0.224609375 l 1
 0.7705078125 -0.224609375 l 2
 -37.765625 -0.224609375 -69.00390625 31.015625 -69.00390625 69.55078125 c 2
 -69.00390625 70 l 2
 -69.00390625 108.536132812 -37.765625 139.775390625 0.7705078125 139.775390625 c 2
 12.154296875 139.775390625 l 1
 12.154296875 140 l 1
 183.998046875 140 l 1
 175.99609375 146.666992188 126.999023438 184.99609375 126.999023438 260 c 0
 126.999023438 293.779296875 164.0390625 353.1640625 236.999023438 439 c 0
 295.249023438 504.001953125 405.706054688 604 533.998046875 604 c 0
EndSplineSet
EndChar

StartChar: uni0639.medi
Encoding: 172 -1 28
GlifName: uni0639.medi
Width: 677
GlyphClass: 2
Flags: MW
HStem: 0.224609 139.625<-64.9329 328.294 504.412 677.229>
AnchorPoint: "titik_atas" 390.231 640.229 basechar 0
LayerCount: 2
Fore
SplineSet
364.66796875 522.98828125 m 0
 385.8984375 522.98828125 412.251953125 520.815429688 442.477539062 507.0234375 c 0
 523.227539062 470.173828125 617.299804688 390.81640625 607.227539062 353.224609375 c 0
 604.865234375 344.40625 541.172851562 210.709960938 539.229492188 210.224609375 c 0
 524.416992188 201.76171875 502.877929688 195.997070312 496.23046875 194.224609375 c 1
 518.665039062 141.801757812 622.26953125 139.849609375 677.228515625 139.849609375 c 0
 712.34375 136.2109375 739.7265625 106.528320312 739.7265625 70.44921875 c 2
 739.7265625 70 l 2
 739.7265625 33.9208984375 712.34375 4.23828125 677.228515625 0.599609375 c 1
 677.228515625 0.224609375 l 1
 669.952148438 0.224609375 l 2
 546.233398438 0.224609375 450.55859375 10.5673828125 408.231445312 95.224609375 c 1
 309.506835938 15.279296875 219.682617188 -0.908203125 0 0 c 0
 -38.53515625 0 -69.7724609375 31.240234375 -69.7724609375 69.775390625 c 2
 -69.7724609375 70.224609375 l 2
 -69.7724609375 108.760742188 -38.53515625 140 0 140 c 0
 115.635742188 140.83984375 243.270507812 132.633789062 348.231445312 185.224609375 c 1
 334.530273438 210.672851562 325.032226562 239.025390625 300.231445312 256.224609375 c 1
 262.368164062 274.805664062 224.711914062 250.092773438 192.73046875 266.724609375 c 0
 184.396484375 271.057617188 180.231445312 277.891601562 180.231445312 287.224609375 c 0
 205.735351562 363.8671875 284.05859375 480.98828125 287.728515625 486.224609375 c 0
 307.14453125 513.930664062 332.541992188 522.98828125 364.66796875 522.98828125 c 0
EndSplineSet
EndChar

StartChar: alif.fina
Encoding: 173 -1 29
GlifName: alif.fina
Width: 210
GlyphClass: 2
Flags: HMW
HStem: 0 140<295.277 480>
VStem: 146.192 333.808
AnchorPoint: "atas" 129 1465 basechar 0
AnchorPoint: "bawah" 209 -116.996 basechar 0
LayerCount: 2
Fore
SplineSet
162.846679688 1159.64453125 m 1
 149.53515625 1156.42382812 l 1
 149.53515625 1156.42382812 47.453125 943.889648438 49.869140625 930 c 0
 71.416015625 715.133789062 128.4296875 0 128.4296875 0 c 1
 210 0 l 1
 162.846679688 1159.64453125 l 1
EndSplineSet
Substitution2: "Single Sub Alif - Isol" alif.fina_lamalifisol
Substitution2: "Single Sub Alif" alif.fina_lamalif
EndChar

StartChar: uni062F.fina
Encoding: 174 -1 30
GlifName: uni062F_.fina
Width: 818
GlyphClass: 2
Flags: MW
HStem: 0 140<710.245 883.267>
VStem: 87.3174 17.877<233.134 260.684>
AnchorPoint: "titik_atas" 540 850.004 basechar 0
AnchorPoint: "titik_bawah" 450 -144.996 basechar 0
AnchorPoint: "atas" 573 789.004 basechar 0
AnchorPoint: "bawah" 450 -114.996 basechar 0
AnchorPoint: "cincin" 500 -192.996 basechar 0
LayerCount: 2
Fore
SplineSet
581.950195312 712 m 1
 581.975585938 712.001953125 l 1
 585.973632812 700.668945312 591.141601562 683.168945312 597.475585938 659.501953125 c 0
 635.259765625 518.512695312 662.48046875 374.733398438 692.973632812 232.001953125 c 0
 707.1953125 170.690429688 734.861328125 140.038085938 775.975585938 140 c 2
 818.333007812 140 l 2
 856.869140625 140 888.106445312 108.760742188 888.106445312 70.224609375 c 2
 888.106445312 69.775390625 l 2
 888.106445312 31.2392578125 856.869140625 0 818.333007812 0 c 2
 766.946289062 0 l 2
 761.390625 0 711.24609375 7.2060546875 675.389648438 38.9296875 c 0
 664.330078125 48.7119140625 643.521484375 67.4873046875 621.948242188 148 c 1
 609.948242188 148 590.94921875 122.333007812 564.950195312 71 c 0
 540.950195312 23.6669921875 523.453125 5.6259765625 493.946289062 0 c 0
 430.211914062 -14.046875 101.151367188 -59.658203125 44.9462890625 -4.001953125 c 0
 43.0302734375 -2.103515625 35.482421875 22.099609375 37.5576171875 41.841796875 c 0
 47.5849609375 137.310546875 81.244140625 244.779296875 87.3173828125 257.09375 c 0
 90.51953125 263.58203125 107.810546875 266.353515625 105.194335938 252.599609375 c 0
 97.15234375 210.307617188 95.9326171875 197.471679688 99.9462890625 161 c 0
 109.663085938 72.79296875 434.759765625 119.046875 530.948242188 143 c 0
 537.34375 146.572265625 579.908203125 180.955078125 584.946289062 248.998046875 c 1
 563.913085938 355.323242188 531.928710938 460.106445312 503.948242188 564.998046875 c 1
 530.904296875 613.486328125 556.072265625 662.934570312 581.950195312 712 c 1
EndSplineSet
EndChar

StartChar: uni062F.isol
Encoding: 175 -1 31
GlifName: uni062F_.isol
Width: 723
GlyphClass: 2
Flags: MW
HStem: 12 152<108.902 561.88>
VStem: 70.4092 579.999
AnchorPoint: "titik_atas" 329 835.395 basechar 0
AnchorPoint: "titik_bawah" 329 -149.605 basechar 0
AnchorPoint: "atas" 332 789.395 basechar 0
AnchorPoint: "bawah" 429 -114.605 basechar 0
AnchorPoint: "cincin" 479 -179.605 basechar 0
LayerCount: 2
Fore
SplineSet
650.408203125 204 m 0
 640.830078125 153.311523438 632.216796875 102.447265625 621.407226562 52 c 1
 570.012695312 17.9267578125 191.844726562 -18.900390625 70.4091796875 12 c 1
 103.33984375 125.763671875 72.869140625 23.8134765625 112.407226562 164 c 1
 254.200195312 142.546875 418.555664062 152.266601562 582.41015625 177 c 1
 583.600585938 181.9453125 621.411132812 348.001953125 369.407226562 537 c 1
 368.8515625 598.227539062 385.397460938 659.958984375 397.41015625 720 c 1
 458.887695312 677.842773438 515.251953125 608.72265625 542.408203125 568 c 0
 602.478515625 477.916015625 665.159179688 322.014648438 650.408203125 204 c 0
EndSplineSet
EndChar

StartChar: ha_bulat.fina
Encoding: 176 -1 32
GlifName: ha_bulat.fina
Width: 615
GlyphClass: 2
Flags: MW
HStem: 0 140<468.861 681.809>
VStem: 420.491 266.157<10.1018 133.667>
AnchorPoint: "titik_atas" 360 879.351 basechar 0
AnchorPoint: "atas" 360 871.351 basechar 0
LayerCount: 2
Fore
SplineSet
391.491210938 805.000976562 m 1
 391.491210938 805.000976562 440.12890625 376.734375 467.491210938 175.8984375 c 0
 473.489257812 131.875 535.239257812 140 605.491210938 140 c 2
 616.875976562 140 l 2
 655.412109375 140 686.6484375 108.760742188 686.6484375 70.224609375 c 2
 686.6484375 69.775390625 l 2
 686.6484375 31.240234375 655.412109375 0 616.875976562 0 c 2
 605.491210938 0 l 2
 539.3125 2.0673828125 430.13671875 0 420.491210938 36 c 0
 418.587890625 43.1015625 401.48828125 131.159179688 380.700195312 240.630859375 c 1
 347.813476562 198.115234375 306.821289062 146.395507812 306.821289062 146.395507812 c 1
 226.622070312 146.395507812 -35.1591796875 212.7109375 -26.7587890625 244.0625 c 0
 -6.1494140625 342.9296875 36.4599609375 415.741210938 99.7412109375 491.063476562 c 0
 118.407226562 513.622070312 249.44921875 563.512695312 316.247070312 587.901367188 c 1
 308.573242188 630.916992188 302.8828125 664.217773438 300.491210938 681.000976562 c 1
 391.491210938 805.000976562 l 1
320.93359375 561.78515625 m 1
 295.640625 529.361328125 263.637695312 484.967773438 251.491210938 459.000976562 c 1
 232.08984375 452.9375 91.8427734375 404.93359375 67.439453125 379.373046875 c 0
 66.75 377.002929688 65.263671875 365.0078125 65.263671875 365.0078125 c 1
 130.284179688 320.571289062 270.146484375 282.103515625 371.71875 288.055664062 c 1
 354.079101562 381.428710938 335.060546875 483.486328125 320.93359375 561.78515625 c 1
EndSplineSet
EndChar

StartChar: ha_bulat.init
Encoding: 177 -1 33
GlifName: ha_bulat.init
Width: 847
GlyphClass: 2
Flags: MW
HStem: 0 139.998<-64.8246 0.589844 0.648934 108.611>
LayerCount: 2
Fore
SplineSet
352.635742188 719.736328125 m 0
 353.67578125 719.705078125 354.642578125 719.390625 355.522460938 718.7734375 c 0
 555.071289062 579.046875 778.78125 308.7578125 779.0078125 224.048828125 c 0
 779.048828125 209.826171875 787.41015625 159.040039062 751.75390625 97.28125 c 0
 741.340820312 79.2490234375 732.615234375 63.3427734375 724.854492188 49.55859375 c 0
 711.811523438 19.6474609375 692.259765625 -9.2060546875 673.520507812 -14.2265625 c 0
 648.390625 -20.9599609375 434.556640625 -0.3583984375 307.522460938 36.7734375 c 0
 290.663085938 41.7021484375 275.059570312 46.8994140625 260.619140625 52.275390625 c 1
 220.672851562 37.4462890625 170.477539062 22.09375 105.580078125 4.703125 c 0
 70.8203125 -2.373046875 35.2802734375 -0.982421875 0 0 c 0
 -14.47265625 0.1201171875 -27.8935546875 4.6474609375 -38.98828125 12.302734375 c 0
 -75.0546875 35.9169921875 -79.083984375 87.3095703125 -51.0703125 117.125 c 0
 -38.3076171875 131.176757812 -19.890625 139.998046875 0.58984375 139.998046875 c 2
 0.58984375 139.998046875 81.96484375 140.1328125 110.768554688 141.14453125 c 1
 101.411132812 149.848632812 94.021484375 157.521484375 87.9404296875 163.60546875 c 0
 41.1875 210.357421875 171.51953125 384.2734375 197.930664062 426.7890625 c 0
 199.684570312 429.608398438 201.298828125 431.603515625 202.760742188 432.85546875 c 0
 232.630859375 476.591796875 261.774414062 510.75390625 291.893554688 533.076171875 c 1
 285.766601562 536.830078125 279.520507812 563.497070312 279.520507812 570.7734375 c 0
 279.520507812 604.978515625 331.481445312 720.392578125 352.635742188 719.736328125 c 0
506.438476562 417.435546875 m 1
 514.383789062 374.182617188 514.629882812 329.115234375 509.209960938 294.931640625 c 0
 505.612304688 272.248046875 483.163085938 239.01953125 478.524414062 232.7734375 c 0
 449.4609375 193.647460938 429.0078125 163.45703125 404.33203125 137.833984375 c 1
 528.26953125 113.04296875 672.161132812 103.340820312 718.731445312 118.421875 c 1
 716.357421875 130.274414062 712.649414062 142.40625 708.522460938 155.7734375 c 0
 683.80078125 235.833984375 613.625976562 335.317382812 506.438476562 417.435546875 c 1
340.923828125 412.1953125 m 0
 284.076171875 413.643554688 224.022460938 364.055664062 184.397460938 324.4296875 c 1
 154.051757812 271.870117188 185.233398438 220.963867188 237.522460938 190.7734375 c 0
 253.544921875 181.5234375 274.452148438 172.836914062 298.611328125 164.8515625 c 1
 355.247070312 180.44140625 401.059570312 205.634765625 424.522460938 246.2734375 c 1
 424.522460938 325.92578125 398.874023438 397.728515625 365.020507812 408.2734375 c 0
 357.098632812 410.7421875 349.045898438 411.98828125 340.923828125 412.1953125 c 0
EndSplineSet
EndChar

StartChar: ha_bulat.medi
Encoding: 178 -1 34
GlifName: ha_bulat.medi
Width: 793
GlyphClass: 2
Flags: MW
HStem: -28.2441 168.242<84.4071 236.032> 0 139.998<-65.1019 104.113 677.901 858.145>
LayerCount: 2
Fore
SplineSet
630.400390625 549.64453125 m 5x40
 630.39453125 549.646484375 l 5
 635.099609375 549.450195312 638.748046875 548.002929688 641.45703125 545.5546875 c 4
 645.846679688 546.005859375 646.954101562 538.901367188 647.67578125 529.240234375 c 4
 656.674804688 408.740234375 660.526367188 299.661132812 602.234375 198.6953125 c 4
 589.932617188 177.388671875 576.4765625 157.828125 561.853515625 140 c 5
 781.826171875 140 l 5
 793.2109375 140 l 6
 831.747070312 140 862.984375 108.760742188 862.984375 70.224609375 c 6
 862.984375 69.775390625 l 6
 862.984375 31.240234375 831.747070312 0 793.2109375 0 c 6
 781.826171875 0 l 5
 677.901367188 0 l 5x40
 736.9140625 -81.9287109375 674.051757812 -167.865234375 633.26171875 -238.515625 c 4
 591.356445312 -311.09765625 504.102539062 -367.575195312 383.21875 -307.5 c 4
 288.982421875 -260.66796875 238.719726562 -136.860351562 231.208984375 -28.244140625 c 5x80
 186.29296875 -26.9404296875 136.649414062 -26.34375 81.841796875 -26.34375 c 5
 81.841796875 -26.34375 90.5068359375 -15.318359375 104.11328125 0 c 5
 11.216796875 0 l 5
 -0.16796875 0 l 6
 -38.7041015625 0 -69.94140625 31.23828125 -69.94140625 69.7734375 c 6
 -69.94140625 70.22265625 l 6
 -69.94140625 108.758789062 -38.7041015625 139.998046875 -0.16796875 139.998046875 c 6
 11.216796875 139.998046875 l 5
 263 139.998046875 l 5
 314.813476562 268.313476562 421.01171875 414.071289062 530.1015625 487.598632812 c 4
 568.032226562 513.163085938 614.442382812 550.311523438 630.400390625 549.64453125 c 5x40
563.623046875 417.7265625 m 6
 563.615234375 417.724609375 l 5
 532.375 416.134765625 398.620117188 271.459960938 333.291015625 141.720703125 c 5
 474.965820312 153.797851562 553.081054688 226.046875 568.231445312 252.69140625 c 4
 569.315429688 254.596679688 570.698242188 256.474609375 571.294921875 258.705078125 c 4
 585.485351562 311.666015625 591.467773438 411.768554688 567.552734375 417.39453125 c 4
 566.830078125 417.447265625 566.108398438 417.530273438 565.392578125 417.643554688 c 4
 564.7734375 417.643554688 564.184570312 417.673828125 563.623046875 417.7265625 c 6
308.298828125 -31.447265625 m 5
 374.244140625 -218.934570312 614.5859375 -208.797851562 620.5390625 -205.861328125 c 4
 624.611328125 -203.8515625 630.499023438 -191.899414062 630.22265625 -187.5 c 4
 624.0546875 -88.3994140625 551.442382812 -45.10546875 308.298828125 -31.447265625 c 5
EndSplineSet
EndChar

StartChar: ha_pedas.fina
Encoding: 179 -1 35
GlifName: uni062D_.fina
Width: 543
GlyphClass: 2
Flags: W
HStem: -692.479 112.979<558.647 846.844> 333.731 194<148.721 461.907> 336.731 142<617.173 855.517>
VStem: 83.1514 68.999<-320.532 -107.613>
AnchorPoint: "titik_atas" 500 606.928 basechar 0
AnchorPoint: "titik_bawah" 552 -105.072 basechar 0
LayerCount: 2
Back
SplineSet
446.806640625 219.543945312 m 4
 450.200195312 201.360351562 449.796875 178.055664062 463.62109375 126.515625 c 4
 479 69.12109375 502.583984375 0 576.474609375 0 c 6
 983.193359375 0 l 5
 1007.61230469 0 l 5
 1040.16503906 32.556640625 l 5
 1040.16503906 140 l 5
 983.193359375 140 l 5
 606 140 l 6
 504.138671875 140 504.705078125 218.500976562 500.8046875 247.543945312 c 4
 498.57421875 264.143554688 441.447265625 248.288085938 446.806640625 219.543945312 c 4
EndSplineSet
Fore
SplineSet
681.541015625 -692.479492188 m 0xb0
 528.240234375 -691.875976562 372.432617188 -703.470703125 221.153320312 -590.268554688 c 0
 139.8671875 -529.44140625 83.1513671875 -431.764648438 83.1513671875 -313.268554688 c 0
 82.1689453125 -187.90625 117.454101562 -78.4111328125 174.151367188 32.2314453125 c 0
 243.67578125 166.447265625 347.537109375 254.366210938 463.15234375 333.731445312 c 1
 386.349609375 371.137695312 146.262695312 390.9296875 75.154296875 345.731445312 c 1
 75.154296875 380.325195312 l 1
 103.190429688 441.229492188 160.174804688 527.731445312 237.15234375 527.731445312 c 0xd0
 360.368164062 527.731445312 439.663085938 501.607421875 561.303710938 487.8671875 c 0
 679.40625 474.700195312 798.544921875 478.731445312 917.153320312 478.731445312 c 1
 886.5625 414.151367188 868.669921875 376.850585938 849.15234375 336.731445312 c 1
 347.790039062 306.977539062 152.150390625 -57.9013671875 152.150390625 -167.268554688 c 0
 152.150390625 -588.045898438 727.096679688 -579.5 997.22265625 -579.5 c 1
 997.22265625 -592.615234375 l 1
 949.400390625 -617.309570312 714.846679688 -692.610351562 681.541015625 -692.479492188 c 0xb0
EndSplineSet
MultipleSubs2: "Multi Sub HaPedas-1" kasyida_hapedas.fina ha_pedas.fina
EndChar

StartChar: ha_pedas.init
Encoding: 180 -1 36
GlifName: uni062D_.init
Width: 908
GlyphClass: 2
Flags: W
HStem: 0 139.955<24.6857 230.749> 79.0527 159<642.709 815.948> 395.052 126.645<38.5264 160.603 160.605 209.719>
AnchorPoint: "titik_atas" 498 585.003 basechar 0
AnchorPoint: "titik_bawah" 426 -144.997 basechar 0
LayerCount: 2
Fore
SplineSet
160.602539062 521.696289062 m 1x60
 134.119140625 522.310546875 96.1875 517.35546875 57.99609375 493.051757812 c 0
 12.5546875 459.041015625 -39.53515625 414.708007812 -64.0029296875 363.051757812 c 0
 -63.1298828125 356.522460938 -61.248046875 349.580078125 -60.0048828125 343.051757812 c 1
 -17.9990234375 365.59375 21.806640625 396.640625 71.9951171875 395.051757812 c 0
 116.510742188 393.642578125 190.55859375 382.206054688 411.998046875 224.051757812 c 1
 345.909179688 196.534179688 233.498046875 150.551757812 210.49609375 144.051757812 c 0
 200.861328125 141.328125 128.959960938 140.317382812 37.998046875 139.993164062 c 0
 34.328125 139.993164062 24.6787109375 139.955078125 24.6787109375 139.955078125 c 1
 0.259765625 140 l 1
 -32.29296875 107.44140625 l 1
 -32.29296875 0 l 1
 24.6826171875 0 l 1xa0
 38.001953125 0.052734375 l 1
 201.250976562 6.513671875 325.846679688 105.452148438 502 117.052734375 c 1
 605.740234375 112.408203125 710.504882812 107.018554688 811.002929688 79.052734375 c 1
 832.224609375 130.782226562 851.813476562 174.73828125 873.001953125 225.052734375 c 1
 820.333984375 225.052734375 776.333007812 229.385742188 741.001953125 238.052734375 c 1
 411.5859375 369.110351562 370.623046875 470.091796875 193.5 517.552734375 c 0
 188.268554688 518.955078125 176.499023438 521.328125 160.60546875 521.697265625 c 1
 160.602539062 521.696289062 l 1x60
EndSplineSet
EndChar

StartChar: ha_pedas.medi
Encoding: 181 -1 37
GlifName: uni062D_.medi
Width: 561
GlyphClass: 2
Flags: W
HStem: 0.0917969 140<57.9971 191.445> 271.092 143<469.858 782.569> 378.592 152.514<31.0095 348.882>
AnchorPoint: "titik_atas" 391 670.004 basechar 0
AnchorPoint: "titik_bawah" 348 -144.996 basechar 0
LayerCount: 2
Back
SplineSet
415 219.543945312 m 4
 418.39453125 201.360351562 417.989257812 178.055664062 431.815429688 126.515625 c 4
 447.194335938 69.12109375 470.778320312 0 544.66796875 0 c 6
 824.330078125 0 l 5
 848.75 0 l 5
 881.303710938 32.556640625 l 5
 881.303710938 140 l 5
 824.330078125 140 l 5
 574.193359375 140 l 6
 472.331054688 140 472.8984375 220.132952871 468.998046875 247.543945312 c 4
 466.638597137 264.125581654 409.640625 248.288085938 415 219.543945312 c 4
EndSplineSet
Fore
SplineSet
143.203125 531.10546875 m 0xa0
 0.83984375 529.842773438 -68.318359375 347.47265625 -70.0009765625 339.091796875 c 1
 -58.8125 328.794921875 l 1
 -17.4345703125 358.736328125 9.0869140625 376.759765625 61.7275390625 378.591796875 c 0xa0
 195.409179688 383.243164062 315.416992188 344.083984375 430.998046875 310.091796875 c 1
 346.904296875 275.209960938 279.16015625 191.443359375 192 164.591796875 c 0
 150.1953125 150.069335938 106.62890625 140.712890625 61.9990234375 140.091796875 c 2
 24.9599609375 140.091796875 l 1
 0.5400390625 140.091796875 l 1
 -32.0126953125 107.533203125 l 1
 -32.0126953125 0.091796875 l 1
 24.9599609375 0.091796875 l 1
 57.9970703125 0.091796875 l 2
 144.763671875 0.091796875 235.733398438 67.2001953125 415 202.091796875 c 0
 436.209960938 215.897460938 445.795898438 219.522460938 468.998046875 230.091796875 c 0
 559.748046875 274.9921875 665.129882812 274.823242188 763.997070312 271.091796875 c 1
 774.663085938 296.424804688 784.498046875 320.258789062 793.497070312 342.591796875 c 0
 802.5 364.92578125 812.333984375 388.758789062 823 414.091796875 c 1xc0
 738.028320312 412.15625 715.158203125 410.96875 612 420.091796875 c 1
 467.3125 453.4609375 256.08203125 531.09375 143.203125 531.10546875 c 0xa0
EndSplineSet
MultipleSubs2: "Multi Sub HaPedas-1" kasyida_hapedas.medi ha_pedas.medi
EndChar

StartChar: uni06A9.fina
Encoding: 182 -1 38
GlifName: uni06A_9.fina
Width: 1144
GlyphClass: 2
Flags: MW
HStem: -0.128906 140<79.1864 931.723 1038.53 1203> 420.469 134<593.759 885.107> 915.469 150<1171.94 1235.12>
VStem: -61.6387 70<216.874 406.435>
AnchorPoint: "titik_atas" 566.36 862.004 basechar 0
AnchorPoint: "titik_bawah" 536.36 -116.996 basechar 0
AnchorPoint: "cincin" 949.36 796.004 basechar 0
LayerCount: 2
Fore
SplineSet
1308.1796875 1065.46875 m 1
 1267.79394531 994.306640625 1280.5390625 1012.33007812 1228.17675781 915.46875 c 1
 1034.359375 859.577148438 621.397460938 727.599609375 589.180664062 609.46875 c 1
 597.84765625 582.801757812 634.765625 554.681640625 702.177734375 554.46875 c 0
 826.42578125 554.076171875 954.865234375 557.463867188 1034.80566406 434.25 c 0
 1065.87304688 380.440429688 1051.6171875 251.8828125 1026.72167969 195.87109375 c 1
 1065.29101562 157.4765625 1077.13183594 138.259765625 1146.23046875 139.24609375 c 1
 1180.97558594 135.255859375 1207.95703125 105.743164062 1207.95703125 69.9296875 c 2
 1207.95703125 69.48046875 l 2
 1207.95703125 32.9091796875 1179.80761719 2.962890625 1144 0 c 0
 1041.97167969 0 1017.10644531 38.9140625 980.78125 75.806640625 c 1
 951.724609375 -0.12890625 l 1
 191.358398438 -0.12890625 l 2
 19.171875 -0.12890625 -61.638671875 131.678710938 -61.638671875 236.87109375 c 0
 -61.638671875 343.3515625 2.0537109375 501.178710938 39.361328125 522.87109375 c 0
 43.0087890625 524.990234375 50.435546875 503.735351562 41.3603515625 469.87109375 c 0
 25.44140625 410.456054688 7.9833984375 358.724609375 8.361328125 278.87109375 c 1
 37.3056640625 206.314453125 78.6611328125 178.162109375 104.361328125 164.87109375 c 0
 158.065429688 137.095703125 196.71484375 142.204101562 250.361328125 139.87109375 c 2
 920.724609375 139.87109375 l 1
 926.053710938 153.205078125 929.719726562 165.538085938 931.723632812 176.87109375 c 0
 967.552734375 429.740234375 821.481445312 414.338867188 585.178710938 420.46875 c 0
 512.758789062 422.34765625 477.178710938 442.801757812 477.178710938 463.46875 c 0
 477.178710938 666.306640625 807.274414062 931.251953125 1308.1796875 1065.46875 c 1
EndSplineSet
Substitution2: "'swsh' Kaf Swash-1" kaf.swsh.fina
EndChar

StartChar: uni06A9.init
Encoding: 183 -1 39
GlifName: uni06A_9.init
Width: 656
GlyphClass: 2
Flags: W
VStem: 25.8691 64.1309<665.381 676.969>
AnchorPoint: "titik_atas" 145 955 basechar 0
AnchorPoint: "titik_bawah" 166 -217 basechar 0
AnchorPoint: "cincin" 592 820 basechar 0
AnchorPoint: "kaf_init" 361 204 exit 0
LayerCount: 2
Fore
SplineSet
856.874023438 1169.85546875 m 1
 856.858398438 1169.85546875 l 1
 816.466796875 1098.69335938 829.21484375 1116.71679688 776.852539062 1019.85546875 c 1
 583.0390625 963.963867188 176.373046875 814.98046875 90 665.380859375 c 1
 90 665.380859375 296.43359375 439.236328125 374.333984375 361.326171875 c 0
 435.837890625 299.826171875 425.701171875 216.184570312 420.96875 195.931640625 c 0
 417.805664062 182.385742188 378.596679688 185.094726562 359.4921875 204.201171875 c 2
 42.537109375 539.046875 l 2
 34.708984375 547.317382812 25.869140625 560.38671875 25.869140625 567.85546875 c 0
 25.869140625 770.693359375 355.96484375 1035.63867188 856.874023438 1169.85546875 c 1
EndSplineSet
MultipleSubs2: "Multiple Sub kaf Sambungan Panjang-1" uni06A9.init kaf.init_pnjg
MultipleSubs2: "Multiple Sub Kaf Panjang-1" uni06A9.init kaf.init_pndk
Substitution2: "'swsh' Kaf Swash-1" kaf.swsh.init
EndChar

StartChar: uni06A9.medi
Encoding: 184 -1 40
GlifName: uni06A_9.medi
Width: 716
GlyphClass: 2
Flags: MW
HStem: 0 140<551.976 783.933> 1019.86 150<729.529 792.719>
AnchorPoint: "titik_atas" 145.221 955.004 basechar 0
AnchorPoint: "titik_bawah" 340.221 -268.996 basechar 0
AnchorPoint: "cincin" 462.221 824.004 basechar 0
AnchorPoint: "kaf_medi" 365.221 204.004 exit 0
LayerCount: 2
Fore
SplineSet
865.7734375 1169.85742188 m 1
 825.385742188 1098.6953125 838.133789062 1116.71875 785.772460938 1019.85742188 c 1
 591.955078125 963.966796875 185.2890625 814.984375 98.9189453125 665.384765625 c 1
 538.220703125 195.609375 l 1
 595.072265625 144.377929688 639.485351562 140 719 140 c 0
 757.53515625 140 788.772460938 108.760742188 788.772460938 70.224609375 c 2
 788.772460938 69.775390625 l 2
 788.772460938 31.240234375 757.54296875 0 719 0 c 1
 631.744140625 0.662109375 555.502929688 10.765625 492.276367188 75.544921875 c 2
 391.272460938 179.029296875 l 2
 382.545898438 188.34375 376.301757812 194.936523438 368.391601562 204.203125 c 2
 51.4404296875 539.048828125 l 2
 43.6123046875 547.319335938 34.7724609375 560.390625 34.7724609375 567.859375 c 0
 34.7724609375 770.697265625 364.868164062 1035.640625 865.7734375 1169.85742188 c 1
EndSplineSet
MultipleSubs2: "Multiple Sub kaf Sambungan Panjang-1" uni06A9.medi kaf.medi_pnjg
MultipleSubs2: "Multiple Sub Kaf Panjang-1" uni06A9.medi kaf.medi_pndk
Substitution2: "'swsh' Kaf Swash-1" kaf.swsh.medi
EndChar

StartChar: lam.fina
Encoding: 185 -1 41
GlifName: lam.fina
Width: 805
GlyphClass: 2
Flags: MW
HStem: -397 160<83.7888 459.364> 0 140<752.996 868.931>
VStem: -85.001 65<-224.576 82.1175> 566 123.001<910.552 979.543>
AnchorPoint: "titik_atas" 330 729.351 basechar 0
AnchorPoint: "titik_bawah" 470 -760.649 basechar 0
AnchorPoint: "atas" 215 89.3506 basechar 0
LayerCount: 2
Fore
SplineSet
689.000976562 1133.00097656 m 1
 752.99609375 140 l 1
 792.61328125 140 l 1
 803.997070312 140 l 2
 842.533203125 140 873.770507812 108.760742188 873.770507812 70.224609375 c 2
 873.770507812 69.775390625 l 2
 873.770507812 31.240234375 842.533203125 0 803.997070312 0 c 2
 792.616210938 0 l 1
 750.99609375 0 l 1
 733.270507812 -66.1513671875 723.364257812 -126.2109375 698 -196 c 0
 673.625976562 -269.13671875 436.150390625 -397 228 -397 c 0
 65.9150390625 -397 -85.0009765625 -293.151367188 -85.0009765625 -156 c 0
 -85.0009765625 113.637695312 27.208984375 273 56.001953125 273 c 1
 53.4501953125 253.888671875 52.384765625 250.704101562 48 220 c 1
 24.2119140625 157.556640625 -20.0009765625 28.72265625 -20.0009765625 -12 c 0
 -20.0009765625 -115.221679688 57.203125 -237 267.000976562 -237 c 0
 445.701171875 -237 608.05078125 -170.407226562 675.000976562 -99 c 1
 673.666992188 -77.666015625 571.333007812 918.333984375 566 961 c 1
 614.287109375 1029.5390625 644.017578125 1068.52832031 689.000976562 1133.00097656 c 1
EndSplineSet
Substitution2: "Single Sub Lam" lam.medi_lamalif
EndChar

StartChar: lam.init
Encoding: 186 -1 42
GlifName: lam.init
Width: 540
GlyphClass: 2
Flags: MW
HStem: 0 140<-64.9347 367.57>
VStem: -69.7744 583.522
AnchorPoint: "titik_atas" 350 1224.35 basechar 0
AnchorPoint: "titik_bawah" 240 -160.649 basechar 0
AnchorPoint: "atas" 345 1189.35 basechar 0
LayerCount: 2
Fore
SplineSet
367.169921875 1112.71777344 m 1
 367.169921875 1112.71582031 l 1
 367.5859375 1112.734375 367.944335938 1112.66308594 368.887695312 1112.1171875 c 0
 373.576171875 1109.40625 377.555664062 1103.89550781 375.708984375 1092.796875 c 0
 373.161132812 1077.47949219 357.682617188 1050.46972656 369.748046875 1028.00195312 c 1
 395.319335938 1004.39355469 481.556640625 956.583984375 513.748046875 943 c 1
 427.744140625 773 l 1
 412.747070312 780 l 1
 456.396484375 278.984375 l 2
 457.950195312 237.428710938 396.68359375 0 377.396484375 0 c 2
 11.3837890625 0 l 1
 0 0 l 2
 -38.5361328125 0 -69.7744140625 31.240234375 -69.7744140625 69.775390625 c 2
 -69.7744140625 70.224609375 l 2
 -69.7744140625 108.760742188 -38.5361328125 140 0 140 c 2
 11.3837890625 140 l 1
 355.396484375 140 l 2
 378.768554688 140 362.547851562 267.916015625 355.709960938 353.614257812 c 0
 339.950195312 551.143554688 283.744140625 854.984375 283.744140625 854.984375 c 1
 257.767578125 869.423828125 234.99609375 890.927734375 262.745117188 938.984375 c 2
 341.745117188 1082.98535156 l 2
 352.8828125 1103.86914062 363.16015625 1112.53613281 367.169921875 1112.71777344 c 1
EndSplineSet
Substitution2: "Single Sub Lam - Isol" lam.init_lamalifisol
EndChar

StartChar: lam.medi
Encoding: 187 -1 43
GlifName: lam.medi
Width: 476
GlyphClass: 2
Flags: MW
HStem: 0 140<-64.9349 309.699 414.001 539.933>
VStem: 330.001 84<140 252.365> 347.002 197.771<4.83995 85.9826>
AnchorPoint: "titik_atas" 300 1229.35 basechar 0
AnchorPoint: "titik_bawah" 240 -160.649 basechar 0
AnchorPoint: "atas" 345 1189.35 basechar 0
LayerCount: 2
Fore
SplineSet
342.999023438 1111 m 1xc0
 414.000976562 140 l 1xc0
 463.614257812 140 l 1
 474.999023438 140 l 2
 513.53515625 140 544.772460938 108.760742188 544.772460938 70.224609375 c 2
 544.772460938 69.775390625 l 2
 544.772460938 31.240234375 513.53515625 0 474.999023438 0 c 2
 463.614257812 0 l 1
 347.001953125 0 l 1xa0
 334 85.998046875 l 1
 313.71484375 47.9267578125 288.8984375 0 245 0 c 2
 11.3828125 0 l 1
 0 0 l 2
 -38.537109375 0 -69.7744140625 31.240234375 -69.7744140625 69.775390625 c 2
 -69.7744140625 70.224609375 l 2
 -69.7744140625 108.760742188 -38.537109375 140 0 140 c 2
 11.3828125 140 l 1
 330.000976562 140 l 1
 224.999023438 963.000976562 l 1
 263.904296875 1012.67773438 302.671875 1062.46484375 342.999023438 1111 c 1xc0
EndSplineSet
Substitution2: "Single Sub Lam" lam.medi_lamalif
EndChar

StartChar: alif.fina_lamalif
Encoding: 188 -1 44
GlifName: alif.fina_lamalif
Width: 423
GlyphClass: 5
LigCaretCntFixed: 1
Flags: HMW
VStem: -112.354 535
AnchorPoint: "lamalif" 385 220 entry 0
AnchorPoint: "bawah" 18 511 basechar 0
AnchorPoint: "atas" 0 1135 basechar 0
LayerCount: 2
Fore
SplineSet
394.64453125 231.649414062 m 0
 364.90625 469.287109375 227.092773438 620.897460938 120.647460938 713.650390625 c 1
 115.385742188 702.99609375 113.447265625 672.614257812 94.64453125 660.649414062 c 1
 68.2099609375 661.62890625 -110.009765625 764.80078125 -112.353515625 843.650390625 c 0
 -112.353515625 863.614257812 -69.3203125 1009.76855469 -63.35546875 1029.65039062 c 1
 255.583984375 891.762695312 461.2734375 515.775390625 422.646484375 262.650390625 c 1
 414.153320312 237.131835938 404.997070312 220.37890625 399.251953125 221.71875 c 0
 396.89453125 222.268554688 395.370117188 225.83203125 394.64453125 231.649414062 c 0
EndSplineSet
LCarets2: 1 354
EndChar

StartChar: lam.medi_lamalif
Encoding: 189 -1 45
GlifName: lam.medi_lamalif
Width: 936
GlyphClass: 2
Flags: HMW
HStem: 0 140<760.104 1000.93>
AnchorPoint: "hamzahKecil_LamAlif" 368 924 basechar 0
AnchorPoint: "lamalif" 396 232.351 exit 0
LayerCount: 2
Fore
SplineSet
724.100585938 1159.64453125 m 1
 724.100585938 1159.64453125 761.541015625 223.512695312 760.0625 182 c 0
 758.388671875 134.908203125 836.408203125 140 924.615234375 140 c 2
 936 140 l 2
 974.53515625 140 1005.7734375 108.760742188 1005.7734375 70.224609375 c 2
 1005.7734375 69.775390625 l 2
 1005.7734375 31.240234375 974.53515625 0 936 0 c 2
 924.615234375 0 l 1
 708.494140625 0 l 1
 704.635742188 0 l 1
 689.68359375 0 l 1
 689.68359375 0 632.666015625 715.134765625 611.123046875 930 c 0
 608.708007812 943.889648438 710.7890625 1156.42480469 710.7890625 1156.42480469 c 1
 724.100585938 1159.64453125 l 1
661.032226562 621 m 1
 676.0859375 560.982421875 680.212890625 515.400390625 664.029296875 455 c 1
 570.462890625 234.447265625 458.022460938 67.08203125 347.029296875 3 c 0
 177.357421875 -94.958984375 -46.8935546875 -148 -141.969726562 -148 c 0
 -166.560546875 -148 -158.978515625 -139.822265625 -154.579101562 -137.283203125 c 0
 -129.725585938 -122.93359375 301.462890625 135.180664062 395.029296875 233 c 0
 402 239.350585938 415 254.350585938 423.03125 264.000976562 c 0
 441.334960938 282.240234375 620.461914062 469.590820312 661.032226562 621 c 1
EndSplineSet
EndChar

StartChar: lam.init_lamalifisol
Encoding: 190 -1 46
GlifName: lam.init_lamalifisol
Width: 728
GlyphClass: 2
Flags: MW
VStem: 5.38184 112.006<111.993 141.891>
AnchorPoint: "hamzahKecil_LamAlif" 193 958 basechar 0
AnchorPoint: "lamalif" 62 128 exit 0
LayerCount: 2
Back
SplineSet
-193.99609375 1102.6484375 m 1
 -209.765625 1075.33984375 -244.3359375 977.37890625 -245 928.6484375 c 0
 -245 887.31640625 -222.48828125 813.48828125 6.99609375 684.6484375 c 1
 12.76171875 706.5625 26.51953125 754.14453125 29.9921875 766.65234375 c 1
 146.81640625 647.14453125 411.078125 354.125 420.9921875 139.65625 c 1
 407.421875 136.01953125 239.43359375 129.63671875 117.39453125 131.91015625 c 1
 5.38671875 128.0625 l 1
 0.02734375 97.8984375 -9.33984375 35.9921875 -14.00390625 10.65625 c 1
 410.9921875 10.65625 l 2
 426.98046875 10.65625 491.99609375 169.7890625 491.99609375 192.7734375 c 0
 491.99609375 222.76171875 466.22265625 287.12109375 424.7109375 377.34765625 c 0
 391.1953125 450.19921875 355.9609375 516.546875 324.99609375 566.65234375 c 0
 140.41796875 865.27734375 -107.44921875 1085.33984375 -194 1102.65234375 c 1
 -193.99609375 1102.6484375 l 1
EndSplineSet
Fore
SplineSet
498.987304688 1191.64941406 m 1
 513.999023438 1110.28027344 618.991210938 1034.64941406 671.991210938 1008.64941406 c 1
 645.236328125 954.513671875 613.717773438 915.379882812 574.990234375 876.649414062 c 1
 591.321289062 700.3359375 610.5703125 644.796875 476.990234375 446.649414062 c 0
 460.765625 422.586914062 443.174804688 399.435546875 424.704101562 377.344726562 c 0
 308.35546875 259.23828125 191.171875 174.122070312 118.513671875 142.372070312 c 1
 117.387695312 131.903320312 117.387695312 134.576171875 117.387695312 131.903320312 c 0
 117.391601562 91.84765625 5.8681640625 97.787109375 5.3818359375 128.055664062 c 1
 7.31640625 142.372070312 l 1
 131.364257812 213.991210938 286.612304688 349.032226562 330.3984375 389.553710938 c 0
 431.86328125 483.452148438 497.069335938 578.076171875 496.485351562 727.149414062 c 0
 496.141601562 814.7109375 466.126953125 922.793945312 457.987304688 960.649414062 c 1
 436.125976562 978.643554688 420.974609375 1001.35058594 406.986328125 1025.64941406 c 0
 397.813476562 1041.58398438 467.534179688 1138.78027344 498.987304688 1191.64941406 c 1
EndSplineSet
EndChar

StartChar: alif.fina_lamalifisol
Encoding: 191 -1 47
GlifName: alif.fina_lamalifisol
Width: 666
GlyphClass: 3
Flags: HMW
HStem: 10.6494 117.406<285.138 700.332>
VStem: 700.997 71.002<140.345 277.952>
AnchorPoint: "atas" 210 1230 basechar 0
AnchorPoint: "bawah" 195 -47 basechar 0
AnchorPoint: "lamalif" 343 129 entry 0
LayerCount: 2
Fore
SplineSet
86.00390625 1102.64941406 m 1
 172.5546875 1085.33789062 420.423828125 865.274414062 605 566.649414062 c 0
 635.965820312 516.543945312 671.19921875 450.197265625 704.715820312 377.344726562 c 0
 746.2265625 287.1171875 771.999023438 222.759765625 771.999023438 192.770507812 c 0
 771.999023438 169.784179688 706.983398438 10.6494140625 690.99609375 10.6494140625 c 2
 266 10.6494140625 l 1
 270.6640625 35.9833984375 280.033203125 97.890625 285.392578125 128.055664062 c 1
 397.3984375 131.903320312 l 1
 519.439453125 129.630859375 687.427734375 136.013671875 700.997070312 139.649414062 c 1
 691.083007812 354.119140625 426.822265625 647.139648438 309.998046875 766.649414062 c 1
 306.524414062 754.143554688 292.766601562 706.5625 286.999023438 684.649414062 c 1
 57.513671875 813.48828125 35.0029296875 887.31640625 35.0029296875 928.649414062 c 0
 35.6650390625 977.37890625 70.2353515625 1075.34179688 86.00390625 1102.64941406 c 1
EndSplineSet
EndChar

StartChar: lamalifhamzahatas.isol
Encoding: 192 -1 49
GlifName: lamalifhamzahatas.isol
Width: 944
GlyphClass: 2
Flags: MW
HStem: 10.6494 117.406<285.138 700.332>
VStem: 700.997 71.002<140.345 277.952>
LayerCount: 2
Fore
SplineSet
86.00390625 1102.64941406 m 5
 172.5546875 1085.33789062 420.423828125 865.274414062 605 566.649414062 c 4
 635.965820312 516.543945312 671.19921875 450.197265625 704.715820312 377.344726562 c 4
 746.2265625 287.1171875 771.999023438 222.759765625 771.999023438 192.770507812 c 4
 771.999023438 169.784179688 706.983398438 10.6494140625 690.99609375 10.6494140625 c 6
 266 10.6494140625 l 5
 270.6640625 35.9833984375 280.033203125 97.890625 285.392578125 128.055664062 c 5
 397.3984375 131.903320312 l 5
 519.439453125 129.630859375 687.427734375 136.013671875 700.997070312 139.649414062 c 5
 691.083007812 354.119140625 426.822265625 647.139648438 309.998046875 766.649414062 c 5
 306.524414062 754.143554688 292.766601562 706.5625 286.999023438 684.649414062 c 5
 57.513671875 813.48828125 35.0029296875 887.31640625 35.0029296875 928.649414062 c 4
 35.6650390625 977.37890625 70.2353515625 1075.34179688 86.00390625 1102.64941406 c 5
EndSplineSet
EndChar

StartChar: lamalifhamzahbawah.isol
Encoding: 193 -1 52
GlifName: lamalifhamzahbawah.isol
Width: 944
GlyphClass: 2
Flags: MW
HStem: -963 94<20 68 208 362> -773 94<208 362>
VStem: 68 140<-869 -773>
LayerCount: 2
Fore
SplineSet
362 -679 m 1
 362 -773 l 1
 208 -773 l 1
 208 -869 l 1
 362 -869 l 1
 362 -963 l 1
 20 -963 l 1
 20 -869 l 1
 68 -869 l 1
 68 -727 l 1
 114 -727 l 1
 114 -679 l 1
 238 -679 l 1
 362 -679 l 1
394.64453125 243.649414062 m 0
 364.90625 481.287109375 227.092773438 632.897460938 120.647460938 725.650390625 c 1
 115.385742188 714.99609375 113.447265625 684.614257812 94.64453125 672.649414062 c 1
 68.2099609375 673.62890625 -110.009765625 776.80078125 -112.353515625 855.650390625 c 0
 -112.353515625 875.614257812 -69.3203125 1021.76855469 -63.35546875 1041.65039062 c 1
 255.583984375 903.762695312 461.2734375 527.775390625 422.646484375 274.650390625 c 1
 414.153320312 249.131835938 404.997070312 232.37890625 399.251953125 233.71875 c 0
 396.89453125 234.268554688 395.370117188 237.83203125 394.64453125 243.649414062 c 0
EndSplineSet
EndChar

StartChar: mim.fina
Encoding: 194 -1 53
GlifName: mim.fina
Width: 829
GlyphClass: 2
Flags: MW
HStem: 0 140<746.435 893.931> 350 150<467.638 597.209>
LayerCount: 2
Fore
SplineSet
609.115234375 500 m 4
 636.053710938 500 718.216796875 140 799.115234375 140 c 6
 817.615234375 140 l 5
 829 140 l 6
 831.401367188 140 833.774414062 139.877929688 836.115234375 139.640625 c 4
 871.307617188 136.076171875 898.772460938 106.358398438 898.772460938 70.224609375 c 6
 898.772460938 69.775390625 l 6
 898.772460938 33.642578125 871.307617188 3.9228515625 836.115234375 0.357421875 c 4
 833.774414062 0.12109375 831.401367188 0 829 0 c 6
 817.615234375 0 l 5
 750.501953125 0 l 5
 738.598632812 -17.7568359375 726.340820312 -36.134765625 715.390625 -51.744140625 c 4
 709.500976562 -60.1396484375 703.990234375 -67.732421875 699.115234375 -74 c 5
 607.572265625 -31.921875 344.970703125 77.78125 320.115234375 141 c 5
 335.147460938 176.834960938 355.79296875 232.900390625 371.369140625 275.513671875 c 5
 257.884765625 226.35546875 138.326171875 164.200195312 108.115234375 126 c 5
 129.080078125 -50.3427734375 188.876953125 -222.21875 234.115234375 -394 c 4
 255.173828125 -488.770507812 220.033203125 -589.736328125 196.115234375 -679 c 4
 181.583984375 -733.23046875 187.479492188 -578.3984375 161.115234375 -480 c 4
 148.065429688 -431.301757812 56.7509765625 -144.8203125 45.115234375 53 c 5
 45.115234375 137.780273438 127.119140625 271.6953125 181.115234375 307 c 4
 226.251953125 336.512695312 511.739257812 500 609.115234375 500 c 4
590.115234375 350 m 5
 564.646484375 350.506835938 484.08984375 323.03515625 395.498046875 285.80859375 c 5
 472.826171875 187.538085938 578.125976562 129.716796875 693.115234375 86 c 4
 696.920898438 84.98046875 696.42578125 87.74609375 694.815429688 90.53515625 c 4
 646.692382812 173.88671875 594.302734375 277.717773438 590.115234375 350 c 5
EndSplineSet
Substitution2: "'ss01' Muka Creeper" mim.ss01.fina
EndChar

StartChar: mim.medi
Encoding: 195 -1 54
GlifName: mim.medi
Width: 828
GlyphClass: 2
Flags: MW
HStem: 0 140.002<-64.2055 241.039 729.544 890.52> 107 33.002<245.666 276.852> 332.631 143.371<484.077 593.721>
LayerCount: 2
Fore
SplineSet
612.614257812 476.001953125 m 1xa0
 612.614257812 476 l 1
 666.904296875 476 639.715820312 177.934570312 794.614257812 140 c 0
 807.604492188 140 820.654296875 140.40234375 833.614257812 139.53125 c 0
 868.327148438 135.510742188 895.272460938 106.015625 895.272460938 70.224609375 c 2
 895.272460938 69.7734375 l 2
 895.272460938 33.9833984375 868.327148438 4.48828125 833.614257812 0.466796875 c 0
 827.13671875 -0.2470703125 820.619140625 0.0498046875 814.114257812 0 c 2
 714.614257812 0 l 1xa0
 699.5546875 -31.482421875 685.155273438 -63.275390625 670.614257812 -95 c 1
 302.614257812 107 l 1x60
 245.666015625 107 247.86328125 0 189.614257812 0 c 2
 12.1123046875 0 l 1
 0.7275390625 0 l 2
 -37.80859375 0 -69.044921875 31.240234375 -69.044921875 69.775390625 c 2
 -69.044921875 70.2265625 l 2
 -69.044921875 108.762695312 -37.80859375 140.001953125 0.7275390625 140.001953125 c 2
 12.1123046875 140.001953125 l 1
 201.614257812 140.001953125 l 2
 276.8515625 140.001953125 295.610351562 294.999023438 325.614257812 325.001953125 c 0
 421.474609375 412.1484375 556.655273438 476.001953125 612.614257812 476.001953125 c 1xa0
520.494140625 332.630859375 m 0
 472.483398438 330.68359375 411.120117188 303.556640625 366.614257812 245.001953125 c 1
 437.798828125 202.702148438 567.379882812 107.142578125 649.458984375 89.861328125 c 0
 654.078125 88.6240234375 656.4453125 94.609375 654.41796875 102.177734375 c 0
 639.427734375 158.122070312 610.36328125 233.587890625 594.063476562 294.419921875 c 0
 587.095703125 320.428710938 557.833984375 334.146484375 520.494140625 332.630859375 c 0
EndSplineSet
Substitution2: "'ss01' Muka Creeper" mim.ss01.medi
EndChar

StartChar: mim.init
Encoding: 196 -1 55
GlifName: mim.init
Width: 790
GlyphClass: 2
Flags: MW
HStem: 0 139.775<-64.1857 236.867> 401.053 133.723<500.474 617.795>
VStem: 661.844 101.998<172.159 301.087>
LayerCount: 2
Fore
SplineSet
655.841796875 534.775390625 m 1
 655.841796875 534.776367188 l 1
 716.423828125 534.776367188 738.663085938 270.74609375 763.841796875 176.776367188 c 1
 763.841796875 91.638671875 729.346679688 6.5302734375 694.842773438 15.7763671875 c 1
 661.655273438 18.5419921875 525.403320312 64.076171875 298.842773438 142.776367188 c 1
 261.4375 87.7578125 233.313476562 -0.2236328125 159.841796875 -0.2236328125 c 2
 12 0 l 1
 0.615234375 0 l 2
 -37.9208984375 0 -69.158203125 31.240234375 -69.158203125 69.775390625 c 2
 -69.158203125 70.224609375 l 2
 -69.158203125 106.861328125 -40.923828125 136.903320312 -5.02734375 139.775390625 c 2
 12 139.775390625 l 1
 198.83984375 139.775390625 l 2
 219.405273438 139.775390625 229.439453125 149.198242188 243.842773438 169.775390625 c 1
 285.40625 279.1171875 426.299804688 534.775390625 655.841796875 534.775390625 c 1
554.43359375 401.0546875 m 1
 554.43359375 401.052734375 l 1
 551.923828125 401.174804688 549.2890625 401.181640625 546.5234375 401.052734375 c 0
 509.671875 399.334960938 450.083984375 373.505859375 363.842773438 270.775390625 c 1
 638.840820312 171.775390625 l 2
 658.888671875 166.404296875 661.84375 172 661.84375 208.775390625 c 0
 661.84375 252.353515625 638.41796875 352.633789062 589.14453125 389.5078125 c 0
 583.383789062 393.819335938 572 400.21484375 554.43359375 401.0546875 c 1
EndSplineSet
Substitution2: "'ss01' Muka Creeper" mim.ss01.init
EndChar

StartChar: uni0631.fina
Encoding: 197 -1 56
GlifName: uni0631.fina
Width: 568
GlyphClass: 2
Flags: MW
HStem: 0 140<456.063 644.319>
VStem: 334.385 59.002<21.6388 76>
AnchorPoint: "titik_atas" 225 585.004 basechar 0
AnchorPoint: "titik_bawah" 312 -713.996 basechar 0
AnchorPoint: "atas" 257 597.004 basechar 0
AnchorPoint: "bawah" 309 -665.996 basechar 0
AnchorPoint: "cincin" 154 -694.996 basechar 0
LayerCount: 2
Fore
SplineSet
266.73828125 442.87109375 m 1
 266.73828125 442.869140625 l 1
 327.228515625 354.916015625 375.978515625 256.00390625 454.384765625 182 c 0
 490.198242188 153.215820312 525.500976562 141.579101562 568 140 c 2
 579.384765625 140 l 2
 617.920898438 140 649.158203125 108.760742188 649.158203125 70.224609375 c 2
 649.158203125 69.775390625 l 2
 649.158203125 31.240234375 617.920898438 0 579.384765625 0 c 0
 573.516601562 -0.4521484375 576.645507812 0 568 0 c 0
 500.262695312 -1.2333984375 436.963867188 20.369140625 393.38671875 76 c 1
 393.38671875 -104.764648438 169.094726562 -434 22.384765625 -434 c 0
 -48.8935546875 -434 -306.297851562 -326.022460938 -350.537109375 -292.6875 c 0
 -358.451171875 -286.723632812 -346.0546875 -269.984375 -338.61328125 -273 c 0
 -301.966796875 -287.854492188 -221.580078125 -324.046875 -173.115234375 -335.501953125 c 0
 -140.08984375 -344.3125 -106.391601562 -343.353515625 -73.615234375 -334 c 0
 91.0322265625 -282.083007812 334.384765625 -4.3203125 334.384765625 101 c 0
 333.141601562 103.446289062 331.881835938 105.881835938 330.609375 108.30859375 c 0
 291.075195312 183.674804688 237.337890625 249.830078125 184.38671875 316 c 1
 253.4921875 439.666015625 l 1
 266.73828125 442.87109375 l 1
EndSplineSet
EndChar

StartChar: sod.fina
Encoding: 198 -1 57
GlifName: uni0635.fina
Width: 1843
GlyphClass: 2
Flags: MW
HStem: -416 135<87.9717 481.046> 0 140<782.004 831.057 831.063 1015.56 1045.06 1715.91 1770.76 1907.93> 355 139<1414.32 1606.74>
VStem: -92.9404 63.9961<-152.063 35.2602> 1716.05 100.002<151.056 263.411>
AnchorPoint: "titik_atas" 1024.76 529.351 basechar 0
LayerCount: 2
Fore
SplineSet
1553.05664062 494 m 0
 1631.47363281 494 1816.05566406 368.14453125 1816.05566406 246 c 0
 1816.05566406 237.888671875 1795.65917969 188.825195312 1770.76269531 140 c 1
 1831.61523438 140 l 1
 1843 140 l 2
 1881.53613281 140 1912.7734375 108.759765625 1912.7734375 70.224609375 c 2
 1912.7734375 69.775390625 l 2
 1912.7734375 31.2392578125 1881.53613281 0 1843 0 c 2
 1831.61523438 0 l 1
 792.053710938 0 l 1
 775.859375 -62.0390625 766.25390625 -135.946289062 728.057617188 -189 c 1
 662.275390625 -296.202148438 495.2421875 -416 215.05859375 -416 c 0
 146.241210938 -416 52.4365234375 -402.155273438 -17.9423828125 -331 c 0
 -68.669921875 -279.712890625 -92.9404296875 -216 -92.9404296875 -142 c 0
 -92.9404296875 4.3720703125 -4.341796875 186.686523438 20.0576171875 227 c 0
 35.3876953125 252.333007812 40.0634765625 260.741210938 60.0537109375 272 c 0
 80.0478515625 283.258789062 51.0595703125 218.173828125 49.0595703125 212 c 0
 26.62109375 142.763671875 -28.9443359375 37.48046875 -28.9443359375 -18 c 0
 -28.9443359375 -253.87890625 181.34375 -281 278.05859375 -281 c 0
 356.4765625 -281 715.056640625 -203.97265625 715.056640625 -67 c 0
 717.716796875 50.41015625 651.801757812 145.620117188 596.05859375 243 c 1
 617.85546875 291.728515625 642.0625 344.236328125 667.056640625 397 c 1
 710.138671875 333.419921875 766.022460938 186.228515625 769.060546875 182 c 0
 786.783203125 157.33203125 807.147460938 140 831.056640625 140 c 2
 831.056640625 140 838.809570312 137.154296875 904.046875 137.154296875 c 0
 975.118164062 137.154296875 1249.05664062 340 1249.05664062 340 c 1
 1373.60449219 431.016601562 1466.05175781 494 1553.05664062 494 c 0
1435.05664062 355 m 0
 1348.53027344 355 1190.81640625 191.421875 1045.05664062 130 c 1
 1195.37402344 125.071289062 1345.72851562 127.015625 1496.05664062 131 c 1
 1550.0234375 136.99609375 1622.15332031 142.247070312 1673.49609375 151.095703125 c 0
 1711.56347656 160.1484375 1716.05371094 168.333007812 1716.05371094 191 c 0
 1716.05371094 231.986328125 1647.40722656 286.879882812 1624.0546875 301 c 0
 1564.37890625 337.083007812 1495.17285156 355 1435.05664062 355 c 0
EndSplineSet
EndChar

StartChar: sod.init
Encoding: 199 -1 58
GlifName: uni0635.init
Width: 1384
GlyphClass: 2
Flags: MW
HStem: 0 140<-64.9339 11.3848 206.469 512.181 541.681 1203.87> 355 139<911.758 1103.07>
VStem: 144.385 122.999<195.597 294.928> 1212.68 100.002<151.056 263.41>
AnchorPoint: "titik_atas" 598 516.351 basechar 0
LayerCount: 2
Fore
SplineSet
1049.67871094 494 m 2
 1049.68066406 494 l 2
 1128.09863281 494 1312.68066406 368.14453125 1312.68066406 246 c 0
 1312.68066406 241.944335938 1307.58105469 227.650390625 1299.37011719 208.267578125 c 0
 1291.15820312 188.884765625 1279.83398438 164.412109375 1267.38769531 140 c 0
 1246.52636719 99.0859375 1222.50488281 58.33984375 1204.67871094 42 c 1
 1187.94238281 32.4365234375 1132.2421875 22.0068359375 1028.67871094 10 c 1
 909.39453125 5.09765625 790.013671875 3.392578125 670.678710938 0 c 2
 297.3203125 0 l 2
 266.3125 1.3525390625 188.772460938 10.6162109375 125.384765625 67 c 1
 98.740234375 40.0546875 88.4951171875 27.3828125 58.38671875 10 c 0
 46.140625 2.9296875 11.384765625 0 11.384765625 0 c 1
 0 0 l 2
 -38.5361328125 0 -69.7734375 31.2392578125 -69.7734375 69.775390625 c 2
 -69.7734375 70.224609375 l 2
 -69.7734375 108.759765625 -38.5361328125 140 0 140 c 2
 11.384765625 140 l 1
 48.384765625 140 l 2
 98.1201171875 140 114.823242188 148.159179688 123.38671875 155 c 0
 160.32421875 184.5 159.186523438 218.634765625 144.384765625 281 c 1
 215.146484375 358.396484375 238.885742188 384.82421875 267.383789062 417 c 1
 267.383789062 303.452148438 256.170898438 226.75 204.928710938 170.669921875 c 1
 237.955078125 142.841796875 259.721679688 137.154296875 400.66796875 137.154296875 c 0
 471.740234375 137.154296875 745.678710938 340 745.678710938 340 c 1
 870.227539062 431.016601562 962.673828125 494 1049.67871094 494 c 2
931.678710938 355 m 0
 845.153320312 355 687.439453125 191.422851562 541.680664062 130 c 1
 691.997070312 125.071289062 842.350585938 127.015625 992.678710938 131 c 1
 1046.64550781 136.99609375 1118.77539062 142.247070312 1170.11816406 151.095703125 c 0
 1208.18457031 160.1484375 1212.67871094 168.333984375 1212.67871094 191 c 0
 1212.67871094 231.986328125 1144.03125 286.87890625 1120.67871094 301 c 0
 1061.00292969 337.08203125 991.794921875 355 931.678710938 355 c 0
EndSplineSet
EndChar

StartChar: sod.medi
Encoding: 200 -1 59
GlifName: uni0635.medi
Width: 1340
GlyphClass: 2
Flags: MW
HStem: 0 140<-64.9339 102.384 206.514 505.087 541.678 1212.53 1267.38 1404.55> 355 139<910.946 1103.36>
VStem: 144.385 122.998<195.597 294.928> 1212.68 100.002<151.056 263.411>
AnchorPoint: "titik_atas" 600 504.351 basechar 0
LayerCount: 2
Fore
SplineSet
1049.67773438 494 m 4
 1128.09570312 494 1312.67773438 368.14453125 1312.67773438 246 c 4
 1312.67773438 237.888671875 1292.28027344 188.825195312 1267.38476562 140 c 5
 1328.23828125 140 l 5
 1339.62109375 140 l 6
 1378.15722656 140 1409.39453125 108.759765625 1409.39453125 70.224609375 c 6
 1409.39453125 69.775390625 l 6
 1409.39453125 31.2392578125 1378.15722656 0 1339.62109375 0 c 6
 1328.23828125 0 l 5
 297.3203125 0 l 6
 235.559570312 2.6982421875 172.271484375 25.2939453125 125.384765625 67 c 5
 98.7392578125 40.0546875 87.689453125 28.708984375 58.38671875 10 c 4
 46.7978515625 2.6005859375 46.07421875 0 0 0 c 4
 -38.5361328125 0 -69.7734375 31.2392578125 -69.7734375 69.775390625 c 6
 -69.7734375 70.224609375 l 6
 -69.7734375 108.759765625 -38.5361328125 140 0 140 c 6
 11.384765625 140 l 5
 48.384765625 140 l 6
 98.119140625 140 114.822265625 148.159179688 123.387695312 155 c 4
 160.32421875 184.5 159.185546875 218.635742188 144.384765625 281 c 5
 215.145507812 358.396484375 238.884765625 384.82421875 267.3828125 417 c 5
 267.3828125 303.452148438 256.170898438 226.75 204.927734375 170.669921875 c 5
 238.674804688 142.234375 277.366210938 130.7421875 400.66796875 137.154296875 c 4
 471.64453125 140.844726562 745.677734375 340 745.677734375 340 c 5
 870.2265625 431.016601562 962.673828125 494 1049.67773438 494 c 4
931.677734375 355 m 4
 845.15234375 355 687.4375 191.421875 541.677734375 130 c 5
 691.995117188 125.071289062 842.349609375 127.015625 992.677734375 131 c 5
 1046.64453125 136.99609375 1118.77734375 142.247070312 1170.11914062 151.095703125 c 4
 1208.1875 160.1484375 1212.67578125 168.333007812 1212.67578125 191 c 4
 1212.67578125 231.986328125 1144.02929688 286.879882812 1120.67578125 301 c 4
 1061 337.083007812 991.793945312 355 931.677734375 355 c 4
EndSplineSet
EndChar

StartChar: uni0633.fina
Encoding: 201 -1 60
GlifName: uni0633.fina
Width: 1461
GlyphClass: 2
Flags: MW
HStem: -424.998 139.999<79.7232 483.755> 0 140.001<782.897 970.57 1344.47 1525.65>
VStem: -95.4971 65.502<-161.665 32.3578> 1242.99 105<175.784 301.801> 1271.99 76<175.784 282.641>
AnchorPoint: "titik_atas" 947 555.007 basechar 0
AnchorPoint: "titik_bawah" 1074 -169.993 basechar 0
AnchorPoint: "bawah" 1084 -169.993 basechar 0
LayerCount: 2
Fore
SplineSet
1347.98632812 421.001953125 m 1xe8
 1347.98632812 229.000976562 l 2xf0
 1347.98632812 212.2265625 1345.96875 193.83203125 1342.63964844 174.896484375 c 1
 1381.93359375 142.321289062 1409.89355469 140.000976562 1460.71582031 140.000976562 c 0
 1499.25195312 140.000976562 1530.4921875 108.760742188 1530.4921875 70.2255859375 c 2
 1530.4921875 69.775390625 l 2
 1530.4921875 31.240234375 1499.25195312 0 1460.71582031 0 c 2
 1449.33496094 0 l 1
 1449.33496094 0.0830078125 l 1
 1359.19042969 1.412109375 1327.5546875 18.73046875 1304.81542969 41.5283203125 c 1
 1300.08496094 28.5869140625 1295.66015625 17.1865234375 1291.98632812 8.001953125 c 1
 1181.94824219 -17.5888671875 1073.62304688 -12.478515625 975.986328125 46.0029296875 c 1
 917.978515625 -18.6396484375 867.78125 -8.99609375 791.002929688 -8.99609375 c 1
 774.807617188 -71.03515625 765.203125 -144.9453125 727.006835938 -197.999023438 c 1
 661.223632812 -305.200195312 494.188476562 -424.998046875 214.004882812 -424.998046875 c 0
 145.186523438 -424.998046875 51.3837890625 -411.153320312 -18.9951171875 -339.998046875 c 0
 -69.724609375 -288.7109375 -95.4970703125 -219.999023438 -95.4970703125 -145.999023438 c 0
 -95.4970703125 0.3740234375 -6.8974609375 182.686523438 17.5029296875 223 c 0
 32.8330078125 248.333007812 39.0126953125 251.744140625 59.0029296875 263.002929688 c 0
 78.9970703125 274.262695312 50.005859375 209.177734375 48.0068359375 203.002929688 c 0
 25.5673828125 133.766601562 -29.9951171875 28.484375 -29.9951171875 -26.99609375 c 0
 -29.9951171875 -262.875 178.7890625 -284.999023438 275.502929688 -284.999023438 c 0
 353.920898438 -284.999023438 711.502929688 -207.970703125 711.502929688 -70.998046875 c 0
 714.1640625 46.412109375 648.249023438 141.620117188 592.504882812 239 c 1
 614.301757812 287.728515625 638.508789062 340.23828125 663.502929688 393.000976562 c 1
 706.5859375 329.421875 764.967773438 177.231445312 768.006835938 173.002929688 c 0
 785.728515625 148.334960938 807.327148438 138.581054688 830.002929688 131.002929688 c 0
 857.344726562 121.866210938 926.2421875 135.588867188 943.986328125 138.002929688 c 0
 960.65234375 140.002929688 970.319335938 152.334960938 972.986328125 175.001953125 c 2
 972.986328125 248.001953125 l 2
 975.282226562 275.5546875 1003.04980469 312.638671875 1103.98632812 397.001953125 c 1
 1046.98632812 169.001953125 l 1
 1060.54980469 126.364257812 1226.48535156 134.001953125 1271.98632812 134.001953125 c 1xe8
 1266.44042969 187.016601562 1258.30957031 234.54296875 1242.98632812 285.00390625 c 1xf0
 1278.74121094 329.76953125 1314.25 374.694335938 1347.98632812 421.001953125 c 1xe8
EndSplineSet
EndChar

StartChar: uni0633.init
Encoding: 202 -1 61
GlifName: uni0633.init
Width: 908
GlyphClass: 2
Flags: MW
HStem: -0.0371094 140.002<-15.8225 102.751>
VStem: 143.965 122.996<193.97 294.893> 757.967 74<139.28 286.878>
AnchorPoint: "bawah" 467 -169.993 basechar 0
AnchorPoint: "titik_bawah" 457 -169.993 basechar 0
AnchorPoint: "titik_atas" 482 555.007 basechar 0
LayerCount: 2
Fore
SplineSet
832.96484375 427.96484375 m 1
 832.96484375 427.977539062 l 1
 833.354492188 355.94921875 832.96484375 283.94921875 831.966796875 211.977539062 c 0
 828.754882812 140.526367188 804.623046875 18.3154296875 780.966796875 11.9775390625 c 0
 670.994140625 -12.2412109375 557.09765625 -8.2822265625 456.4140625 49.9775390625 c 1
 439.266601562 40.974609375 406.3359375 16.634765625 396.4140625 13.9775390625 c 0
 375.120117188 8.2705078125 302.208984375 -20.0966796875 190.013671875 9.96484375 c 0
 174.57421875 14.103515625 144.830078125 43.029296875 124.96484375 66.9775390625 c 1
 98.3193359375 40.0322265625 88.072265625 27.3603515625 57.96484375 9.9765625 c 0
 45.84765625 2.98046875 22.0439453125 0.0615234375 11.3828125 0 c 0
 11.26953125 0 11.072265625 -0.037109375 10.962890625 -0.037109375 c 2
 0 -0.037109375 l 2
 -5.529296875 -0.037109375 -10.90625 0.6064453125 -16.064453125 1.822265625 c 0
 -46.85546875 9.078125 -69.775390625 36.732421875 -69.775390625 69.740234375 c 2
 -69.775390625 70.1875 l 2
 -69.775390625 103.194335938 -46.85546875 130.848632812 -16.064453125 138.104492188 c 0
 -10.90625 139.3203125 -5.529296875 139.96484375 0 139.96484375 c 2
 11.3828125 139.96484375 l 1
 47.96484375 139.96484375 l 2
 97.69921875 139.963867188 114.400390625 148.124023438 122.96484375 154.96484375 c 0
 159.90234375 184.463867188 158.765625 218.599609375 143.96484375 280.96484375 c 1
 214.725585938 358.361328125 238.462890625 384.7890625 266.9609375 416.963867188 c 1
 266.9609375 302.286132812 255.524414062 225.190429688 202.962890625 168.96484375 c 1
 267.834960938 104.782226562 450.412109375 143.96484375 450.412109375 143.96484375 c 1
 458.435546875 179.51171875 455.858398438 215.895507812 454.4140625 251.96484375 c 0
 454.4140625 295.375 545.87890625 371.690429688 582.412109375 401.96484375 c 1
 526.4140625 172.96484375 l 1
 549.064453125 133.736328125 697.139648438 134.83984375 757.966796875 137.96484375 c 1
 746.96484375 194.96484375 744.41015625 223.5234375 724.96484375 289.96484375 c 1
 741.51171875 334.4140625 796.571289062 391.44140625 832.96484375 427.96484375 c 1
EndSplineSet
EndChar

StartChar: uni0633.medi
Encoding: 203 -1 62
GlifName: uni0633.medi
Width: 899
GlyphClass: 2
Flags: W
HStem: 0 140.001<-18.4778 96.3077 838.518 963.453>
VStem: 137.521 122.998<194.004 294.927> 773.521 74.001<140.001 286.912>
AnchorPoint: "titik_atas" 500 555.004 basechar 0
AnchorPoint: "titik_bawah" 425 -169.996 basechar 0
AnchorPoint: "bawah" 435 -169.996 basechar 0
LayerCount: 2
Fore
SplineSet
848.518554688 427.999023438 m 5
 848.518554688 428.000976562 l 5
 848.909179688 355.973632812 848.518554688 283.97265625 847.521484375 212.000976562 c 5
 838.517578125 140.000976562 l 5
 887.13671875 140.000976562 l 5
 898.517578125 140.000976562 l 6
 937.052734375 140.000976562 968.29296875 108.760742188 968.29296875 70.2255859375 c 6
 968.29296875 69.775390625 l 6
 968.29296875 31.240234375 937.052734375 0 898.517578125 0 c 6
 887.13671875 0 l 5
 812.518554688 0 l 5
 796.51953125 12 l 5
 686.546875 -12.2177734375 578.202148438 -8.259765625 477.518554688 50.0009765625 c 5
 460.368164062 40.998046875 427.440429688 16.6591796875 417.518554688 14.0009765625 c 4
 396.225585938 8.294921875 295.765625 -20.0732421875 183.569335938 9.98828125 c 4
 168.126953125 14.126953125 138.38671875 43.052734375 118.520507812 67.0009765625 c 5
 91.8759765625 40.0556640625 81.62890625 27.3837890625 51.5205078125 10 c 4
 41.4814453125 4.2041015625 23.361328125 1.19140625 11.380859375 0.29296875 c 5
 8.84375 0.1005859375 6.583984375 -0.001953125 4.7314453125 -0.001953125 c 6
 0 -0.001953125 l 6
 -6.4990234375 -0.001953125 -12.7890625 0.8876953125 -18.7578125 2.548828125 c 4
 -48.18359375 10.7421875 -69.775390625 37.736328125 -69.775390625 69.7734375 c 6
 -69.775390625 70.2236328125 l 6
 -69.775390625 102.260742188 -48.18359375 129.25390625 -18.7578125 137.448242188 c 4
 -12.7890625 139.109375 -6.4990234375 139.999023438 0 139.999023438 c 6
 11.380859375 139.999023438 l 5
 41.5205078125 139.999023438 l 6
 91.255859375 139.999023438 107.955078125 148.157226562 116.518554688 154.998046875 c 4
 153.45703125 184.498046875 152.317382812 218.633789062 137.520507812 280.998046875 c 5
 208.28125 358.395507812 232.021484375 384.823242188 260.518554688 416.998046875 c 5
 260.518554688 302.3203125 249.078125 225.224609375 196.51953125 168.999023438 c 5
 261.390625 104.81640625 471.517578125 143.998046875 471.517578125 143.998046875 c 5
 479.541992188 179.545898438 476.96484375 215.9296875 475.521484375 251.998046875 c 4
 475.521484375 295.409179688 566.98046875 371.724609375 603.517578125 401.998046875 c 5
 547.521484375 172.998046875 l 5
 570.171875 133.770507812 712.693359375 134.874023438 773.520507812 137.998046875 c 5
 762.518554688 194.999023438 759.96484375 223.557617188 740.518554688 289.999023438 c 5
 757.065429688 334.448242188 812.125976562 391.475585938 848.518554688 427.999023438 c 5
EndSplineSet
EndChar

StartChar: uni0637.fina
Encoding: 204 -1 63
GlifName: uni0637.fina
Width: 1323
GlyphClass: 2
Flags: MW
HStem: 0 140<53.3057 469.008 575.044 1220.56 1286.71 1387.55> 369 142<924.575 967.039>
VStem: -39.959 93.001<235.535 372.598>
AnchorPoint: "titik_atas" 850 620.004 basechar 0
LayerCount: 2
Fore
SplineSet
497.467773438 1156.21484375 m 4
 497.881835938 1156.234375 498.228515625 1156.16308594 498.50390625 1156.00390625 c 4
 503.87109375 1152.90625 507.8515625 1147.39550781 509.038085938 1143.50195312 c 4
 503.455078125 1120.97949219 487.979492188 1093.96972656 500.043945312 1071.50195312 c 5
 525.616210938 1047.89355469 611.853515625 1000.08398438 644.043945312 986.5 c 5
 558.040039062 816.5 l 5
 549.590820312 820.444335938 541.061523438 824.2109375 533.041992188 829 c 5
 535.911132812 791.711914062 560.041015625 545.48046875 560.041015625 543 c 4
 560.041015625 451.254882812 568.454101562 293.068359375 511.0390625 199 c 5
 530.604492188 204.2421875 549.543945312 211.666992188 588.543945312 237 c 4
 627.54296875 262.333984375 682.708984375 302 754.041992188 356 c 4
 890.708984375 459.333007812 990.375 511 1053.04003906 511 c 4
 1097.04101562 511 1152.37402344 481.666992188 1219.0390625 423 c 4
 1287.70605469 366.333007812 1322.04394531 310 1322.04394531 254 c 4
 1322.04394531 232.459960938 1307.45507812 186.772460938 1286.71289062 140.001953125 c 5
 1311.23242188 140.001953125 l 5
 1322.61816406 140.001953125 l 6
 1361.15429688 140.001953125 1392.390625 108.762695312 1392.390625 70.2265625 c 6
 1392.390625 69.775390625 l 6
 1392.390625 31.240234375 1361.15429688 0 1322.61816406 0 c 6
 1311.23242188 0 l 5
 241.538085938 0 l 5
 184.04296875 0 l 6
 113.4765625 0 -30.9267578125 31.4541015625 -39.958984375 200.998046875 c 4
 -44.3779296875 283.962890625 25.7890625 436.036132812 48.0400390625 441.998046875 c 4
 50.0205078125 442.528320312 50.6875 440.439453125 53.0419921875 430.998046875 c 4
 47.958984375 390.327148438 10.392578125 275.836914062 21.5419921875 233.498046875 c 4
 47.2060546875 140.017578125 164.565429688 139.998046875 240.040039062 139.998046875 c 6
 370.041992188 139.998046875 l 6
 422.116210938 139.998046875 469.041992188 177.998046875 469.041992188 177.998046875 c 5
 505.120117188 198.828125 450.186523438 669.181640625 430.495117188 888.91796875 c 5
 393.329101562 910.51953125 363.55859375 936.440429688 393.041015625 982.482421875 c 6
 472.041992188 1126.48242188 l 6
 483.180664062 1147.3671875 493.455078125 1156.03320312 497.467773438 1156.21484375 c 4
967.0390625 368.998046875 m 5
 967.0390625 369 l 5
 833.702148438 369 740.341796875 215.475585938 574.041992188 147 c 5
 575.043945312 140 l 5
 1104 140 l 6
 1176.01660156 140.127929688 1217.06054688 147.458984375 1221.04003906 186.998046875 c 4
 1222.33203125 199.841796875 1148.04199219 349.431640625 967.0390625 368.998046875 c 5
EndSplineSet
EndChar

StartChar: uni0637.init
Encoding: 205 -1 64
GlifName: uni0637.init
Width: 1106
GlyphClass: 2
Flags: MW
HStem: 0 140<-64.933 201.825 307.862 952.406> 369 141.998<656.026 833.247>
AnchorPoint: "titik_atas" 600 620.004 basechar 0
LayerCount: 2
Fore
SplineSet
230.28515625 1156.21679688 m 5
 230.28515625 1156.21289062 l 5
 230.700195312 1156.23242188 231.048828125 1156.16113281 231.32421875 1156.00195312 c 4
 236.69140625 1152.90429688 240.670898438 1147.39355469 241.857421875 1143.5 c 4
 236.275390625 1120.97753906 220.797851562 1093.96679688 232.861328125 1071.5 c 5
 258.434570312 1047.89160156 344.670898438 1000.08203125 376.861328125 986.498046875 c 5
 290.857421875 816.498046875 l 5
 282.408203125 820.442382812 273.877929688 824.208984375 265.859375 828.998046875 c 5
 268.728515625 791.708984375 292.859375 545.478515625 292.859375 542.998046875 c 4
 292.859375 451.252929688 301.272460938 293.06640625 243.858398438 198.998046875 c 5
 263.422851562 204.240234375 282.361328125 211.665039062 321.361328125 236.998046875 c 4
 360.361328125 262.33203125 415.52734375 301.998046875 486.860351562 355.998046875 c 4
 623.52734375 459.331054688 723.193359375 510.998046875 785.858398438 510.998046875 c 4
 829.859375 510.998046875 885.192382812 481.665039062 951.858398438 422.998046875 c 4
 1020.52441406 366.331054688 1054.86132812 309.998046875 1054.86132812 253.998046875 c 4
 1054.86132812 200.759765625 965.740234375 0 914.859375 0 c 6
 11.3857421875 0 l 5
 0 0 l 6
 -38.5361328125 0 -69.7724609375 31.240234375 -69.7724609375 69.775390625 c 6
 -69.7724609375 70.224609375 l 6
 -69.7724609375 108.760742188 -38.5361328125 140 0 140 c 6
 11.3857421875 140 l 5
 102.860351562 140 l 6
 154.934570312 140 201.859375 178 201.859375 178 c 5
 237.9375 198.830078125 183.00390625 669.18359375 163.3125 888.919921875 c 5
 126.147460938 910.521484375 96.3759765625 936.442382812 125.860351562 982.484375 c 6
 204.860351562 1126.484375 l 6
 215.998046875 1147.36914062 226.274414062 1156.03613281 230.28515625 1156.21679688 c 5
699.858398438 369 m 5
 566.520507812 369 473.16015625 215.475585938 306.860351562 147 c 5
 307.862304688 140 l 5
 834.860351562 140 l 6
 908.090820312 140 949.84375 147.104492188 953.858398438 187 c 4
 955.150390625 199.84375 880.860351562 349.43359375 699.858398438 369 c 5
EndSplineSet
EndChar

StartChar: uni0637.medi
Encoding: 206 -1 65
GlifName: uni0637.medi
Width: 1035
GlyphClass: 2
Flags: MW
HStem: 0 140.004<-64.9339 156.089 262.125 907.64 973.795 1099.15> 369.004 141.994<611.657 654.121>
AnchorPoint: "titik_atas" 550 620.004 basechar 0
LayerCount: 2
Fore
SplineSet
184.547851562 1156.21875 m 6
 184.548828125 1156.21289062 l 6
 184.963867188 1156.23242188 185.311523438 1156.16113281 185.586914062 1156.00195312 c 4
 190.954101562 1152.90429688 194.934570312 1147.39355469 196.12109375 1143.5 c 4
 190.5390625 1120.97753906 175.060546875 1093.96679688 187.124023438 1071.5 c 5
 212.697265625 1047.89160156 298.934570312 1000.08203125 331.124023438 986.498046875 c 5
 245.12109375 816.498046875 l 5
 236.671875 820.442382812 228.142578125 824.208984375 220.123046875 828.998046875 c 5
 222.9921875 791.708984375 247.123046875 545.478515625 247.123046875 542.998046875 c 4
 247.123046875 451.252929688 255.53515625 293.06640625 198.12109375 198.998046875 c 5
 217.685546875 204.240234375 236.625 211.665039062 275.625 236.998046875 c 4
 314.625 262.33203125 369.791015625 301.998046875 441.123046875 355.998046875 c 4
 577.790039062 459.331054688 677.456054688 510.998046875 740.12109375 510.998046875 c 4
 784.122070312 510.998046875 839.455078125 481.665039062 906.12109375 422.998046875 c 4
 974.787109375 366.331054688 1009.12402344 309.998046875 1009.12402344 253.998046875 c 4
 1009.12402344 232.458007812 994.537109375 186.770507812 973.794921875 140 c 5
 1022.83496094 140 l 5
 1034.22070312 140 l 6
 1072.75683594 140 1103.99414062 108.760742188 1103.99414062 70.224609375 c 6
 1103.99414062 69.775390625 l 6
 1103.99414062 31.240234375 1072.75683594 0 1034.22070312 0 c 6
 1022.83496094 0 l 5
 11.384765625 0 l 5
 0 0 l 6
 -38.5361328125 0 -69.7734375 31.240234375 -69.7734375 69.775390625 c 6
 -69.7734375 70.2265625 l 6
 -69.7734375 108.762695312 -38.5361328125 140.001953125 0 140.001953125 c 6
 11.384765625 140.001953125 l 5
 57.123046875 140.001953125 l 6
 109.197265625 140.001953125 156.123046875 178.001953125 156.123046875 178.001953125 c 5
 192.200195312 198.83203125 137.267578125 669.185546875 117.576171875 888.921875 c 5
 80.41015625 910.5234375 50.6396484375 936.444335938 80.123046875 982.486328125 c 6
 159.123046875 1126.48632812 l 6
 170.26171875 1147.37109375 180.536132812 1156.03710938 184.547851562 1156.21875 c 6
654.12109375 369.001953125 m 5
 654.12109375 369.00390625 l 5
 520.783203125 369.00390625 427.422851562 215.479492188 261.123046875 147.00390625 c 5
 262.125 140.00390625 l 5
 791.08203125 140.00390625 l 6
 863.098632812 140.131835938 904.142578125 147.462890625 908.12109375 187.001953125 c 4
 909.413085938 199.845703125 835.123046875 349.435546875 654.12109375 369.001953125 c 5
EndSplineSet
EndChar

StartChar: uni0648.fina
Encoding: 207 -1 66
GlifName: uni0648.fina
Width: 422
GlyphClass: 2
Flags: MW
HStem: -437.996 81.9961<-140.263 59.6026> 346.002 154.001<166.149 281.473>
VStem: 38.6182 368.996<140.003 286.995>
AnchorPoint: "titik_atas" 250 650 basechar 0
LayerCount: 2
Fore
SplineSet
237.616210938 500.002929688 m 4
 297.96484375 500.002929688 407.614257812 377.637695312 407.614257812 140.002929688 c 5
 419 140.002929688 l 6
 421.635742188 140.002929688 424.236328125 139.857421875 426.796875 139.573242188 c 4
 461.663085938 135.697265625 488.7734375 106.127929688 488.7734375 70.2275390625 c 6
 488.7734375 69.779296875 l 6
 488.7734375 34.0361328125 461.8984375 4.5693359375 427.25390625 0.486328125 c 4
 425.456054688 0.0732421875 424.3828125 0.001953125 424.3828125 0.001953125 c 5
 414.169921875 0.001953125 l 5
 397.615234375 0.001953125 l 5
 397.615234375 -132.170898438 262.198242188 -332.453125 176.614257812 -394.499023438 c 4
 136.616210938 -423.498046875 95.947265625 -437.99609375 54.615234375 -437.99609375 c 4
 -17.546875 -437.99609375 -311.381835938 -356.298828125 -311.381835938 -322.99609375 c 4
 -311.381835938 -320.998046875 -305.833984375 -307.822265625 -293.384765625 -311.998046875 c 4
 -265.639648438 -321.303710938 -165.383789062 -354.842773438 -78.3837890625 -356 c 4
 -40.3837890625 -356 -1.71875 -346.665039062 37.615234375 -327.997070312 c 4
 101.849609375 -297.514648438 291.772460938 -170.521484375 348.6171875 0.001953125 c 5
 283.268554688 0.001953125 261.197265625 0.37890625 182.6171875 3.001953125 c 4
 96.64453125 7.8525390625 44.32421875 76.1708984375 38.6181640625 158.001953125 c 5
 38.6181640625 286.995117188 161.100585938 500.002929688 237.616210938 500.002929688 c 4
209.616210938 346.001953125 m 5
 163.612304688 346.001953125 103.15625 267.44140625 88.6162109375 218.001953125 c 5
 129.186523438 138.8984375 314.239257812 137.623046875 327.620117188 151.000976562 c 4
 351.249023438 174.643554688 303.364257812 333.94921875 209.616210938 346.001953125 c 5
EndSplineSet
EndChar

StartChar: uni0649.fina
Encoding: 208 -1 67
GlifName: uni0649.fina
Width: 1164
GlyphClass: 2
Flags: MW
HStem: -9.16211 126<710.348 898.967> -0.162109 140<1087.46 1223.92>
VStem: 102 70<-179.679 14.1874>
AnchorPoint: "titik_bawah" 605 -551.159 basechar 0
LayerCount: 2
Fore
SplineSet
279.17578125 270.25 m 4x60
 286.122070312 270.012695312 272.671875 209.930664062 268 201.837890625 c 4
 234.17578125 134.604492188 176.162109375 31.888671875 172 -61.162109375 c 5
 174.413085938 -257.18359375 359.870117188 -290.327148438 514 -291.162109375 c 4
 586.666992188 -291.162109375 815.875976562 -280.330078125 965 -163.162109375 c 5
 956.181640625 -7.51171875 754.557617188 -9.162109375 641 -9.162109375 c 5
 649.049804688 6.9375 654.7734375 18.3583984375 719 116.837890625 c 5xa0
 900.477539062 125.5625 961.520507812 131.11328125 1143 139.837890625 c 4
 1149.99804688 139.837890625 1157.0078125 140.00390625 1164 139.673828125 c 4
 1200.29296875 137.203125 1228.96484375 106.981445312 1228.96484375 70.0625 c 6
 1228.96484375 69.61328125 l 6
 1228.96484375 32.693359375 1200.29296875 2.4697265625 1164 0 c 4
 1157.01074219 -0.427734375 1149.99609375 -0.01171875 1143 -0.162109375 c 6
 1100 -2.162109375 l 5
 1081.49121094 -71.23828125 990.754882812 -227.407226562 966 -252.162109375 c 4
 941.391601562 -276.770507812 926 -299.162109375 908 -309.162109375 c 4
 793.426757812 -375.310546875 667.356445312 -419.206054688 513 -437.662109375 c 4
 359.993164062 -455.958007812 102 -426.276367188 102 -180.162109375 c 5
 95.947265625 16.9306640625 238.772460938 223.786132812 239.5 224.837890625 c 4
 255.166015625 247.50390625 267.631835938 263.03515625 278 269.837890625 c 4
 278.443359375 270.12890625 278.8359375 270.260742188 279.17578125 270.25 c 4x60
EndSplineSet
EndChar

StartChar: uni066E
Encoding: 67 1646 68
GlifName: uni066E_
Width: 1436
GlyphClass: 2
Flags: W
HStem: 9.99609 140.001<271.773 860.204>
VStem: 101.64 79.998<239.266 384.138> 1264.64 75.998<142.635 297.337>
AnchorPoint: "titik_atas" 717 665 basechar 0
AnchorPoint: "titik_bawah" 694 -85 basechar 0
AnchorPoint: "cincin" 737 -135 basechar 0
LayerCount: 2
Fore
SplineSet
1235.63769531 572.99609375 m 1
 1238.80175781 567.5625 1340.63671875 378.883789062 1340.63671875 253.998046875 c 0
 1340.63671875 174.741210938 1322.32519531 88.0146484375 1296.63574219 9.99609375 c 1
 1005.74023438 0.052734375 723.266601562 -0.1259765625 420.635742188 9.99609375 c 0
 167.075195312 18.4775390625 101.639648438 192.655273438 101.639648438 251.99609375 c 0
 101.639648438 331.181640625 203.2109375 519.93359375 237.638671875 531.997070312 c 0
 247.9453125 535.608398438 231.416992188 498.434570312 231.416992188 498.434570312 c 1
 209.243164062 460.022460938 181.637695312 388.899414062 181.637695312 360.99609375 c 0
 181.637695312 232.71875 289.021484375 154.081054688 388.638671875 149.997070312 c 0
 712.91796875 136.701171875 1258.8515625 126.846679688 1264.63867188 149.998046875 c 1
 1264.63867188 273.985351562 1158.63769531 426.99609375 1158.63769531 426.99609375 c 1
 1171.84277344 456.609375 1201.05859375 515.227539062 1235.63769531 572.99609375 c 1
EndSplineSet
MultipleSubs2: "'init' Initial Forms lookup 11-1" uni066E.init
MultipleSubs2: "'medi' Arabic Medial Forms-1" uni066E.medi
MultipleSubs2: "'fina' Arabic Terminal Forms-1" uni066E.fina
MultipleSubs2: "'ccmp' Ba" uni066E
EndChar

StartChar: uni066E.fina
Encoding: 209 -1 69
GlifName: uni066E_.fina
Width: 1229
GlyphClass: 2
Flags: W
VStem: 76.9219 85.0283<205.586 385.769> 1183.95 115.003<232.266 322.57>
AnchorPoint: "titik_atas" 624 614 basechar 0
AnchorPoint: "titik_bawah" 620 -135 basechar 0
AnchorPoint: "atas" 622 665 basechar 0
AnchorPoint: "bawah" 625 -85 basechar 0
AnchorPoint: "cincin" 620 -135 basechar 0
LayerCount: 2
Fore
SplineSet
204.087890625 513.669921875 m 0
 159.376953125 472.963867188 76.921875 336.520507812 76.921875 229.001953125 c 0
 78.2529296875 174.334960938 93.0869140625 127.501953125 121.422851562 88.501953125 c 0
 178.485351562 9.9560546875 277.6875 -13.240234375 365.919921875 -15.998046875 c 0
 605.97265625 -24.275390625 847.409179688 -15.880859375 1084.9453125 23.3505859375 c 0
 1095.94726562 25.16796875 1106.93847656 27.05078125 1117.92089844 29.001953125 c 0
 1132.25683594 43.3359375 1201.75488281 134.891601562 1228.95214844 182.002929688 c 0
 1287.7734375 283.881835938 1298.953125 360.779296875 1298.953125 402.002929688 c 0
 1288.29101562 404.6640625 1183.0390625 314.0859375 1183.95019531 305.002929688 c 0
 1170.66503906 237.46484375 1159.45117188 188.001953125 1141.95117188 153.001953125 c 1
 1030.06640625 132.131835938 660.04296875 99.107421875 403.950195312 126.002929688 c 0
 261.688476562 140.943359375 161.950195312 193.426757812 161.950195312 326.002929688 c 0
 161.950195312 355.176757812 200.263671875 456.237304688 222.748046875 495.178710938 c 0
 217.483398438 500.442382812 210.774414062 506.986328125 204.087890625 513.669921875 c 0
EndSplineSet
EndChar

StartChar: uni066E.init
Encoding: 210 -1 70
GlifName: uni066E_.init
Width: 325
GlyphClass: 2
Flags: W
VStem: 224.419 75.999<140.918 292.236>
AnchorPoint: "titik_atas" 152 658.004 basechar 0
AnchorPoint: "titik_bawah" 188 -144.996 basechar 0
AnchorPoint: "atas" 238 655.004 basechar 0
AnchorPoint: "bawah" 162 -94.9961 basechar 0
AnchorPoint: "cincin" 118 -144.996 basechar 0
LayerCount: 2
Fore
SplineSet
204.784179688 547.841796875 m 1
 191.522460938 544.6328125 l 1
 160.7109375 491.775390625 136.602539062 442.321289062 124.419921875 415 c 1
 124.419921875 415 224.418945312 263.990234375 224.418945312 140.001953125 c 1
 24.419921875 140 l 1
 0 140 l 1
 -32.5537109375 107.439453125 l 1
 -32.5537109375 -0.001953125 l 1
 24.419921875 -0.001953125 l 1
 256.419921875 0 l 1
 282.106445312 78.0185546875 300.41796875 164.743164062 300.41796875 244 c 0
 300.41796875 353.071289062 225.794921875 506.98828125 204.784179688 547.841796875 c 1
EndSplineSet
MultipleSubs2: "Multiple Sub - Ba-1" uni066E.init kasyida.1
EndChar

StartChar: uni066E.medi
Encoding: 211 -1 71
GlifName: uni066E_.medi
Width: 342
GlyphClass: 2
Flags: W
AnchorPoint: "titik_atas" 250.156 608.715 basechar 0
AnchorPoint: "titik_bawah" 304.156 -143.285 basechar 0
AnchorPoint: "atas" 326.156 656.715 basechar 0
AnchorPoint: "bawah" 254.156 -93.2852 basechar 0
AnchorPoint: "cincin" 234.156 -143.285 basechar 0
LayerCount: 2
Fore
SplineSet
428.046875 409.048828125 m 1
 414.958007812 409.048828125 330.947265625 338.950195312 310.235351562 288.078125 c 1
 307.124023438 252.588867188 285.430664062 140.782226562 260.693359375 140 c 0
 260.61328125 140 260.50390625 140 260.427734375 140 c 2
 24.419921875 140 l 1
 0 140 l 1
 -32.552734375 107.44140625 l 1
 -32.552734375 0 l 1
 24.419921875 0 l 1
 244.6875 0 l 1
 264.737304688 20.05078125 341.911132812 128.841796875 348.35546875 139.998046875 c 0
 373.552734375 183.646484375 429.770507812 310.552734375 429.770507812 407.486328125 c 0
 429.770507812 408.579101562 429.116210938 409.05078125 428.04296875 409.05078125 c 1
 428.046875 409.048828125 l 1
EndSplineSet
Substitution2: "Single Sub Ba Tinggi-1" uni066E.medi.1
MultipleSubs2: "Multiple Sub - Ba-1" uni066E.medi kasyida.1
EndChar

StartChar: uni06A1
Encoding: 111 1697 72
GlifName: uni06A_1
Width: 1204
GlyphClass: 2
Flags: HMW
HStem: 7.48087 138.33 606.044 127.002
VStem: -92.998 79.998 605.003 104.998 1070 74.5068
AnchorPoint: "titik_atas" 914 878 basechar 0
LayerCount: 2
Fore
SplineSet
937.004882812 733.043945312 m 1
 937.00390625 733.045898438 l 1
 973.669921875 733.045898438 1017.66992188 678.045898438 1062.24121094 583.533203125 c 0
 1104.96582031 492.935546875 1144.50683594 373.801757812 1144.50683594 304.186523438 c 0
 1144.50683594 245.462890625 1116.37109375 14.0439453125 860.453125 5.7080078125 c 0
 811.102539062 4.1005859375 528.627929688 3.921875 422.21875 7.48046875 c 0
 -27.5634765625 22.5244140625 -92.998046875 196.703125 -92.998046875 258.381835938 c 0
 -92.998046875 335.228515625 8.57421875 523.982421875 39.3681640625 534.772460938 c 0
 53.3076171875 539.657226562 36.7783203125 502.483398438 36.7783203125 502.483398438 c 1
 14.6044921875 464.0703125 -13 392.947265625 -13 340.40234375 c 0
 -13 236.766601562 94.3828125 158.129882812 394.848632812 145.810546875 c 0
 518.280273438 140.75 1064.21289062 130.89453125 1070 154.045898438 c 1
 1069.734375 164.983398438 l 2
 1065.68066406 249.600585938 1031.74414062 367.637695312 1001.92382812 418.0390625 c 1
 937.083007812 338.09375 944.76171875 340.802734375 930.036132812 326.077148438 c 0
 815.469726562 211.510742188 605.002929688 301.875976562 605.002929688 389.971679688 c 0
 605.002929688 428.376953125 645.002929688 498.709960938 714.98046875 581.331054688 c 0
 803.669921875 686.043945312 874.337890625 733.043945312 937.004882812 733.043945312 c 1
838.002929688 606.043945312 m 1
 781.359375 596.328125 735.677734375 545.375 710.000976562 496.043945312 c 1
 710.000976562 457.984375 877.37109375 396.095703125 902.4765625 410.590820312 c 0
 906.223632812 412.75390625 974.646484375 455.7890625 980.618164062 466.131835938 c 1
 973.53515625 482.823242188 906.916015625 606.043945312 838.002929688 606.043945312 c 1
EndSplineSet
Substitution2: "'ss01' Muka Creeper" uni06A1.ss01
MultipleSubs2: "'init' Initial Forms lookup 11-1" uni06A1.init
MultipleSubs2: "'medi' Arabic Medial Forms-1" uni06A1.medi
MultipleSubs2: "'fina' Arabic Terminal Forms-1" uni06A1.fina
EndChar

StartChar: uni06A1.fina
Encoding: 212 -1 73
GlifName: uni06A_1.fina
Width: 1170
GlyphClass: 2
Flags: MW
HStem: 0 140.006<87.1337 736.205 835.795 941.744 989.178 1081.62 1112.83 1234.37>
VStem: -82.998 79.9961<229.272 374.144>
AnchorPoint: "titik_atas" 1064 624.004 basechar 0
LayerCount: 2
Fore
SplineSet
54.2763671875 522.248046875 m 5
 54.2763671875 522.25390625 l 5
 61.7939453125 522.21484375 46.7783203125 488.443359375 46.7783203125 488.443359375 c 5
 24.6044921875 450.03125 -3.001953125 378.909179688 -3.001953125 351.005859375 c 4
 -3.001953125 222.728515625 104.3828125 144.08984375 204 140.005859375 c 4
 348.3359375 134.088867188 571.219726562 128.8515625 736.205078125 126.904296875 c 5
 736.202148438 126.911132812 707.565429688 186.403320312 707.565429688 199.2578125 c 4
 707.565429688 201.630859375 711.487304688 224.969726562 722.568359375 244.255859375 c 4
 741.666015625 277.497070312 837.866210938 381.640625 917.567382812 445.2578125 c 5
 992.8359375 499.01953125 1054.08886719 517.2578125 1102.56738281 517.2578125 c 4
 1139.70410156 517.2578125 1208.52441406 383.33984375 1191.56738281 287.255859375 c 5
 1177.87207031 239.895507812 1141.17578125 183.150390625 1112.83203125 137.814453125 c 5
 1132.55371094 138.5625 1148.2421875 139.169921875 1158.0546875 139.552734375 c 5
 1158.0546875 140 l 5
 1169.43847656 140 l 6
 1207.97558594 140 1239.21289062 108.760742188 1239.21289062 70.224609375 c 6
 1239.21289062 69.775390625 l 6
 1239.21289062 31.240234375 1207.97558594 0 1169.43847656 0 c 6
 1158.0546875 0 l 5
 1111.99609375 0 l 6
 1092.92089844 -0.6513671875 1073.56445312 0.568359375 1054.5546875 0 c 4
 783.650390625 -8.0927734375 518.782226562 -9.4580078125 235.99609375 0 c 4
 -17.5654296875 8.4814453125 -82.998046875 182.658203125 -82.998046875 241.998046875 c 4
 -82.998046875 321.18359375 18.5712890625 509.9375 53 522 c 4
 53.482421875 522.169921875 53.9072265625 522.248046875 54.2763671875 522.248046875 c 5
967.4921875 361.037109375 m 6
 967.475585938 361.038085938 l 5
 899.047851562 358.348632812 821.584960938 306.927734375 800.5390625 255.270507812 c 5
 808.126953125 191.139648438 876.3828125 141.762695312 915.541015625 131.270507812 c 4
 915.594726562 131.254882812 915.990234375 131.118164062 916.608398438 130.899414062 c 6
 916.884765625 130.899414062 l 5
 950.053710938 122.2109375 983.334960938 120.895507812 1014.29394531 132.125976562 c 5
 1014.33398438 132.125976562 l 5
 1042.95019531 144.1171875 1075.24609375 169.611328125 1097.5546875 208.250976562 c 5
 1097.5546875 209.250976562 l 5
 1089.81835938 275.00390625 1073.20507812 321.10546875 1027.0546875 347.750976562 c 4
 1013.17773438 355.76171875 997.512695312 359.90234375 981.037109375 360.893554688 c 5
 981.037109375 360.912109375 l 5
 976.575195312 361.180664062 972.053710938 361.216796875 967.4921875 361.037109375 c 6
EndSplineSet
Substitution2: "'ss01' Muka Creeper" uni06A1.ss01.fina
EndChar

StartChar: uni06A1.init
Encoding: 213 -1 74
GlifName: uni06A_1.init
Width: 603
GlyphClass: 2
Flags: MW
HStem: 0 140<-64.9329 11.3857 11.5333 503.313> 596.047 127<257.611 388.651>
VStem: 38.3174 104.998<444.398 483.2> 503.313 76.4141<146.264 336.44>
AnchorPoint: "titik_atas" 354.386 830.004 basechar 0
LayerCount: 2
Fore
SplineSet
370.318359375 723.046875 m 4
 406.984375 723.044921875 450.985351562 668.044921875 502.318359375 558.046875 c 4
 549.634765625 459.219726562 580.567382812 362.943359375 579.727539062 249.00390625 c 4
 579.727539062 228.359375 535.311523438 4.044921875 535.311523438 4.044921875 c 5
 11.3857421875 0 l 5
 0 0 l 6
 -38.53515625 0 -69.7724609375 31.240234375 -69.7724609375 69.775390625 c 6
 -69.7724609375 70.224609375 l 6
 -69.7724609375 108.760742188 -38.53515625 140 0 140 c 6
 11.3857421875 140 l 5
 11.3857421875 140 213.459960938 137.12109375 503.313476562 144.046875 c 5
 501.197265625 231.810546875 466.631835938 354.984375 435.240234375 408.04296875 c 5
 370.397460938 328.09765625 378.077148438 330.806640625 364.318359375 317.046875 c 4
 248.78515625 201.513671875 38.3173828125 291.87890625 38.3173828125 371.046875 c 4
 38.3173828125 418.379882812 78.3173828125 488.712890625 158.318359375 582.046875 c 4
 236.985351562 676.046875 307.651367188 723.046875 370.318359375 723.046875 c 4
271.318359375 596.046875 m 5
 214.674804688 586.331054688 168.993164062 535.377929688 143.315429688 486.046875 c 5
 143.315429688 447.98828125 310.685546875 386.099609375 334.408203125 399.794921875 c 4
 339.5390625 402.7578125 407.9609375 445.791992188 413.932617188 456.134765625 c 5
 406.849609375 472.827148438 340.23046875 596.046875 271.318359375 596.046875 c 5
EndSplineSet
Substitution2: "'ss01' Muka Creeper" uni06A1.ss01.init
EndChar

StartChar: uni06A1.medi
Encoding: 214 -1 75
GlifName: uni06A_1.medi
Width: 624
GlyphClass: 2
Flags: MW
HStem: 0 140<-64.4162 150.543 509.741 688.935>
AnchorPoint: "titik_atas" 441.902 663.004 basechar 0
LayerCount: 2
Fore
SplineSet
510.740234375 537.001953125 m 4
 547.875976562 537.001953125 616.698242188 403.083984375 599.741210938 307 c 5
 583.59765625 251.174804688 539.481445312 189.782226562 509.741210938 140 c 5
 612.616210938 140 l 5
 624 140 l 6
 662.536132812 140 693.774414062 108.760742188 693.774414062 70.224609375 c 6
 693.774414062 69.775390625 l 6
 693.774414062 31.240234375 662.536132812 0 624 0 c 6
 612.616210938 0 l 5
 11.90234375 0 l 5
 0.5185546875 0 l 6
 -38.017578125 0 -69.255859375 31.240234375 -69.255859375 69.775390625 c 6
 -69.255859375 70.224609375 l 6
 -69.255859375 108.760742188 -38.017578125 140 0.5185546875 140 c 6
 11.90234375 140 l 5
 150.54296875 140 l 5
 121.110351562 169.43359375 115.740234375 205.116210938 115.740234375 219.001953125 c 4
 115.740234375 221.374023438 119.661132812 244.713867188 130.741210938 264 c 4
 149.838867188 297.241210938 246.038085938 401.384765625 325.740234375 465.001953125 c 5
 401.0078125 518.763671875 462.26171875 537.001953125 510.740234375 537.001953125 c 4
389.225585938 380.642578125 m 4
 317.829101562 384.935546875 231.189453125 330.1015625 208.741210938 275 c 5
 216.328125 210.870117188 284.58203125 161.4921875 323.741210938 151 c 4
 390.41796875 133.133789062 457.692382812 144.77734375 505.740234375 228 c 5
 505.740234375 229 l 5
 498.00390625 294.752929688 481.391601562 340.85546875 435.240234375 367.5 c 4
 421.364257812 375.51171875 405.701171875 379.65234375 389.225585938 380.642578125 c 4
EndSplineSet
Substitution2: "'ss01' Muka Creeper" uni06A1.ss01.medi
EndChar

StartChar: uni06BA
Encoding: 135 1722 76
GlifName: uni06B_A_
Width: 997
GlyphClass: 2
Flags: HMW
HStem: -397.351 140
VStem: 53.0078 68.001
AnchorPoint: "titik_atas" 487 429 basechar 0
AnchorPoint: "titik_bawah" 470 -510 basechar 0
AnchorPoint: "atas" 462 451 basechar 0
AnchorPoint: "cincin" 459 -574 basechar 0
LayerCount: 2
Fore
SplineSet
920.008789062 -55.3505859375 m 0
 918.806640625 -58.3505859375 883.732421875 -159.046875 874.9140625 -172.397460938 c 0
 827.296875 -244.475585938 742.907226562 -300.150390625 700.005859375 -324.350585938 c 1
 700.005859375 -323.350585938 l 1
 606.674804688 -372.68359375 493.341796875 -397.350585938 360.0078125 -397.350585938 c 0
 127.32421875 -397.350585938 53.0078125 -234.354492188 53.0078125 -121.350585938 c 0
 53.0078125 20.1103515625 157.0390625 280.875 205.008789062 290.649414062 c 0
 212.03515625 292.08203125 198.515625 243.84765625 194.006835938 231.649414062 c 0
 169.575195312 165.567382812 121.008789062 42.7431640625 121.008789062 0.6494140625 c 0
 121.008789062 -216.276367188 311.905273438 -253.935546875 424.005859375 -257.350585938 c 0
 514.6953125 -260.112304688 740.994140625 -209.654296875 816.0078125 -136.850585938 c 0
 844.614257812 -109.083984375 860.008789062 -80.3505859375 860.008789062 -48.3505859375 c 0
 860.008789062 95.9208984375 744.33984375 277.31640625 737.0078125 290.649414062 c 1
 787.649414062 382.288085938 801.55078125 408.608398438 819.008789062 442.649414062 c 1
 859.010742188 373.360351562 981.701171875 174.890625 920.008789062 -55.3505859375 c 0
EndSplineSet
MultipleSubs2: "'init' Initial Forms lookup 11-1" uni066E.init
MultipleSubs2: "'medi' Arabic Medial Forms-1" uni066E.medi
MultipleSubs2: "'fina' Arabic Terminal Forms-1" uni06BA.fina
EndChar

StartChar: uni06BA.fina
Encoding: 215 -1 77
GlifName: uni06B_A_.fina
Width: 1021
GlyphClass: 2
Flags: MW
HStem: -416 135<235.868 628.943> 0 139.99<929.901 1085.93>
VStem: 54.957 63.998<-152.063 35.2608> 862.955 227.818<4.83995 109.694>
AnchorPoint: "titik_atas" 487.556 370.351 basechar 0
AnchorPoint: "titik_bawah" 461.556 -520.649 basechar 0
AnchorPoint: "atas" 462.556 392.351 basechar 0
AnchorPoint: "cincin" 450.556 -584.649 basechar 0
LayerCount: 2
Fore
SplineSet
814.953125 396.99609375 m 5
 814.953125 396.990234375 l 5
 858.036132812 333.411132812 913.916015625 186.21875 916.955078125 181.990234375 c 4
 934.677734375 157.322265625 955.041992188 139.990234375 978.951171875 139.990234375 c 6
 1009.6171875 139.990234375 l 5
 1009.6171875 140 l 5
 1021 140 l 6
 1059.53613281 140 1090.7734375 108.760742188 1090.7734375 70.224609375 c 6
 1090.7734375 69.775390625 l 6
 1090.7734375 31.240234375 1059.53613281 0 1021 0 c 6
 1009.6171875 0 l 5
 939.951171875 0 l 5
 923.755859375 -62.0380859375 914.153320312 -135.946289062 875.95703125 -189 c 5
 810.174804688 -296.201171875 643.13671875 -416 362.953125 -416 c 4
 294.135742188 -416 200.33203125 -402.154296875 129.953125 -331 c 4
 79.224609375 -279.711914062 54.95703125 -216 54.95703125 -142 c 4
 54.95703125 4.373046875 143.556640625 186.6875 167.95703125 227 c 4
 183.287109375 252.333984375 187.9609375 260.741210938 207.951171875 272 c 4
 227.9453125 283.259765625 198.956054688 218.174804688 196.95703125 212 c 4
 174.517578125 142.763671875 118.955078125 37.4814453125 118.955078125 -18 c 4
 118.955078125 -253.877929688 329.240234375 -281 425.955078125 -281 c 4
 504.373046875 -281 862.955078125 -203.971679688 862.955078125 -67 c 4
 865.616210938 50.4111328125 799.701171875 145.620117188 743.95703125 243 c 5
 765.752929688 291.727539062 789.959960938 344.235351562 814.953125 396.99609375 c 5
EndSplineSet
EndChar

StartChar: uni066F
Encoding: 68 1647 78
GlifName: uni066F_
Width: 900
GlyphClass: 2
Flags: HMW
HStem: -459.006 150 343.994 154
AnchorPoint: "titik_atas" 636 569 basechar 0
LayerCount: 2
Fore
SplineSet
644.998046875 497.994140625 m 0
 666.224609375 497.994140625 696.954101562 483.34375 725.600585938 451.74609375 c 0
 796.575195312 373.462890625 868.836914062 203.413085938 854.99609375 -16.005859375 c 0
 853.698242188 -36.5771484375 833.248046875 -143.881835938 822.49609375 -162.505859375 c 0
 808.3515625 -187.00390625 799.663085938 -212.671875 784.99609375 -234.004882812 c 0
 667.760742188 -404.184570312 449.127929688 -455.22265625 240.998046875 -459.005859375 c 0
 38.9287109375 -459.005859375 -89.0009765625 -372.89453125 -89.0009765625 -195.005859375 c 0
 -89.0009765625 -119.091796875 -26.984375 77.79296875 35.98828125 154.97265625 c 0
 45.0283203125 166.052734375 52.9384765625 173.358398438 58.86328125 175.43359375 c 0
 69.169921875 179.044921875 52.6396484375 141.872070312 52.6396484375 141.872070312 c 1
 12.34375 72.0673828125 -144.669921875 -309.005859375 308.998046875 -309.005859375 c 0
 350.434570312 -309.005859375 685.865234375 -269.805664062 781.998046875 -139.005859375 c 1
 813.619140625 -35.1220703125 781.49609375 75.494140625 761.997070312 134.994140625 c 1
 729.330078125 74.328125 694.662109375 32.9951171875 657.99609375 10.994140625 c 0
 629.997070312 -3.671875 590.998046875 -11.005859375 540.998046875 -11.005859375 c 0
 488.999023438 -11.005859375 454.331054688 4.994140625 436.99609375 36.994140625 c 0
 408.295898438 86.701171875 415.088867188 167.590820312 414.999023438 179.994140625 c 0
 414.321289062 278.11328125 561.181640625 497.994140625 644.998046875 497.994140625 c 0
605.997070312 343.994140625 m 0
 555.25390625 343.994140625 498.14453125 299.41015625 469.998046875 221.994140625 c 1
 485.2421875 182.541015625 507.729492188 155.990234375 574.328125 148.14453125 c 0
 664.798828125 137.487304688 687.8984375 158.208984375 732 207.994140625 c 1
 732 207.994140625 685.049804688 343.994140625 605.997070312 343.994140625 c 0
EndSplineSet
Substitution2: "'ss01' Muka Creeper" uni066F.ss01
MultipleSubs2: "'init' Initial Forms lookup 11-1" uni06A1.init
MultipleSubs2: "'medi' Arabic Medial Forms-1" uni06A1.medi
MultipleSubs2: "'fina' Arabic Terminal Forms-1" uni066F.fina
EndChar

StartChar: uni066F.fina
Encoding: 216 -1 79
GlifName: uni066F_.fina
Width: 893
GlyphClass: 2
Flags: MW
HStem: -473.501 150<88.4722 516.149> 0 140.002<534.109 766.152 847.439 957.934> 342.598 145.4<575.696 660.998 660.999 675.468>
VStem: 766.152 88.0361<138.975 232.858>
AnchorPoint: "titik_atas" 630.998 591.004 basechar 0
LayerCount: 2
Fore
SplineSet
660.998046875 487.998046875 m 1
 660.999023438 488.001953125 l 1
 765.0703125 488.000976562 844.7265625 232.245117188 854.188476562 138.974609375 c 1
 864.190429688 139.389648438 873.401367188 139.708984375 881.614257812 139.875 c 1
 881.614257812 140.001953125 l 1
 892.999023438 140.001953125 l 2
 893.063476562 140.001953125 893.127929688 140.000976562 893.188476562 139.990234375 c 0
 931.635742188 139.888671875 962.7734375 108.697265625 962.7734375 70.224609375 c 2
 962.7734375 69.775390625 l 2
 962.7734375 31.240234375 931.536132812 0 893 0 c 0
 882.163085938 0 867.239257812 -0.1552734375 849.662109375 -0.3662109375 c 1
 843.872070312 -41.5517578125 814.491210938 -173.841796875 806.76171875 -192.249023438 c 0
 801.499023438 -204.782226562 792.080078125 -222.366210938 774.111328125 -248.500976562 c 0
 656.876953125 -418.680664062 438.244140625 -469.71875 230.11328125 -473.500976562 c 0
 28.044921875 -473.500976562 -99.884765625 -387.390625 -99.884765625 -209.500976562 c 0
 -99.884765625 -133.587890625 -37.869140625 63.296875 25.1044921875 140.477539062 c 0
 34.14453125 151.556640625 42.0546875 158.862304688 47.978515625 160.9375 c 0
 58.28515625 164.548828125 41.755859375 127.375976562 41.755859375 127.375976562 c 1
 1.4599609375 57.5712890625 -155.553710938 -323.500976562 298.11328125 -323.500976562 c 0
 339.55078125 -323.500976562 674.98046875 -284.302734375 771.11328125 -153.502929688 c 0
 772.95703125 -146.623046875 783.071289062 -98.470703125 781.880859375 -1.1474609375 c 1
 694.633789062 -1.9833984375 590.819335938 -1.9013671875 563.12890625 5.5185546875 c 0
 452.690429688 35.1103515625 419.162109375 137.624023438 477.934570312 287.133789062 c 0
 542.509765625 451.41015625 630.075195312 487.998046875 660.998046875 487.998046875 c 1
605.31640625 342.59765625 m 0
 599.551757812 342.41015625 594.081054688 340.930664062 588.998046875 337.99609375 c 0
 528.563476562 303.103515625 494.568359375 243.703125 524.998046875 190.99609375 c 1
 579.522460938 122.102539062 687.83984375 132.950195312 766.15234375 134.905273438 c 1
 744.045898438 225.57421875 661.037109375 344.41015625 605.31640625 342.59765625 c 0
EndSplineSet
EndChar

StartChar: ttx2Axb
Encoding: 159 64446 84
GlifName: ttx2A_xb
Width: 0
GlyphClass: 4
Flags: HMW
HStem: 0 196<0 98 98 196 0 98> 292 196<0 99 99 196 0 99>
VStem: 0 196<0 196 0 196 292 488>
AnchorPoint: "titik_bawah" 97 486 mark 0
LayerCount: 2
Fore
SplineSet
196 488 m 1
 196 292 l 1
 0 292 l 1
 0 488 l 1
 99 488 l 1
 196 488 l 1
196 196 m 1
 196 0 l 1
 0 0 l 1
 0 196 l 1
 98 196 l 1
 196 196 l 1
EndSplineSet
MultipleSubs2: "'ccmp' Titik" uni25CC ttx2Axb
Position2: "Single Pos Titik Reset-1" dx=0 dy=0 dh=0 dv=0
EndChar

StartChar: hamzahKecilAtas
Encoding: 54 1620 87
GlifName: hamzahK_ecilA_tas
Width: 388
GlyphClass: 4
Flags: W
HStem: 94 51<202.469 332.999> 270 51<142.523 263.513>
VStem: 37.001 331.998
AnchorPoint: "atas" 194 0 mark 0
LayerCount: 2
Fore
SplineSet
332.999023438 94 m 1
 253.091796875 96.8701171875 207.481445312 76.51171875 72 2 c 0
 59.0517578125 -5.12109375 101.786132812 36.7841796875 109.000976562 43 c 0
 130.704101562 61.7041015625 193.999023438 98 193.999023438 98 c 1
 141.463867188 98.85546875 65.3037109375 99.201171875 37.0009765625 143 c 1
 38.47265625 181.280273438 62.56640625 220.818359375 89 253 c 0
 118.360351562 284.318359375 166.00390625 319.366210938 233 321 c 1
 262.095703125 317.551757812 273.124023438 309.227539062 283 287 c 0
 285.962890625 271.060546875 268.334960938 243 267.000976562 241 c 1
 251.407226562 258.822265625 232.463867188 270 197 270 c 0
 154.26171875 266.805664062 100.625976562 258.9609375 82.0009765625 215 c 1
 88.4140625 163.596679688 150.081054688 159.477539062 196.853515625 152.946289062 c 0
 256.504882812 145.309570312 324.484375 145 368.999023438 145 c 1
 332.999023438 94 l 1
EndSplineSet
MultipleSubs2: "'ccmp' Tasykil" uni25CC hamzahKecilAtas
EndChar

StartChar: hamzahKecilBawah
Encoding: 55 1621 88
GlifName: hamzahK_ecilB_awah
Width: 388
GlyphClass: 4
Flags: HMW
HStem: 94 51<332.999 368.999> 270 51
AnchorPoint: "bawah" 200 336 mark 0
LayerCount: 2
Fore
SplineSet
332.999023438 94 m 1
 253.091796875 96.8701171875 207.481445312 76.51171875 72 2 c 0
 59.0517578125 -5.12109375 101.786132812 36.7841796875 109.000976562 43 c 0
 130.704101562 61.7041015625 193.999023438 98 193.999023438 98 c 1
 141.463867188 98.85546875 65.3037109375 99.201171875 37.0009765625 143 c 1
 38.47265625 181.280273438 62.56640625 220.818359375 89 253 c 0
 118.360351562 284.318359375 166.00390625 319.366210938 233 321 c 1
 262.095703125 317.551757812 273.124023438 309.227539062 283 287 c 0
 285.962890625 271.060546875 268.334960938 243 267.000976562 241 c 1
 251.407226562 258.822265625 232.463867188 270 197 270 c 0
 154.26171875 266.805664062 100.625976562 258.9609375 82.0009765625 215 c 1
 88.4140625 163.596679688 150.081054688 159.477539062 196.853515625 152.946289062 c 0
 256.504882812 145.309570312 324.484375 145 368.999023438 145 c 1
 332.999023438 94 l 1
EndSplineSet
MultipleSubs2: "'ccmp' Tasykil" uni25CC hamzahKecilBawah
EndChar

StartChar: NameMe.99
Encoding: 217 -1 89
GlifName: N_ameM_e.99
Width: 2
GlyphClass: 2
Flags: W
HStem: 102.584 161.328<-284 -223.318 -111.311 -50.6699> 156 170.518<-223.318 -111.311> 326.877 110.709<-335.322 -223.318 -111.311 0.693359>
VStem: -335.322 112.004<326.877 437.586> -284 60.6816<102.584 156> -111.311 112.004<326.877 437.586> -111.311 60.6406<102.584 156>
LayerCount: 2
Fore
SplineSet
-335.322265625 437.5859375 m 1x30
 -223.318359375 437.5859375 l 1
 -223.318359375 326.876953125 l 1
 -335.322265625 326.876953125 l 1
 -335.322265625 437.5859375 l 1x30
-111.310546875 437.5859375 m 1x24
 0.693359375 437.5859375 l 1
 0.693359375 326.876953125 l 1
 -111.310546875 326.876953125 l 1
 -111.310546875 437.5859375 l 1x24
-223.318359375 326.517578125 m 1x6a
 -111.310546875 326.517578125 l 1x6a
 -111.310546875 263.912109375 l 1
 -50.669921875 263.912109375 l 1
 -50.669921875 102.583984375 l 1
 -111.310546875 102.583984375 l 1xaa
 -111.310546875 156 l 1
 -223.318359375 156 l 1x6a
 -223.318359375 102.583984375 l 1
 -284 102.583984375 l 1
 -284 263.912109375 l 1
 -223.318359375 263.912109375 l 1xaa
 -223.318359375 326.517578125 l 1x6a
EndSplineSet
EndChar

StartChar: ttx1xa
Encoding: 148 64434 90
GlifName: ttx1xa
Width: 293
GlyphClass: 4
Flags: W
HStem: 9.99512 187.028
VStem: 49.7607 193.478
AnchorPoint: "titik_atas" 175 0 mark 0
LayerCount: 2
Fore
SplineSet
118.763671875 197.0234375 m 1
 243.23828125 119.99609375 l 1
 231.241210938 101.631835938 208.241210938 64.96484375 174.23828125 9.9951171875 c 1
 164.108398438 16.064453125 122.616210938 40.4072265625 49.7607421875 83.0224609375 c 1
 81.306640625 135.591796875 104.307617188 173.592773438 118.763671875 197.0234375 c 1
EndSplineSet
MultipleSubs2: "'ccmp' Titik" uni25CC ttx1xa
Position2: "Single Pos Titik Reset-1" dx=0 dy=0 dh=0 dv=0
EndChar

StartChar: ttx2xa
Encoding: 150 64436 91
GlifName: ttx2xa
Width: 474
GlyphClass: 4
Flags: W
HStem: 9.99512 186.952
VStem: 40.583 392.835
AnchorPoint: "titik_atas" 246 0 mark 0
LayerCount: 2
Fore
SplineSet
109.584960938 196.947265625 m 1
 234.060546875 119.919921875 l 1
 234.01953125 119.857421875 233.978515625 119.794921875 233.9375 119.732421875 c 1
 254.767578125 107.706054688 l 1
 278.78515625 147.639648438 296.84375 177.412109375 308.943359375 197.022460938 c 1
 433.41796875 119.99609375 l 1
 421.466796875 101.702148438 398.466796875 65.03515625 364.418945312 9.9951171875 c 1
 355.158203125 15.5439453125 319.91015625 36.2333984375 258.673828125 72.0625 c 1
 258.5859375 71.9462890625 l 1
 239.940429688 83.021484375 l 1
 218.399414062 95.4580078125 l 1
 205.522460938 75.09765625 187.743164062 46.5849609375 165.061523438 9.9189453125 c 1
 154.956054688 15.974609375 113.462890625 40.3173828125 40.5830078125 82.947265625 c 1
 72.10546875 135.478515625 95.10546875 173.478515625 109.584960938 196.947265625 c 1
EndSplineSet
MultipleSubs2: "'ccmp' Titik" uni25CC ttx2xa
Position2: "Single Pos Titik Reset-1" dx=0 dy=0 dh=0 dv=0
EndChar

StartChar: ttx3xa
Encoding: 152 64438 92
GlifName: ttx3xa
Width: 496
GlyphClass: 4
Flags: W
HStem: 9.99414 394.056
VStem: 51.5811 392.835
AnchorPoint: "titik_atas" 246 0 mark 0
LayerCount: 2
Fore
SplineSet
179.002929688 404.049804688 m 1
 303.4765625 327.022460938 l 1
 291.48046875 308.658203125 268.481445312 271.991210938 234.478515625 217.021484375 c 1
 224.348632812 223.090820312 182.85546875 247.43359375 109.999023438 290.048828125 c 1
 141.49609375 342.5390625 164.498046875 380.540039062 179.002929688 404.049804688 c 1
120.584960938 196.946289062 m 1
 245.059570312 119.918945312 l 1
 245.018554688 119.856445312 244.977539062 119.793945312 244.936523438 119.731445312 c 1
 265.766601562 107.705078125 l 1
 289.766601562 147.611328125 307.825195312 177.383789062 319.94140625 197.021484375 c 1
 444.416015625 119.995117188 l 1
 432.46484375 101.701171875 409.46484375 65.0341796875 375.416015625 9.994140625 c 1
 366.15625 15.54296875 330.908203125 36.232421875 269.671875 72.0615234375 c 1
 269.583984375 71.9453125 l 1
 250.938476562 83.0205078125 l 1
 229.3984375 95.45703125 l 1
 216.522460938 75.0986328125 198.743164062 46.5859375 176.060546875 9.9189453125 c 1
 165.946289062 15.978515625 124.453125 40.3212890625 51.5810546875 82.9462890625 c 1
 83.076171875 135.43359375 106.077148438 173.43359375 120.584960938 196.946289062 c 1
EndSplineSet
MultipleSubs2: "'ccmp' Titik" uni25CC ttx3xa
Position2: "Single Pos Titik Reset-1" dx=0 dy=0 dh=0 dv=0
EndChar

StartChar: ttx4xa
Encoding: 156 64442 93
GlifName: ttx4xa
Width: 560
GlyphClass: 4
Flags: W
HStem: 0 363.298
VStem: 61.4785 437.521
AnchorPoint: "titik_atas" 277 0 mark 0
LayerCount: 2
Fore
SplineSet
130.482421875 363.297851562 m 1
 254.958007812 286.271484375 l 1
 254.916992188 286.208984375 254.875976562 286.146484375 254.834960938 286.083007812 c 1
 275.665039062 274.056640625 l 1
 299.671875 313.973632812 317.73046875 343.74609375 329.840820312 363.374023438 c 1
 454.315429688 286.34765625 l 1
 442.569335938 268.3671875 420.166015625 232.665039062 387.106445312 179.240234375 c 1
 498.999023438 109.999023438 l 1
 487.056640625 91.7197265625 464.056640625 55.0537109375 429.999023438 0 c 1
 420.823242188 5.498046875 385.575195312 26.1875 324.25390625 62.0673828125 c 1
 324.165039062 61.9501953125 l 1
 305.51953125 73.0263671875 l 1
 283.979492188 85.462890625 l 1
 271.10546875 65.1064453125 253.326171875 36.59375 230.641601562 -0.076171875 c 1
 220.568359375 5.9599609375 179.075195312 30.3017578125 106.162109375 72.9501953125 c 1
 136.2890625 123.157226562 158.64453125 160.110351562 173.229492188 183.809570312 c 1
 154.076171875 195.096679688 116.826171875 216.926757812 61.478515625 249.299804688 c 1
 92.9853515625 301.8046875 115.987304688 339.802734375 130.482421875 363.297851562 c 1
260.8359375 249.375976562 m 1
 239.294921875 261.8125 l 1
 226.758789062 241.991210938 209.576171875 214.442382812 187.747070312 179.166015625 c 1
 299.640625 109.924804688 l 1
 299.599609375 109.862304688 299.55859375 109.799804688 299.517578125 109.737304688 c 1
 320.34765625 97.7109375 l 1
 343.125976562 135.584960938 360.5390625 164.309570312 372.586914062 183.885742188 c 1
 355.69921875 193.836914062 324.693359375 212.013671875 279.569335938 238.416015625 c 1
 279.48046875 238.298828125 l 1
 260.8359375 249.375976562 l 1
EndSplineSet
MultipleSubs2: "'ccmp' Titik" uni25CC ttx4xa
Position2: "Single Pos Titik Reset-1" dx=0 dy=0 dh=0 dv=0
EndChar

StartChar: ttx2Axa
Encoding: 158 64445 94
GlifName: ttx2A_xa
Width: 0
GlyphClass: 4
Flags: HMW
HStem: 0 196<0 98 98 196 0 98> 292 196<0 99 99 196 0 99>
VStem: 0 196<0 196 0 196 292 488>
AnchorPoint: "titik_atas" 97 0 mark 0
LayerCount: 2
Fore
SplineSet
196 488 m 1
 196 292 l 1
 0 292 l 1
 0 488 l 1
 99 488 l 1
 196 488 l 1
196 196 m 1
 196 0 l 1
 0 0 l 1
 0 196 l 1
 98 196 l 1
 196 196 l 1
EndSplineSet
MultipleSubs2: "'ccmp' Titik" uni25CC ttx2Axa
Position2: "Single Pos Titik Reset-1" dx=0 dy=0 dh=0 dv=0
EndChar

StartChar: ttx3Axa
Encoding: 154 64440 95
GlifName: ttx3A_xa
Width: 560
GlyphClass: 4
Flags: W
HStem: 0 394.128
VStem: 47.585 392.836
AnchorPoint: "titik_atas" 277 0 mark 0
LayerCount: 2
Fore
SplineSet
313 0 m 1
 188.524414062 77.0263671875 l 1
 200.517578125 95.3857421875 223.517578125 132.052734375 257.5234375 187.026367188 c 1
 267.709960938 180.922851562 309.202148438 156.581054688 382.000976562 114 c 1
 350.532226562 61.5556640625 327.532226562 23.5556640625 313 0 c 1
241.0625 321.026367188 m 1
 262.603515625 308.58984375 l 1
 275.486328125 328.958007812 293.265625 357.470703125 315.94140625 394.127929688 c 1
 326.05078125 388.0703125 367.543945312 363.728515625 440.420898438 321.102539062 c 1
 408.927734375 268.619140625 385.926757812 230.619140625 371.41796875 207.102539062 c 1
 246.942382812 284.12890625 l 1
 246.983398438 284.19140625 247.024414062 284.25390625 247.065429688 284.317382812 c 1
 226.235351562 296.34375 l 1
 202.228515625 256.426757812 184.169921875 226.654296875 172.059570312 207.026367188 c 1
 47.5849609375 284.053710938 l 1
 59.52734375 302.333007812 82.52734375 338.999023438 116.584960938 394.052734375 c 1
 125.760742188 388.5546875 161.008789062 367.865234375 222.330078125 331.985351562 c 1
 222.418945312 332.102539062 l 1
 241.0625 321.026367188 l 1
EndSplineSet
MultipleSubs2: "'ccmp' Titik" uni25CC ttx3Axa
Position2: "Single Pos Titik Reset-1" dx=0 dy=0 dh=0 dv=0
EndChar

StartChar: uni25CC
Encoding: 147 9676 96
GlifName: uni25C_C_
Width: 992
GlyphClass: 2
Flags: HMW
HStem: 32 132.312 80.9375 132.312 229.562 134.125 427.125 132.312 626.5 134.125<135.042 165.25> 775.125 132.312 822.25 134.125
VStem: 31.125 128.688 81.875 126.875<685.103 705.645> 223.25 126.875 415.375 126.875 607.5 126.875 748.875 126.875 797.812 128.688
AnchorPoint: "atas" 475 1088 basechar 0
AnchorPoint: "bawah" 475 -93 basechar 0
AnchorPoint: "cincin" 480 500 basechar 0
LayerCount: 2
Fore
SplineSet
143.5 626.5 m 0x38f0
 126.583007812 626.5 112.083007812 632.842773438 100 645.530273438 c 0
 87.9169921875 658.217773438 81.875 674.83203125 81.875 695.374023438 c 0
 81.875 715.916015625 87.9169921875 731.926757812 100 743.40625 c 0
 112.083007812 754.885742188 126.583007812 760.625 143.5 760.625 c 0
 187 760.625 208.75 738.875 208.75 695.375 c 0
 208.75 649.458007812 187 626.5 143.5 626.5 c 0x38f0
861.25 427.124023438 m 0
 843.125 427.124023438 828.01953125 433.166992188 815.936523438 445.25 c 0
 803.853515625 457.333007812 797.811523438 473.645507812 797.811523438 494.1875 c 0
 797.811523438 537.6875 818.95703125 559.4375 861.249023438 559.4375 c 0
 879.374023438 559.4375 894.780273438 553.698242188 907.467773438 542.21875 c 0
 920.155273438 530.739257812 926.499023438 514.728515625 926.499023438 494.186523438 c 0x3874
 926.499023438 473.64453125 920.45703125 457.33203125 908.374023438 445.249023438 c 0
 896.291015625 433.166015625 880.583007812 427.124023438 861.25 427.124023438 c 0
476.999023438 822.25 m 0x3a70
 458.874023438 822.25 444.072265625 828.291992188 432.592773438 840.375 c 0
 421.11328125 852.458007812 415.374023438 869.375 415.374023438 891.125 c 0
 415.374023438 911.666992188 421.11328125 927.677734375 432.592773438 939.157226562 c 0
 444.072265625 950.63671875 458.874023438 956.375976562 476.999023438 956.375976562 c 0
 496.33203125 956.375976562 512.040039062 950.63671875 524.123046875 939.157226562 c 0
 536.206054688 927.677734375 542.248046875 911.666992188 542.248046875 891.125 c 0
 542.248046875 869.375 536.206054688 852.458007812 524.123046875 840.375 c 0
 512.040039062 828.291992188 496.33203125 822.25 476.999023438 822.25 c 0x3a70
92.7490234375 427.125 m 0
 75.83203125 427.125 61.33203125 433.166015625 49.2490234375 445.249023438 c 0
 37.166015625 457.33203125 31.1240234375 473.64453125 31.1240234375 494.186523438 c 0
 31.1240234375 514.728515625 37.166015625 530.739257812 49.2490234375 542.21875 c 0
 61.33203125 553.698242188 75.83203125 559.4375 92.7490234375 559.4375 c 0
 137.45703125 559.4375 159.811523438 537.6875 159.811523438 494.1875 c 0x3970
 159.811523438 473.645507812 153.76953125 457.333007812 141.686523438 445.25 c 0
 129.603515625 433.166992188 113.291015625 427.125 92.7490234375 427.125 c 0
812.311523438 229.561523438 m 0
 794.186523438 229.561523438 779.08203125 235.604492188 766.999023438 247.6875 c 0
 754.916015625 259.770507812 748.874023438 275.478515625 748.874023438 294.811523438 c 0
 748.874023438 315.353515625 754.916015625 331.967773438 766.999023438 344.655273438 c 0
 779.08203125 357.342773438 794.186523438 363.686523438 812.311523438 363.686523438 c 0
 830.436523438 363.686523438 845.541015625 357.64453125 857.624023438 345.561523438 c 0
 869.70703125 333.478515625 875.749023438 316.561523438 875.749023438 294.811523438 c 0x3878
 875.749023438 251.311523438 854.603515625 229.561523438 812.311523438 229.561523438 c 0
143.499023438 229.5625 m 0
 126.58203125 229.5625 112.08203125 235.606445312 99.9990234375 247.689453125 c 0
 87.916015625 259.772460938 81.8740234375 275.48046875 81.8740234375 294.813476562 c 0
 81.8740234375 315.35546875 87.916015625 331.969726562 99.9990234375 344.657226562 c 0
 112.08203125 357.344726562 126.58203125 363.688476562 143.499023438 363.688476562 c 0
 162.83203125 363.688476562 178.540039062 357.646484375 190.623046875 345.563476562 c 0
 202.706054688 333.48046875 208.748046875 316.563476562 208.748046875 294.813476562 c 0x38f0
 208.748046875 274.271484375 202.706054688 258.260742188 190.623046875 246.78125 c 0
 178.540039062 235.301757812 162.83203125 229.5625 143.499023438 229.5625 c 0
669.124023438 773.314453125 m 0
 652.20703125 773.314453125 637.70703125 779.658203125 625.624023438 792.345703125 c 0
 613.541015625 805.033203125 607.499023438 821.043945312 607.499023438 840.376953125 c 0
 607.499023438 860.918945312 613.541015625 877.231445312 625.624023438 889.314453125 c 0
 637.70703125 901.397460938 652.20703125 907.439453125 669.124023438 907.439453125 c 0x3c70
 688.45703125 907.439453125 704.165039062 901.397460938 716.248046875 889.314453125 c 0
 728.331054688 877.231445312 734.373046875 860.918945312 734.373046875 840.376953125 c 0
 734.373046875 819.834960938 728.331054688 803.522460938 716.248046875 791.439453125 c 0
 704.165039062 779.356445312 688.45703125 773.314453125 669.124023438 773.314453125 c 0
284.874023438 80.939453125 m 0x7870
 266.749023438 80.939453125 251.948242188 86.9814453125 240.46875 99.064453125 c 0
 228.989257812 111.147460938 223.25 128.064453125 223.25 149.814453125 c 0
 223.25 170.356445312 228.989257812 186.064453125 240.46875 196.939453125 c 0
 251.948242188 207.814453125 266.75 213.251953125 284.875 213.251953125 c 0
 304.208007812 213.251953125 319.916015625 207.814453125 331.999023438 196.939453125 c 0
 344.08203125 186.064453125 350.124023438 170.356445312 350.124023438 149.814453125 c 0
 350.124023438 103.897460938 328.374023438 80.939453125 284.874023438 80.939453125 c 0x7870
669.125 80.939453125 m 0
 652.208007812 80.939453125 637.708984375 86.9814453125 625.625976562 99.064453125 c 0
 613.54296875 111.147460938 607.500976562 128.064453125 607.500976562 149.814453125 c 0
 607.500976562 169.147460938 613.54296875 184.553710938 625.625976562 196.033203125 c 0
 637.708984375 207.512695312 652.208984375 213.251953125 669.125976562 213.251953125 c 0
 688.458984375 213.251953125 704.166992188 207.814453125 716.25 196.939453125 c 0
 728.333007812 186.064453125 734.375 170.356445312 734.375 149.814453125 c 0
 734.375 103.897460938 712.625 80.939453125 669.125 80.939453125 c 0
812.313476562 626.501953125 m 0
 794.188476562 626.501953125 779.083984375 632.543945312 767.000976562 644.626953125 c 0
 754.91796875 656.709960938 748.875976562 673.022460938 748.875976562 693.564453125 c 0
 748.875976562 714.106445312 754.91796875 730.1171875 767.000976562 741.596679688 c 0
 779.083984375 753.076171875 794.188476562 758.815429688 812.313476562 758.815429688 c 0
 830.438476562 758.815429688 845.54296875 753.076171875 857.625976562 741.596679688 c 0
 869.708984375 730.1171875 875.750976562 714.106445312 875.750976562 693.564453125 c 0x3878
 875.750976562 648.856445312 854.60546875 626.501953125 812.313476562 626.501953125 c 0
477.000976562 32.001953125 m 0xb870
 458.875976562 32.001953125 444.07421875 38.0439453125 432.594726562 50.126953125 c 0
 421.115234375 62.2099609375 415.375976562 78.5224609375 415.375976562 99.064453125 c 0
 415.375976562 119.606445312 421.115234375 135.6171875 432.594726562 147.096679688 c 0
 444.07421875 158.576171875 458.875976562 164.315429688 477.000976562 164.315429688 c 0
 496.333984375 164.315429688 512.041992188 158.576171875 524.125 147.096679688 c 0
 536.208007812 135.6171875 542.25 119.606445312 542.25 99.064453125 c 0
 542.25 77.314453125 536.208007812 60.7001953125 524.125 49.220703125 c 0
 512.041992188 37.7412109375 496.333984375 32.001953125 477.000976562 32.001953125 c 0xb870
284.875976562 775.126953125 m 0x3c70
 266.750976562 775.126953125 251.94921875 781.168945312 240.469726562 793.251953125 c 0
 228.990234375 805.334960938 223.250976562 821.04296875 223.250976562 840.375976562 c 0
 223.250976562 885.083984375 243.79296875 907.438476562 284.875976562 907.438476562 c 0
 304.208984375 907.438476562 319.916992188 901.69921875 332 890.219726562 c 0
 344.083007812 878.740234375 350.125 862.125976562 350.125 840.375976562 c 0
 350.125 821.04296875 344.083007812 805.334960938 332 793.251953125 c 0
 319.916992188 781.168945312 304.208984375 775.126953125 284.875976562 775.126953125 c 0x3c70
EndSplineSet
EndChar

StartChar: toKecilBawah
Encoding: 161 64448 97
GlifName: toK_ecilB_awah
Width: 560
GlyphClass: 4
Flags: HMW
HStem: 0 104<27 141 247 427.999 27 141> 167.761 106.239
VStem: 141 105<274 405 274 405 274 405> 428 105
AnchorPoint: "bawah" 267 456 mark 0
LayerCount: 2
Fore
SplineSet
246 405 m 1
 246 274 l 1
 497 274 l 1
 497 238 l 1
 533 238 l 1
 533 0 l 1
 27 0 l 1
 27 104 l 1
 141 104 l 1
 141 405 l 1
 194 405 l 1
 246 405 l 1
247 104 m 1
 427.999023438 104 l 1
 427.999023438 168 l 1
 404.999023438 168 l 2
 389.666015625 168 371.759765625 167.919921875 351.280273438 167.760742188 c 2
 280.719726562 167.760742188 l 1
 246.879882812 167.760742188 l 1
 246.879882812 136.080078125 l 2
 246.959960938 125.360351562 247 114.666992188 247 104 c 1
EndSplineSet
MultipleSubs2: "'ccmp' Tasykil" uni25CC toKecilBawah
EndChar

StartChar: toKecilAtas
Encoding: 13 1557 98
AltUni2: 00fbc1.ffffffff.0 00fbc1.ffffffff.0
GlifName: toK_ecilA_tas
Width: 560
GlyphClass: 4
Flags: HMW
HStem: 0 104.4 167.761 105.84
VStem: 141.04 105.12 428.32 104.399
AnchorPoint: "atas" 277 0 mark 0
LayerCount: 2
Fore
SplineSet
246.16015625 405.360351562 m 1
 246.16015625 273.600585938 l 1
 497.439453125 273.600585938 l 1
 497.439453125 237.600585938 l 1
 532.719726562 237.600585938 l 1
 532.719726562 0 l 1
 27.2802734375 0 l 1
 27.2802734375 104.400390625 l 1
 141.040039062 104.400390625 l 1
 141.040039062 405.360351562 l 1
 193.599609375 405.360351562 l 1
 246.16015625 405.360351562 l 1
246.879882812 104.400390625 m 1
 428.3203125 104.400390625 l 1
 428.3203125 167.760742188 l 1
 404.559570312 167.760742188 l 1
 351.280273438 167.760742188 l 1
 280.719726562 167.760742188 l 1
 246.879882812 167.760742188 l 1
 246.879882812 136.080078125 l 1
 246.879882812 104.400390625 l 1
EndSplineSet
MultipleSubs2: "'ccmp' Tasykil" uni25CC toKecilAtas
EndChar

StartChar: cincinKecil
Encoding: 160 64447 119
GlifName: cincinK_ecil
Width: 560
GlyphClass: 4
Flags: HMW
HStem: 58 65<164 402 164 471> 356 72<164 280 280 282 164 164 282 402>
VStem: 93 71<123 356 123 428> 402 69<123 356 356 356>
AnchorPoint: "cincin" 280 250 mark 0
LayerCount: 2
Fore
SplineSet
471 428 m 1
 471 58 l 1
 93 58 l 1
 93 428 l 1
 280 428 l 1
 471 428 l 1
402 356 m 1
 282 356 l 1
 164 356 l 1
 164 123 l 1
 402 123 l 1
 402 356 l 1
EndSplineSet
MultipleSubs2: "'ccmp' Tasykil" uni25CC cincinKecil
EndChar

StartChar: tandaVAtas
Encoding: 56 1626 120
GlifName: tandaV_A_tas
Width: 2
GlyphClass: 4
Flags: W
HStem: 102.584 161.328<-284 -223.318 -111.311 -50.6699> 156 171<-223 -111.311> 327 111<-335 -223 -111 1>
VStem: -335 112<327 438> -284 60.6816<102.584 156> -111.311 60.6406<102.584 156> -111 112<327 438>
AnchorPoint: "atas" -166 66 mark 0
LayerCount: 2
Fore
SplineSet
-335 438 m 1x30
 -223 438 l 1x30
 -223 327 l 1x50
 -335 327 l 1
 -335 438 l 1x30
-111 438 m 1x22
 1 438 l 1
 1 327 l 1
 -111 327 l 1
 -111 438 l 1x22
-223 327 m 1x50
 -111.310546875 326.517578125 l 1
 -111.310546875 263.912109375 l 1
 -50.669921875 263.912109375 l 1
 -50.669921875 102.583984375 l 1
 -111.310546875 102.583984375 l 1x94
 -111.310546875 156 l 1
 -223.318359375 156 l 1x4c
 -223.318359375 102.583984375 l 1
 -284 102.583984375 l 1
 -284 263.912109375 l 1
 -223.318359375 263.912109375 l 1x8c
 -223 327 l 1x50
EndSplineSet
EndChar

StartChar: tandaVBawah
Encoding: 57 1627 121
GlifName: tandaV_B_awah
Width: 2
GlyphClass: 4
Flags: W
HStem: 102.584 161.328<-284 -223.318 -111.311 -50.6699> 156 171<-223 -111.311> 327 111<-335 -223 -111 1>
VStem: -335 112<327 438> -284 60.6816<102.584 156> -111.311 60.6406<102.584 156> -111 112<327 438>
AnchorPoint: "bawah" -171 474 mark 0
LayerCount: 2
Fore
SplineSet
-335 438 m 1x30
 -223 438 l 1x30
 -223 327 l 1x50
 -335 327 l 1
 -335 438 l 1x30
-111 438 m 1x22
 1 438 l 1
 1 327 l 1
 -111 327 l 1
 -111 438 l 1x22
-223 327 m 1x50
 -111.310546875 326.517578125 l 1
 -111.310546875 263.912109375 l 1
 -50.669921875 263.912109375 l 1
 -50.669921875 102.583984375 l 1
 -111.310546875 102.583984375 l 1x94
 -111.310546875 156 l 1
 -223.318359375 156 l 1x4c
 -223.318359375 102.583984375 l 1
 -284 102.583984375 l 1
 -284 263.912109375 l 1
 -223.318359375 263.912109375 l 1x8c
 -223 327 l 1x50
EndSplineSet
EndChar

StartChar: alif_khanjariah
Encoding: 69 1648 122
GlifName: alif_khanjariah
Width: 164
GlyphClass: 2
Flags: HMW
VStem: 106 15.7861
AnchorPoint: "atas" 111 -21 mark 0
LayerCount: 2
Fore
SplineSet
66.5546875 263.146484375 m 1
 98.0087890625 230.41015625 137.94921875 91.52734375 121.786132812 0 c 1
 106 0 l 1
 98.7626953125 55.4306640625 89.2763671875 106.620117188 64.052734375 156.4921875 c 0
 61.705078125 161.086914062 59.2607421875 165.731445312 56.71875 170.42578125 c 2
 36.185546875 205.626953125 l 1
 37.7802734375 226.266601562 53.2431640625 259.92578125 53.2431640625 259.92578125 c 1
 66.5546875 263.146484375 l 1
EndSplineSet
EndChar

StartChar: tasydid
Encoding: 52 1617 123
GlifName: tasydid
Width: 380
GlyphClass: 4
Flags: HMW
HStem: 0 102<79.9995 102> 65 107<247.333 278.333 247.333 293.667>
VStem: 9 44.999 326 23<319 329>
AnchorPoint: "atas" 198 -27 mark 0
LayerCount: 2
Fore
SplineSet
363 233 m 0x70
 363 121 328.333007812 65 259 65 c 0
 235 65 213.666992188 72 195 86 c 1
 189.666992188 62.6669921875 176.666015625 42.6669921875 155.999023438 26 c 0
 134.666015625 8.6669921875 113 0 91 0 c 0xb0
 36.3330078125 0 9 36 9 108 c 0
 9 124.666992188 16.3330078125 158.333007812 31 209 c 1
 53.9990234375 213 l 1
 53.9990234375 139 66.9990234375 102 93 102 c 0
 135.666992188 102 165.666992188 156 183 264 c 1
 201 270 l 1
 216.333007812 204.666992188 235.666992188 172 259 172 c 0x70
 297.666015625 172 319.999023438 221 326 319 c 1
 349 329 l 1
 358.333007812 288.333007812 363 256.333007812 363 233 c 0x70
EndSplineSet
EndChar

StartChar: maddah
Encoding: 53 1619 124
GlifName: maddah
Width: 476
GlyphClass: 4
Flags: HMW
HStem: 42.2832 72<226.01 293.716>
AnchorPoint: "atas" 231 -45 mark 0
LayerCount: 2
Fore
SplineSet
462.143554688 190.283203125 m 0
 464.025390625 190.377929688 465.896484375 182.76171875 458.537109375 171.923828125 c 0
 438.512695312 142.431640625 337.290039062 42.283203125 250.142578125 42.283203125 c 0
 188.142578125 42.283203125 131.4765625 59.9501953125 80.142578125 95.283203125 c 1
 52.2236328125 39.4443359375 39.6748046875 13.595703125 28.537109375 0.8076171875 c 0
 21.70703125 -7.0361328125 1.732421875 -20.419921875 9 0 c 0
 25.5283203125 46.443359375 83.3896484375 162.412109375 93.140625 175.283203125 c 1
 141.809570312 141.740234375 195.87890625 114.283203125 256.140625 114.283203125 c 0
 342.010742188 114.283203125 431.642578125 188.7578125 462.143554688 190.283203125 c 0
EndSplineSet
EndChar

StartChar: alif.1
Encoding: 238 -1 207
GlifName: alif.1
Width: 382
GlyphClass: 2
Flags: W
HStem: 0 21G<186.162 204.973>
VStem: 102.914 153.627
LayerCount: 2
Fore
SplineSet
256.541015625 182 m 5
 245.512695312 124.733398438 204.97265625 0 204.97265625 0 c 5
 186.162109375 0 l 5
 186.162109375 0 124.461914062 419.92578125 102.9140625 634.791992188 c 4
 100.499023438 648.681640625 202.581054688 861.215820312 202.581054688 861.215820312 c 5
 215.892578125 864.436523438 l 5
 215.892578125 864.436523438 260.297851562 223.368164062 256.541015625 182 c 5
EndSplineSet
EndChar

StartChar: alif.2
Encoding: 239 -1 208
GlifName: alif.2
Width: 382
GlyphClass: 2
Flags: W
HStem: 0 21G<205.106 223.917>
VStem: 126.545 148.939
LayerCount: 2
Fore
SplineSet
275.484375 182 m 5
 264.456054688 124.733398438 223.916992188 0 223.916992188 0 c 5
 205.106445312 0 l 5
 205.106445312 0 148.091796875 546.090820312 126.544921875 760.95703125 c 4
 124.129882812 774.846679688 226.2109375 987.381835938 226.2109375 987.381835938 c 5
 239.522460938 990.6015625 l 5
 239.522460938 990.6015625 279.241210938 223.368164062 275.484375 182 c 5
EndSplineSet
EndChar

StartChar: uni066E.init1
Encoding: 240 -1 209
GlifName: uni066E_.init1
Width: 509
GlyphClass: 2
Flags: HMW
HStem: 9.99609 140<-63.1609 299.274 413.56 573.837>
VStem: -68.001 646.669
LayerCount: 2
Fore
SplineSet
427.92578125 409.052734375 m 6
 427.936523438 409.055664062 l 6
 429.043945312 409.0546875 429.653320312 408.55078125 429.653320312 407.489257812 c 4
 430.306640625 334.080078125 433.186523438 346.55859375 417.286132812 301.79296875 c 4
 408.475585938 276.986328125 402.587890625 255.627929688 394.01171875 187.002929688 c 4
 394.01171875 173.002929688 400.009765625 160.002929688 412.009765625 148.002929688 c 5
 445.208984375 139.107421875 469.860351562 139.313476562 497.522460938 139.807617188 c 4
 501.353515625 139.872070312 505.186523438 139.947265625 509.018554688 140 c 4
 547.499023438 139.93359375 578.66796875 108.719726562 578.66796875 70.224609375 c 6
 578.66796875 69.775390625 l 6
 578.66796875 31.275390625 547.487304688 0.0576171875 509 0 c 6
 497.510742188 0 l 5
 433.999023438 0 l 6
 389.052734375 0 348.291015625 53.78515625 346.000976562 60 c 6
 332.000976562 98 l 5
 324.543945312 82.4130859375 293.389648438 15.4541015625 286.000976562 0 c 5
 13.15625 0 l 5
 1.7734375 0 l 6
 -36.759765625 0 -68.0009765625 31.2392578125 -68.0009765625 69.775390625 c 6
 -68.0009765625 70.224609375 l 6
 -68.0009765625 108.760742188 -36.759765625 140 1.7734375 140 c 6
 13.15625 140 l 5
 277.999023438 140 l 6
 302.845703125 140 306.9921875 252.465820312 310.114257812 288.080078125 c 5
 330.826171875 338.952148438 414.836914062 409.052734375 427.92578125 409.052734375 c 6
EndSplineSet
EndChar

StartChar: alif.fina.1
Encoding: 241 -1 210
GlifName: alif.fina.1
Width: 210
GlyphClass: 2
Flags: HMW
HStem: 0 140<295.277 480>
VStem: 146.192 333.808
AnchorPoint: "atas" 129 1465 basechar 0
AnchorPoint: "bawah" 209 -116.996 basechar 0
LayerCount: 2
Fore
SplineSet
210 0 m 1
 153.39453125 864.436523438 l 1
 140.083007812 861.215820312 l 1
 140.083007812 861.215820312 38.001953125 648.681640625 40.4169921875 634.791992188 c 0
 61.9638671875 419.92578125 123.665039062 0 123.665039062 0 c 1
 210 0 l 1
EndSplineSet
EndChar

StartChar: alif.fina.2
Encoding: 242 -1 211
GlifName: alif.fina.2
Width: 210
GlyphClass: 2
Flags: W
AnchorPoint: "atas" 129 1465 basechar 0
AnchorPoint: "bawah" 209 -116.996 basechar 0
LayerCount: 2
Fore
SplineSet
161.278320312 990.6015625 m 5
 147.966796875 987.380859375 l 5
 147.966796875 987.380859375 45.8857421875 774.846679688 48.30078125 760.95703125 c 4
 69.84765625 546.090820312 126.862304688 0 126.862304688 0 c 5
 210 0 l 5
 161.278320312 990.6015625 l 5
EndSplineSet
EndChar

StartChar: lillah
Encoding: 243 -1 212
GlifName: lillah
Width: 1460
GlyphClass: 2
Flags: MW
HStem: 0.0175781 139.996<694.997 904.588 1032.48 1266.62> 146.389 141.116<246.631 418.329> 912.996 102<759.318 847.983> 977.996 107<916.296 1006.39>
VStem: 708.041 44.999<1021.93 1119.63> 872 15.7861<1316.36 1366.97> 924.899 110.563<140.014 494.667> 1025.04 23<1182.04 1232>
LayerCount: 2
Fore
SplineSet
1326.45605469 899.646484375 m 1xce
 1326.44726562 899.650390625 l 1
 1346.23632812 606.748046875 1352.75097656 567.096679688 1359.58105469 278.982421875 c 0
 1359.58105469 187.413085938 1295.29296875 0 1281.12695312 0 c 2
 1059.84179688 0 l 1
 1059.84179688 0.017578125 l 1
 941.890625 0.017578125 l 1
 928.888671875 86.017578125 l 1
 908.603515625 47.9453125 883.787109375 0.017578125 839.888671875 0.017578125 c 2
 694.997070312 0.017578125 l 1
 694.997070312 -0.00390625 l 1
 694.997070312 -0.00390625 503.623046875 -0.00390625 485.688476562 66.931640625 c 0
 484.079101562 72.935546875 479.53125 134.3515625 473.717773438 216.833984375 c 1
 445.741210938 180.9765625 418.329101562 146.388671875 418.329101562 146.388671875 c 1
 338.131835938 146.388671875 76.3466796875 212.70703125 84.7470703125 244.05859375 c 0
 105.357421875 342.924804688 147.965820312 415.736328125 211.247070312 491.05859375 c 0
 230.352539062 514.1484375 376.611328125 569.01171875 446.348632812 594.236328125 c 1
 442.743164062 638.16015625 439.5234375 672.4375 437.043945312 689.833984375 c 1
 531.846679688 791.14453125 l 1
 545.159179688 794.365234375 l 1
 545.159179688 794.35546875 l 2
 547.358398438 728.853515625 560.061523438 377.086914062 584.811523438 195.421875 c 0
 591.8125 144.041015625 632.904296875 140.288085938 722.827148438 140.013671875 c 2
 924.899414062 140.013671875 l 1
 893.995117188 382.165039062 886.672851562 449.215820312 856.055664062 691.404296875 c 1
 890.861328125 735.845703125 925.556640625 780.375 961.356445312 824.017578125 c 1
 974.649414062 827.234375 l 1
 988.715820312 544.259765625 1014.45507812 427.306640625 1035.46289062 140.013671875 c 1
 1069.89746094 140.013671875 l 1
 1069.89746094 139.997070312 l 1
 1258.58886719 139.997070312 l 2
 1284.58496094 139.997070312 1243.36621094 359.26953125 1207.70507812 762.809570312 c 1
 1244.40722656 806.106445312 1276.57714844 853.154296875 1313.23925781 896.453125 c 1
 1326.45605469 899.646484375 l 1xce
483.087890625 607.342773438 m 2
 483 607.342773438 482.8828125 607.296875 482.723632812 607.202148438 c 1
 482.991210938 607.296875 483.127929688 607.342773438 483.127929688 607.342773438 c 1
 483.087890625 607.342773438 l 2
448.551757812 566.866210938 m 1
 423.305664062 534.4765625 391.506835938 490.331054688 379.407226562 464.465820312 c 1
 360.006835938 458.403320312 203.354492188 404.930664062 178.952148438 379.370117188 c 0
 178.26171875 377 176.774414062 365.004882812 176.774414062 365.004882812 c 1
 238.760742188 322.641601562 368.76953125 285.703125 468.774414062 287.504882812 c 1
 462.286132812 380.47265625 454.956054688 485.662109375 448.551757812 566.866210938 c 1
832.5546875 1579.50976562 m 1
 864.008789062 1546.7734375 903.94921875 1407.890625 887.786132812 1316.36328125 c 1
 872 1316.36328125 l 1
 864.762695312 1371.79394531 855.276367188 1422.98339844 830.052734375 1472.85546875 c 0
 827.705078125 1477.45019531 825.260742188 1482.09472656 822.71875 1486.7890625 c 2
 802.185546875 1521.99023438 l 1
 803.780273438 1542.62988281 819.243164062 1576.2890625 819.243164062 1576.2890625 c 1
 832.5546875 1579.50976562 l 1
1062.04101562 1145.99609375 m 0
 1062.04101562 1033.99609375 1027.37402344 977.99609375 958.041015625 977.99609375 c 0xdd
 934.041015625 977.99609375 912.708007812 984.99609375 894.041015625 998.99609375 c 1
 888.708007812 975.663085938 875.70703125 955.663085938 855.040039062 938.99609375 c 0
 833.70703125 921.663085938 812.041015625 912.99609375 790.041015625 912.99609375 c 0
 735.374023438 912.99609375 708.041015625 948.99609375 708.041015625 1020.99609375 c 0
 708.041015625 1037.66308594 715.374023438 1071.32910156 730.041015625 1121.99609375 c 1
 753.040039062 1125.99609375 l 1
 753.040039062 1051.99609375 766.040039062 1014.99609375 792.041015625 1014.99609375 c 0xed
 834.708007812 1014.99609375 864.708007812 1068.99609375 882.041015625 1176.99609375 c 1
 900.041015625 1182.99609375 l 1
 915.374023438 1117.66308594 934.708007812 1084.99609375 958.041015625 1084.99609375 c 0
 996.70703125 1084.99609375 1019.04003906 1133.99609375 1025.04101562 1231.99609375 c 1
 1048.04101562 1241.99609375 l 1xdd
 1057.37402344 1201.32910156 1062.04101562 1169.32910156 1062.04101562 1145.99609375 c 0
EndSplineSet
EndChar

StartChar: ha_bulat.isol
Encoding: 163 65257 213
GlifName: ha_bulat.isol
Width: 499
GlyphClass: 2
Flags: W
AnchorPoint: "titik_atas" 198 704 basechar 0
LayerCount: 2
Fore
SplineSet
399.888671875 161.727539062 m 0
 416.96875 191.309570312 445.98046875 92.9150390625 428.772460938 63.408203125 c 0
 383.225585938 -14.6865234375 115.778320312 -6.1611328125 60.5439453125 89.5068359375 c 0
 -10.5556640625 212.655273438 110.706054688 378.170898438 140.954101562 413.776367188 c 0
 154.201171875 429.369140625 157.1875 422.619140625 160.849609375 424.734375 c 0
 179.0546875 435.244140625 243.307617188 419.319335938 228.442382812 404.455078125 c 0
 182.041015625 358.053710938 124.716796875 315.049804688 108 252.673828125 c 0
 68.50390625 105.263671875 374.872070312 118.395507812 399.888671875 161.727539062 c 0
219.534179688 549.784179688 m 0
 213.90234375 528.772460938 227.05078125 510.845703125 242.958984375 491.98828125 c 0
 290.657226562 435.444335938 391.263671875 372.932617188 445.977539062 311.666015625 c 0
 464.7421875 290.655273438 475.442382812 144.24609375 428.772460938 63.408203125 c 0
 411.693359375 33.826171875 417.90234375 132.705078125 399.888671875 161.727539062 c 0
 334.61328125 266.908203125 143.254882812 354.751953125 125.8203125 419.818359375 c 0
 118.787109375 446.069335938 179.890625 536.793945312 206.362304688 559.876953125 c 0
 215.3125 567.680664062 223.127929688 563.206054688 219.534179688 549.784179688 c 0
EndSplineSet
EndChar

StartChar: kaf.arab
Encoding: 44 1603 216
GlifName: kaf.arab
Width: 1274
GlyphClass: 2
Flags: HMW
HStem: 9.99609 140<252.003 1089 252.003 1111 252.003 1111>
VStem: -59.9971 69.9971 1067 20.002 1099 70.998
LayerCount: 2
Fore
SplineSet
698.001953125 709.99609375 m 1
 639.193359375 682.288085938 588.505859375 660.254882812 551.000976562 603.99609375 c 1
 529.651367188 546.518554688 670.227539062 555.889648438 691.002929688 511.99609375 c 0
 696.57421875 500.22265625 676.416992188 459.612304688 661.000976562 432.99609375 c 0
 637.58984375 392.57421875 609.6484375 367.374023438 579 338.99609375 c 0
 568.123046875 328.114257812 514.325195312 323.99609375 420.002929688 323.99609375 c 0
 411.333007812 323.99609375 405.001953125 324.663085938 400.999023438 325.99609375 c 1
 423.276367188 348.272460938 601.502929688 377.095703125 611.000976562 422.99609375 c 1
 611.000976562 453.258789062 475.002929688 455.516601562 475.002929688 507.99609375 c 0
 475.002929688 591.546875 644.953125 801.7734375 741.001953125 810.99609375 c 1
 726.315429688 777.478515625 711.624023438 743.962890625 698.001953125 709.99609375 c 1
1210 925.997070312 m 1
 1196.66894531 898.663085938 1183.83398438 872.330078125 1171.50097656 846.99609375 c 0
 1159.16894531 821.663085938 1146.33398438 794.99609375 1132.99902344 766.99609375 c 1
 1126 766.99609375 l 1
 1139.2890625 602.701171875 1168.29296875 355.514648438 1170.00097656 288.99609375 c 0
 1171.00585938 249.89453125 1150.08691406 27.7626953125 1111.00292969 9.99609375 c 1
 193.000976562 9.99609375 l 2
 20.8134765625 9.99609375 -59.9970703125 141.803710938 -59.9970703125 246.99609375 c 0
 -59.9970703125 353.4765625 3.6923828125 511.303710938 40.9990234375 532.99609375 c 0
 44.6474609375 535.115234375 52.0732421875 513.860351562 43.0029296875 479.99609375 c 0
 27.0791015625 420.581054688 9.6259765625 368.849609375 10 288.99609375 c 1
 38.947265625 216.440429688 80.302734375 188.287109375 106 174.99609375 c 0
 159.70703125 147.221679688 198.356445312 152.329101562 252.002929688 149.99609375 c 2
 1089.00195312 149.99609375 l 2
 1095.66894531 149.99609375 1099.00292969 160.663085938 1099.00292969 181.99609375 c 0
 1099.00292969 297.750976562 1057.16308594 527.842773438 998.001953125 845.99609375 c 1
 968.658203125 865.55859375 970.592773438 888.418945312 971.5 890.997070312 c 0
 995.032226562 957.952148438 1033.98730469 1020.24316406 1067.00097656 1080.99609375 c 0
 1072.1640625 1089.93945312 1089.171875 1078.92089844 1087.00292969 1070.99609375 c 0
 1083.18164062 1057.05371094 1077.69726562 1037.95800781 1074.00097656 1024.99609375 c 0
 1065.29296875 994.451171875 1165.53417969 952.16796875 1210 925.997070312 c 1
EndSplineSet
Substitution2: "'swsh' Kaf Swash-1" kaf.swsh
MultipleSubs2: "'init' Initial Forms lookup 11-1" uni06A9.init
MultipleSubs2: "'medi' Arabic Medial Forms-1" uni06A9.medi
MultipleSubs2: "'fina' Arabic Terminal Forms-1" kaf.arab.fina
EndChar

StartChar: kaf.arab.fina
Encoding: 244 -1 217
GlifName: kaf.arab.fina
Width: 1194
GlyphClass: 2
Flags: MW
HStem: 0 140<79.8288 936.113 1141.01 1258.43>
VStem: -61 70.001<217.003 406.564> 954 118.005<906.909 979.048> 1077 186.272<4.83967 111.963>
LayerCount: 2
Fore
SplineSet
1072.00488281 1108 m 5
 1141.01464844 140 l 5
 1182.13183594 140 l 5
 1193.50195312 140 l 6
 1232.03808594 140 1263.27441406 108.760742188 1263.27441406 70.224609375 c 6
 1263.27441406 69.7734375 l 6
 1263.27441406 31.23828125 1232.03808594 0 1193.50195312 0 c 6
 1182.11816406 0 l 5
 1077.00195312 0 l 5
 1056.00292969 164 l 5
 1015.33496094 93.333984375 976.001953125 48.333984375 938.001953125 29 c 4
 898.002929688 9.6669921875 839.333984375 0 762 0 c 6
 192.001953125 0 l 6
 19.814453125 0 -61 131.807617188 -61 237 c 4
 -61 343.48046875 2.693359375 501.307617188 40.0009765625 523 c 4
 43.6484375 525.119140625 51.0751953125 503.864257812 42 470 c 4
 26.0810546875 410.584960938 8.623046875 358.853515625 9.0009765625 279 c 5
 37.9482421875 206.444335938 79.2998046875 178.291015625 105.000976562 165 c 4
 158.708007812 137.225585938 197.357421875 142.333007812 251 140 c 6
 799.999023438 140 l 6
 854.106445312 140 897.897460938 150.276367188 923 158 c 4
 958.3359375 169.333984375 1001.66699219 191.333984375 1053.00195312 224 c 5
 1019.91601562 469.989257812 985.90625 715.854492188 954 962 c 5
 996.920898438 1016.76171875 1020.00683594 1043.45507812 1072.00488281 1108 c 5
723.502929688 801 m 5
 708.818359375 767.482421875 694.123046875 733.966796875 680.501953125 700 c 5
 621.693359375 672.291015625 571.004882812 650.256835938 533.500976562 593.998046875 c 5
 512.151367188 536.520507812 652.7265625 545.893554688 673.501953125 502 c 4
 679.073242188 490.2265625 658.916992188 449.616210938 643.5 423 c 4
 620.08984375 382.578125 592.1484375 357.376953125 561.5 329 c 4
 550.622070312 318.118164062 496.825195312 314 402.502929688 314 c 4
 393.83203125 314 387.501953125 314.666992188 383.499023438 316 c 5
 405.776367188 338.276367188 584.002929688 367.099609375 593.500976562 413 c 5
 593.500976562 443.262695312 457.501953125 445.518554688 457.501953125 497.998046875 c 4
 457.501953125 581.548828125 627.453125 791.77734375 723.502929688 801 c 5
EndSplineSet
Substitution2: "'swsh' Kaf Swash-1" kaf.swsh.fina
EndChar

StartChar: kaf.init_pndk
Encoding: 245 -1 218
GlifName: kaf.init_pndk
Width: 404
GlyphClass: 2
Flags: MW
HStem: 0 140<-64.9338 0>
VStem: 332.455 61.833<158.478 216.033>
AnchorPoint: "kaf_init" 334.636 200.393 entry 0
LayerCount: 2
Fore
SplineSet
332.455078125 204.59375 m 5
 331.35546875 226.844726562 397.633789062 225.038085938 394.288085938 198.125976562 c 4
 384.70703125 148.15625 354.731445312 88.279296875 287.123046875 20.3828125 c 4
 268.524414062 1.7041015625 71.365234375 0 0 0 c 4
 -38.53515625 0 -69.7734375 31.240234375 -69.7734375 69.775390625 c 6
 -69.7734375 70.224609375 l 6
 -69.7734375 108.760742188 -38.53515625 140 0 140 c 6
 0 140 305.091796875 138.34765625 324.627929688 157.8828125 c 4
 337.073242188 170.328125 338.4453125 198.596679688 332.455078125 204.59375 c 5
EndSplineSet
Substitution2: "'swsh' padam" padam
Substitution2: "Single Sub Kaf Panjang-1" kaf.init_pnjg
EndChar

StartChar: kaf.init_pnjg
Encoding: 246 -1 219
GlifName: kaf.init_pnjg
Width: 738
GlyphClass: 2
Flags: MW
HStem: 0 140<-64.9339 0>
VStem: 669.227 61.833<158.478 216.033>
AnchorPoint: "kaf_init" 675 204 entry 0
LayerCount: 2
Fore
SplineSet
669.2265625 204.59375 m 1
 668.129882812 226.844726562 734.404296875 225.038085938 731.059570312 198.125976562 c 0
 721.478515625 148.15625 691.501953125 88.279296875 623.89453125 20.3828125 c 4
 605.294921875 1.7041015625 71.365234375 0 0 0 c 4
 -38.5361328125 0 -69.7734375 31.240234375 -69.7734375 69.775390625 c 2
 -69.7734375 70.224609375 l 2
 -69.7734375 108.760742188 -38.5361328125 140 0 140 c 2
 0 140 641.862304688 138.34765625 661.3984375 157.8828125 c 0
 673.84375 170.328125 675.215820312 198.596679688 669.2265625 204.59375 c 1
EndSplineSet
Substitution2: "'swsh' padam" padam
EndChar

StartChar: kaf.medi_pndk
Encoding: 247 -1 220
GlifName: kaf.medi_pndk
Width: 418
GlyphClass: 2
Flags: MW
HStem: 0 140<-63.5627 363.844>
VStem: 389.518 22.8818<158.478 205.569>
AnchorPoint: "kaf_medi" 391 205.004 entry 0
LayerCount: 2
Fore
SplineSet
389.517578125 204.59375 m 5
 395.84765625 232.111328125 409.568359375 194.319335938 412.399414062 179.419921875 c 4
 434.162109375 112.9296875 353.634765625 29.8662109375 344.190429688 20.3828125 c 4
 324.127929688 0.2490234375 311.361328125 0 12.755859375 0 c 6
 1.3720703125 0 l 6
 -37.1640625 0 -68.40234375 31.240234375 -68.40234375 69.775390625 c 6
 -68.40234375 70.224609375 l 6
 -68.40234375 108.760742188 -37.1640625 140 1.3720703125 140 c 6
 12.755859375 140 l 5
 12.755859375 139.6171875 l 5
 173.838867188 134.438476562 361.715820312 137.91015625 381.690429688 157.8828125 c 4
 394.135742188 170.329101562 395.51171875 198.596679688 389.517578125 204.59375 c 5
EndSplineSet
Substitution2: "'swsh' padam" padam
Substitution2: "Single Sub Kaf Panjang-1" kaf.medi_pnjg
EndChar

StartChar: kaf.medi_pnjg
Encoding: 248 -1 221
GlifName: kaf.medi_pnjg
Width: 667
GlyphClass: 2
Flags: HMW
HStem: 0 140<-64.1037 486.311>
VStem: 637.171 22.8809<158.478 205.569>
AnchorPoint: "kaf_medi" 639 205.395 entry 0
LayerCount: 2
Fore
SplineSet
637.170898438 204.59375 m 1
 643.500976562 232.112304688 657.220703125 194.319335938 660.051757812 179.419921875 c 0
 681.815429688 112.9296875 601.288085938 29.8662109375 591.842773438 20.3828125 c 0
 571.78125 0.2490234375 310.8203125 0 12.21484375 0 c 2
 0.8310546875 0 l 2
 -37.705078125 0 -68.943359375 31.240234375 -68.943359375 69.775390625 c 2
 -68.943359375 70.224609375 l 2
 -68.943359375 108.760742188 -37.3887724481 140 0.8310546875 140 c 2
 11 140 l 1
 12 140 l 1
 173.083007812 134.821289062 609.369140601 137.909179663 629.342773438 157.8828125 c 0
 641.7890625 170.329101562 643.165039062 198.596679688 637.170898438 204.59375 c 1
EndSplineSet
Substitution2: "'swsh' padam" padam
EndChar

StartChar: kaf.swsh
Encoding: 120 1706 225
GlifName: kaf.swsh
Width: 1874
GlyphClass: 2
Flags: HMW
HStem: 10.6494 140.001
LayerCount: 2
Fore
SplineSet
985.161132812 985.650390625 m 1
 985.161132812 985.649414062 l 1
 950.703125 924.93359375 946.194335938 911.55859375 905.16015625 835.649414062 c 1
 599.837890625 747.603515625 505.459960938 702.4765625 369.162109375 628.649414062 c 0
 308.497070312 591.983398438 274.163085938 558.982421875 266.163085938 529.649414062 c 1
 274.828125 502.982421875 312.49609375 484.649414062 379.159179688 474.649414062 c 1
 1131.64257812 428.524414062 1656.81542969 543.969726562 1770.65917969 448.649414062 c 0
 1784.99609375 436.649414062 1797.83105469 421.649414062 1809.16113281 403.649414062 c 0
 1825.69335938 373.58984375 1825.05371094 262.661132812 1800.15917969 206.649414062 c 2
 1725.16113281 10.6494140625 l 1
 88.2587890625 10.6494140625 l 1
 34.158203125 10.6494140625 l 2
 -10.01953125 10.6494140625 -242.578125 149.635742188 -264.106445312 162.475585938 c 1
 -264.756835938 172.395507812 l 1
 -140.794921875 153.612304688 -28.6943359375 150.896484375 34.158203125 150.612304688 c 1
 34.158203125 150.650390625 l 1
 75 150.650390625 l 1
 1694.16210938 150.650390625 l 1
 1699.49511719 163.984375 1703.16113281 176.317382812 1705.16015625 187.650390625 c 0
 1724.1640625 275.93359375 1665.22167969 322.557617188 1592.16015625 348.650390625 c 1
 1392.62695312 401.860351562 720.423828125 292.413085938 262.159179688 340.650390625 c 0
 190.159179688 348.651367188 154.159179688 362.984375 154.159179688 383.650390625 c 0
 154.159179688 468.984375 205.829101562 558.317382812 309.161132812 651.650390625 c 0
 344.3203125 679.916015625 551.758789062 869.520507812 985.161132812 985.650390625 c 1
EndSplineSet
MultipleSubs2: "'init' Initial Forms lookup 11-1" kaf.swsh.init
MultipleSubs2: "'medi' Arabic Medial Forms-1" kaf.swsh.medi
MultipleSubs2: "'fina' Arabic Terminal Forms-1" kaf.swsh.fina
EndChar

StartChar: kaf.swsh.fina
Encoding: 250 -1 226
GlifName: kaf.swsh.fina
Width: 1919
GlyphClass: 2
Flags: MW
HStem: 0.000976562 140.002<-95.7274 1684.15 1790.87 1983.85> 318.385 151.062<245.745 545.763 933.788 1105.37> 352.417 117.03<894.679 1627.26>
AnchorPoint: "titik_atas" 211 757.903 basechar 0
AnchorPoint: "titik_bawah" 967 -122.097 basechar 0
LayerCount: 2
Fore
SplineSet
962.909179688 974.99609375 m 5xc0
 962.919921875 974.98828125 l 5
 928.462890625 914.272460938 923.954101562 900.897460938 882.918945312 824.98828125 c 5
 767.999023438 791.849609375 702.094726562 767.860351562 633.462890625 743.0625 c 4
 581.358398438 724.23828125 524.294921875 702.216796875 485.196289062 684.328125 c 4
 438.9609375 663.173828125 392.974609375 642.93359375 346.921875 617.98828125 c 4
 316.586914062 599.655273438 292.83984375 582.23828125 275.673828125 565.73828125 c 4
 271.379882812 561.614257812 267.502929688 557.547851562 264.033203125 553.537109375 c 4
 260.563476562 549.52734375 257.505859375 545.575195312 254.860351562 541.6796875 c 4
 252.213867188 537.784179688 249.981445312 533.947265625 248.159179688 530.166015625 c 4
 247.248046875 528.276367188 246.434570312 526.400390625 245.732421875 524.5390625 c 4
 245.026367188 522.677734375 244.424804688 520.831054688 243.921875 518.998046875 c 4
 246.091796875 512.33203125 250.068359375 506.186523438 255.858398438 500.560546875 c 4
 264.546875 492.124023438 277.309570312 484.857421875 294.15234375 478.763671875 c 4
 299.764648438 476.733398438 305.834960938 474.831054688 312.354492188 473.060546875 c 4
 325.397460938 469.51953125 340.250976562 466.498046875 356.915039062 463.999023438 c 4
 733.159179688 440.935546875 1052.57128906 458.266601562 1292.15527344 469.447265625 c 4
 1501.79003906 479.23046875 1650.30664062 484.305664062 1722.29589844 453.4921875 c 5
 1812.03710938 399.881835938 1814.90136719 285.805664062 1777.91503906 196 c 5
 1825.75585938 150.548828125 1852.57226562 138.545898438 1918.921875 139.998046875 c 4
 1957.45800781 139.997070312 1988.69140625 108.7578125 1988.69140625 70.22265625 c 6
 1988.69140625 69.7734375 l 6
 1988.69140625 31.23828125 1957.45410156 0 1918.91796875 0 c 6
 1907.53417969 0 l 5
 1907.53417969 0.0830078125 l 5
 1775.35253906 2.03125 1768.97265625 38.36328125 1731.97460938 75.9375 c 5
 1702.91796875 0.0009765625 l 5
 11.916015625 0.0009765625 l 6
 -32.2626953125 0.0009765625 -264.821289062 138.985351562 -286.348632812 151.826171875 c 5
 -287 161.747070312 l 5
 -163.0390625 142.963867188 -50.9375 140.248046875 11.916015625 139.96484375 c 5
 11.916015625 140.002929688 l 5
 1671.91796875 140.002929688 l 5
 1701.46972656 213.8359375 1694.45605469 293.524414062 1569.91601562 338.002929688 c 5
 1520.03417969 351.3046875 1440.60644531 354.440429688 1342.37011719 352.416992188 c 4xa0
 1145.89550781 348.368164062 874.162109375 323.676757812 613.00390625 318.384765625 c 4
 482.421875 315.739257812 354.481445312 317.942382812 239.916015625 330.001953125 c 4
 183.665039062 336.251953125 149.388671875 346.368164062 137.08203125 360.350585938 c 4
 136.590820312 360.909179688 136.133789062 361.473632812 135.709960938 362.044921875 c 4
 135.291015625 362.6171875 134.89453125 363.1953125 134.553710938 363.779296875 c 4
 134.202148438 364.36328125 133.866210938 364.953125 133.600585938 365.548828125 c 4
 133.322265625 366.146484375 133.090820312 366.748046875 132.864257812 367.357421875 c 4
 132.640625 367.966796875 132.490234375 368.580078125 132.338867188 369.202148438 c 4
 132.067382812 370.443359375 131.916015625 371.7109375 131.916015625 373.001953125 c 4
 131.916015625 458.3359375 183.5859375 547.66796875 286.91796875 641 c 4
 308.92578125 658.6953125 408.1015625 740.297851562 578.3203125 826.842773438 c 4
 612.025390625 843.981445312 639.252929688 860.661132812 679.392578125 877.793945312 c 4
 760.333984375 912.340820312 854.561523438 945.96484375 962.909179688 974.99609375 c 5xc0
EndSplineSet
EndChar

StartChar: kaf.swsh.medi
Encoding: 251 -1 227
GlifName: kaf.swsh.medi
Width: 1907
GlyphClass: 2
Flags: MW
HStem: 0 140<-64.9339 1671.84 1778.95 1971.94> 825 150<816.83 878.282>
AnchorPoint: "titik_atas" 220 809.351 basechar 0
AnchorPoint: "titik_bawah" 872 -122.649 basechar 0
LayerCount: 2
Fore
SplineSet
951.000976562 975 m 1
 916.54296875 914.284179688 912.034179688 900.909179688 871 825 c 1
 565.677734375 736.954101562 471.295898438 691.827148438 335.001953125 618 c 0
 274.336914062 581.333984375 240.00390625 548.333984375 232.001953125 519 c 1
 240.668945312 492.333984375 278.33203125 474 344.999023438 464 c 1
 1097.484375 417.875 1622.65722656 533.3203125 1736.50097656 438 c 0
 1750.83691406 426 1763.671875 411 1775.00292969 393 c 0
 1791.53417969 362.940429688 1790.89550781 252.01171875 1766 196 c 1
 1813.84082031 150.548828125 1840.65625 138.545898438 1907.00683594 139.998046875 c 0
 1945.54296875 139.997070312 1976.77636719 108.7578125 1976.77636719 70.22265625 c 2
 1976.77636719 69.7734375 l 2
 1976.77636719 31.23828125 1945.5390625 0 1907.00292969 0 c 2
 1895.61816406 0 l 1
 1895.61816406 0.08203125 l 1
 1763.4375 2.0302734375 1757.05761719 38.3623046875 1720.05957031 75.935546875 c 1
 1691.00292969 0 l 1
 11.3837890625 0 l 1
 0 0 l 2
 -38.5361328125 0 -69.7734375 31.240234375 -69.7734375 69.775390625 c 2
 -69.7734375 70.224609375 l 2
 -69.7734375 108.760742188 -38.5361328125 140 0 140 c 2
 11.3837890625 140 l 1
 1660.00292969 140 l 1
 1665.3359375 153.333984375 1669.00195312 165.666992188 1671.00195312 177 c 0
 1690.00488281 265.283203125 1631.06347656 311.907226562 1558.00097656 338 c 1
 1358.46875 391.209960938 686.263671875 281.762695312 228 330 c 0
 156 338 120 352.333984375 120 373 c 0
 120 458.333984375 171.669921875 547.666992188 275.001953125 641 c 0
 310.159179688 669.265625 517.598632812 858.870117188 951.000976562 975 c 1
EndSplineSet
EndChar

StartChar: kaf.swsh.init
Encoding: 252 -1 228
GlifName: kaf.swsh.init
Width: 1835
GlyphClass: 2
Flags: MW
HStem: 0 140<-64.9347 1671.83> 825 150<816.83 878.282>
AnchorPoint: "titik_atas" 211 757.903 basechar 0
AnchorPoint: "titik_bawah" 967 -122.097 basechar 0
LayerCount: 2
Fore
SplineSet
951.000976562 975 m 5
 916.54296875 914.284179688 912.034179688 900.909179688 871 825 c 5
 565.677734375 736.954101562 471.299804688 691.827148438 335.001953125 618 c 4
 274.336914062 581.333984375 240.00390625 548.333984375 232.002929688 519 c 5
 240.668945312 492.333984375 278.3359375 474 344.999023438 464 c 5
 1097.48339844 417.875 1622.65625 533.321289062 1736.49902344 438 c 4
 1750.8359375 426 1763.67089844 411 1775.00195312 393 c 4
 1791.53320312 362.940429688 1790.89453125 252.01171875 1765.99804688 196 c 6
 1691.00195312 0 l 5
 11.3837890625 0 l 5
 0 0 l 6
 -38.5361328125 0 -69.7744140625 31.240234375 -69.7744140625 69.775390625 c 6
 -69.7744140625 70.224609375 l 6
 -69.7744140625 108.760742188 -38.5361328125 140 0 140 c 6
 11.3837890625 140 l 5
 1660.00292969 140 l 5
 1665.3359375 153.333984375 1669.00195312 165.666992188 1671.00097656 177 c 4
 1690.00488281 265.283203125 1631.0625 311.907226562 1558.00097656 338 c 5
 1358.46777344 391.209960938 686.263671875 281.762695312 228 330 c 4
 156 338 120 352.333984375 120 373 c 4
 120 458.333984375 171.669921875 547.666992188 275.001953125 641 c 4
 310.159179688 669.265625 517.598632812 858.870117188 951.000976562 975 c 5
EndSplineSet
EndChar

StartChar: dua.arab_naik
Encoding: 253 -1 229
GlifName: dua.arab_naik
Width: 0
GlyphClass: 2
Flags: W
HStem: 687.5 77.5<-371.825 -227.351>
VStem: -364.75 50.5<324 578.127> -202.75 20.5<830.434 882.476>
LayerCount: 2
Fore
SplineSet
-456.75 888 m 1
 -453.75 888 l 1
 -444.75 868.5 -433.75 851 -420.75 836 c 0
 -407.75 821 -393.75 808 -378.75 797.5 c 0
 -363.75 787 -348.25 778.5 -332.75 773.5 c 0
 -317.25 767.5 -302.25 765 -288.75 765 c 0
 -263.25 765 -243.25 775.5 -228.75 797.5 c 0
 -214.25 818.5 -205.25 849 -202.75 888 c 1
 -194.75 884 l 2
 -188.25 880.5 -184.25 872.5 -182.25 859.5 c 0
 -180.25 846.5 -179.25 833 -179.25 819.5 c 0
 -179.25 804 -182.25 788 -187.25 772.5 c 0
 -193.25 757 -200.25 742.5 -210.25 730 c 0
 -219.25 717.5 -231.25 707 -244.75 699.5 c 0
 -258.25 691.5 -273.25 687.5 -289.75 687.5 c 0
 -304.25 687.5 -318.75 689.5 -333.75 693 c 0
 -348.75 696.5 -361.25 702 -371.75 709 c 1
 -372.75 708 l 1
 -355.25 669 -340.75 628.5 -330.25 586.5 c 0
 -319.75 544.5 -314.25 505.5 -314.25 469.5 c 0
 -314.25 456.5 -314.25 443 -314.75 429.5 c 0
 -315.25 416 -315.75 402.5 -316.25 389.5 c 0
 -316.75 376.5 -317.75 364.5 -319.25 353 c 0
 -320.25 341.5 -321.25 332 -321.75 324 c 1
 -366.75 296 l 1
 -368.75 296 l 1
 -367.25 312.5 -366.75 329 -366.75 345 c 0
 -366.75 361 -366.25 380 -364.75 401.5 c 0
 -364.25 432.5 -365.75 463 -369.75 493 c 0
 -373.75 523 -381.25 554 -392.25 585.5 c 0
 -403.25 617 -417.25 650.5 -434.75 686.5 c 0
 -452.25 721.5 -473.75 760.5 -499.75 802 c 1
 -456.75 888 l 1
EndSplineSet
EndChar

StartChar: NameMe.7
Encoding: 254 -1 230
GlifName: N_ameM_e.7
Width: 432
GlyphClass: 2
Flags: HMW
HStem: -498 94<20 68 210 364 20 68> -310 94<210 240 240 364 210 210>
VStem: 68 142<-404 -310 -404 -262 -404 -262>
LayerCount: 2
Fore
SplineSet
364 -216 m 1
 364 -310 l 1
 210 -310 l 1
 210 -404 l 1
 364 -404 l 1
 364 -498 l 1
 20 -498 l 1
 20 -404 l 1
 68 -404 l 1
 68 -262 l 1
 116 -262 l 1
 116 -216 l 1
 240 -216 l 1
 364 -216 l 1
260.6171875 191.99609375 m 1
 249.587890625 134.729492188 209.048828125 9.99609375 209.048828125 9.99609375 c 1
 190.23828125 9.99609375 l 1
 190.23828125 9.99609375 133.223632812 725.129882812 111.676757812 939.99609375 c 0
 109.26171875 953.885742188 211.342773438 1166.41992188 211.342773438 1166.41992188 c 1
 224.654296875 1169.640625 l 1
 224.654296875 1169.640625 264.374023438 233.364257812 260.6171875 191.99609375 c 1
EndSplineSet
EndChar

StartChar: NameMe.97
Encoding: 255 -1 231
GlifName: N_ameM_e.97
Width: 0
GlyphClass: 4
Flags: HMW
HStem: 0 196<0 98 98 196 0 98>
VStem: 0 196<0 196 0 196>
LayerCount: 2
Fore
SplineSet
196 196 m 1
 196 0 l 1
 0 0 l 1
 0 196 l 1
 98 196 l 1
 196 196 l 1
EndSplineSet
EndChar

StartChar: dua.arab
Encoding: 59 1634 247
GlifName: dua.arab
Width: 942
Flags: W
HStem: 760 155<416.426 669.064>
VStem: 409 101<33.7522 538.308> 737 41<1045.87 1149.95>
LayerCount: 2
Fore
SplineSet
229 1161 m 1
 235 1161 l 1
 253 1122 275 1087 301 1057 c 0
 327 1027 355 1001 385 980 c 0
 415 959 446 942 477 932 c 0
 508 920 538 915 565 915 c 0
 616 915 656 936 685 980 c 0
 714 1022 732 1083 737 1161 c 1
 753 1153 l 2
 766 1146 774 1130 778 1104 c 0
 782 1078 784 1051 784 1024 c 0
 784 993 778 961 768 930 c 0
 756 899 742 870 722 845 c 0
 704 820 680 799 653 784 c 0
 626 768 596 760 563 760 c 0
 534 760 505 764 475 771 c 0
 445 778 420 789 399 803 c 1
 397 801 l 1
 432 723 461 642 482 558 c 0
 503 474 514 396 514 324 c 0
 514 298 514 271 513 244 c 0
 512 217 511 190 510 164 c 0
 509 138 507 114 504 91 c 0
 502 68 500 49 499 33 c 1
 409 -23 l 1
 405 -23 l 1
 408 10 409 43 409 75 c 0
 409 107 410 145 413 188 c 0
 414 250 411 311 403 371 c 0
 395 431 380 493 358 556 c 0
 336 619 308 686 273 758 c 0
 238 828 195 906 143 989 c 1
 229 1161 l 1
EndSplineSet
EndChar

StartChar: kasyida.0
Encoding: 259 -1 255
GlifName: kasyida.0
Width: 60
Flags: W
HStem: 0 140
VStem: -32.5527 125.105
LayerCount: 2
Fore
SplineSet
0 140 m 1
 -32.552734375 107.44140625 l 1
 -32.552734375 0 l 1
 24.419921875 0 l 1
 35.580078125 0 l 1
 60 0 l 1
 92.552734375 32.55859375 l 1
 92.552734375 140 l 1
 35.580078125 140 l 1
 24.419921875 140 l 1
 0 140 l 1
EndSplineSet
EndChar

StartChar: kasyida.1
Encoding: 260 -1 256
GlifName: kasyida.1
Width: 126
Flags: W
HStem: 0 140.001<-3.80936 97.9766>
VStem: -33.5508 192.104<32.5566 139.241>
LayerCount: 2
Fore
SplineSet
-32.5947265625 207.599609375 m 0
 -38.294921875 207.599609375 -47.361328125 149.540039062 -33.55078125 98 c 0
 -17.5185546875 48.3681640625 24.388671875 0 68.447265625 0 c 2
 101.580078125 0 l 1
 126 0 l 1
 158.552734375 32.556640625 l 1
 158.552734375 140.000976562 l 1
 101.580078125 140.000976562 l 1
 97.9765625 140.000976562 l 2
 -39.9345703125 140.000976562 -23.8720703125 207.599609375 -32.5947265625 207.599609375 c 0
EndSplineSet
EndChar

StartChar: kasyida.1.1
Encoding: 261 -1 257
GlifName: kasyida.1.1
Width: 170
Flags: W
HStem: 0 140<-4.2378 97.5479>
VStem: -33.9795 236.532<32.5566 139.24>
LayerCount: 2
Fore
SplineSet
-33.0234375 207.599609375 m 0
 -38.72265625 207.599609375 -47.7900390625 149.5390625 -33.9794921875 98 c 0
 -17.9462890625 48.3681640625 23.9609375 0 68.0185546875 0 c 2
 145.580078125 0 l 1
 170 0 l 1
 202.552734375 32.556640625 l 1
 202.552734375 140 l 1
 145.580078125 140 l 1
 97.5478515625 140 l 2
 -40.36328125 140 -24.2998046875 207.599609375 -33.0234375 207.599609375 c 0
EndSplineSet
EndChar

StartChar: uni066E.medi.1
Encoding: 262 -1 258
GlifName: uni066E_.medi.1
Width: 343
Flags: W
AnchorPoint: "cincin" 234.156 -143.285 basechar 0
AnchorPoint: "bawah" 254.156 -93.2852 basechar 0
AnchorPoint: "atas" 326.156 656.715 basechar 0
AnchorPoint: "titik_bawah" 304.156 -143.285 basechar 0
AnchorPoint: "titik_atas" 250.156 608.715 basechar 0
LayerCount: 2
Fore
SplineSet
469.581054688 489.221679688 m 2
 469.392578125 489.221679688 469.203125 489.1640625 469.021484375 489.051757812 c 0
 467.494140625 488.168945312 352.48046875 421.780273438 328.657226562 368.078125 c 1
 325.271484375 332.559570312 285.858398438 141.02734375 261 140 c 0
 260.919921875 140 260.887595173 140 260.811523438 140 c 2
 24.4189453125 140 l 1
 0 140 l 1
 -32.552734375 107.44140625 l 1
 -32.552734375 0 l 1
 24.4189453125 0 l 1
 246.6875 0 l 1
 266.737304688 20.05078125 343.911132812 128.841796875 350.356445312 139.998046875 c 0
 421.126953125 262.586914062 471.852539062 390.556640625 470.915039062 487.486328125 c 0
 470.915039062 488.349609375 470.359375 489.241210938 469.592773438 489.22265625 c 2
 469.581054688 489.221679688 l 2
EndSplineSet
EndChar

StartChar: uni066E.init.2.1
Encoding: 263 -1 259
GlifName: uni066E_.init.2.1
Width: 402
Flags: W
HStem: 0 140.002<9.79526 156.999 189.552 301.419>
VStem: 156.999 32.5527<32.5566 107.441> 301.419 75.998<140.918 292.236>
AnchorPoint: "titik_atas" 229 658.004 basechar 0
AnchorPoint: "titik_bawah" 265 -144.996 basechar 0
AnchorPoint: "atas" 315 655.004 basechar 0
AnchorPoint: "bawah" 239 -94.9961 basechar 0
AnchorPoint: "cincin" 195 -144.996 basechar 0
LayerCount: 2
Fore
SplineSet
-18.46484375 207.599609375 m 0
 -6.99478904498 205.275657183 -51.3609932925 140.000976562 112.102539062 140.000976562 c 2
 132.580078125 140.000976562 l 1
 189.551757812 140.000976562 l 1
 189.551757812 32.556640625 l 1
 156.999023438 0 l 1
 132.580078125 0 l 1
 82.5732421875 0 l 2
 38.5146484375 0 -3.388671875 48.3681640625 -19.4248046875 98 c 0
 -33.232421875 149.540039062 -24.0515230357 208.731528612 -18.46484375 207.599609375 c 0
281.784179688 547.841796875 m 1
 302.793945312 506.98828125 377.416992188 353.071289062 377.416992188 244 c 0
 377.416992188 164.743164062 359.106445312 78.0185546875 333.419921875 0 c 1
 213.971679688 0 l 1
 156.999023438 0 l 1
 156.999023438 107.44140625 l 1
 189.551757812 140.001953125 l 1
 213.971679688 140.001953125 l 1
 301.418945312 140.001953125 l 1
 301.418945312 263.990234375 201.419921875 415 201.419921875 415 c 1
 213.600585938 442.321289062 237.7109375 491.775390625 268.522460938 544.6328125 c 1
 281.784179688 547.841796875 l 1
EndSplineSet
EndChar

